%TF.GenerationSoftware,KiCad,Pcbnew,(6.0.8-1)-1*%
%TF.CreationDate,2023-02-02T10:16:17-05:00*%
%TF.ProjectId,protopcb,70726f74-6f70-4636-922e-6b696361645f,rev?*%
%TF.SameCoordinates,Original*%
%TF.FileFunction,Soldermask,Top*%
%TF.FilePolarity,Negative*%
%FSLAX46Y46*%
G04 Gerber Fmt 4.6, Leading zero omitted, Abs format (unit mm)*
G04 Created by KiCad (PCBNEW (6.0.8-1)-1) date 2023-02-02 10:16:17*
%MOMM*%
%LPD*%
G01*
G04 APERTURE LIST*
%ADD10R,1.700000X1.700000*%
%ADD11O,1.700000X1.700000*%
%ADD12C,1.700000*%
%ADD13O,1.727200X1.727200*%
%ADD14R,1.727200X1.727200*%
%ADD15C,2.700000*%
G04 APERTURE END LIST*
D10*
%TO.C,REF\u002A\u002A*%
X48500000Y-128975000D03*
D11*
X51040000Y-128975000D03*
X53580000Y-128975000D03*
X56120000Y-128975000D03*
X58660000Y-128975000D03*
X61200000Y-128975000D03*
X63740000Y-128975000D03*
X66280000Y-128975000D03*
X68820000Y-128975000D03*
X71360000Y-128975000D03*
X73900000Y-128975000D03*
X76440000Y-128975000D03*
X78980000Y-128975000D03*
X81520000Y-128975000D03*
%TD*%
D10*
%TO.C,REF\u002A\u002A*%
X47000000Y-33000000D03*
D11*
X49540000Y-33000000D03*
X52080000Y-33000000D03*
X54620000Y-33000000D03*
X57160000Y-33000000D03*
X59700000Y-33000000D03*
X62240000Y-33000000D03*
X64780000Y-33000000D03*
X67320000Y-33000000D03*
X69860000Y-33000000D03*
X72400000Y-33000000D03*
X74940000Y-33000000D03*
X77480000Y-33000000D03*
X80020000Y-33000000D03*
%TD*%
D12*
%TO.C,REF\u002A\u002A566*%
X87720000Y-77590000D03*
%TD*%
%TO.C,REF\u002A\u002A624*%
X72480000Y-97910000D03*
%TD*%
%TO.C,REF\u002A\u002A112*%
X47080000Y-49650000D03*
%TD*%
%TO.C,REF\u002A\u002A374*%
X67400000Y-54730000D03*
%TD*%
%TO.C,REF\u002A\u002A813*%
X39460000Y-54730000D03*
%TD*%
%TO.C,REF\u002A\u002A94*%
X62320000Y-42030000D03*
%TD*%
%TO.C,REF\u002A\u002A586*%
X77560000Y-85210000D03*
%TD*%
%TO.C,REF\u002A\u002A603*%
X80100000Y-90290000D03*
%TD*%
%TO.C,REF\u002A\u002A597*%
X85180000Y-87750000D03*
%TD*%
%TO.C,REF\u002A\u002A54*%
X42000000Y-105530000D03*
%TD*%
%TO.C,REF\u002A\u002A404*%
X67400000Y-92830000D03*
%TD*%
%TO.C,REF\u002A\u002A874*%
X36920000Y-105530000D03*
%TD*%
%TO.C,REF\u002A\u002A247*%
X64860000Y-90290000D03*
%TD*%
%TO.C,REF\u002A\u002A470*%
X87720000Y-47110000D03*
%TD*%
%TO.C,REF\u002A\u002A348*%
X57240000Y-123310000D03*
%TD*%
%TO.C,REF\u002A\u002A393*%
X69940000Y-77590000D03*
%TD*%
%TO.C,REF\u002A\u002A479*%
X90260000Y-49650000D03*
%TD*%
%TO.C,REF\u002A\u002A129*%
X49620000Y-54730000D03*
%TD*%
%TO.C,REF\u002A\u002A692*%
X82640000Y-118230000D03*
%TD*%
%TO.C,REF\u002A\u002A7*%
X44540000Y-44570000D03*
%TD*%
%TO.C,REF\u002A\u002A852*%
X39460000Y-87750000D03*
%TD*%
%TO.C,REF\u002A\u002A755*%
X95340000Y-80130000D03*
%TD*%
%TO.C,REF\u002A\u002A290*%
X52160000Y-105530000D03*
%TD*%
%TO.C,REF\u002A\u002A221*%
X59780000Y-82670000D03*
%TD*%
%TO.C,REF\u002A\u002A340*%
X57240000Y-120770000D03*
%TD*%
%TO.C,REF\u002A\u002A22*%
X42000000Y-64890000D03*
%TD*%
%TO.C,REF\u002A\u002A146*%
X52160000Y-59810000D03*
%TD*%
%TO.C,REF\u002A\u002A103*%
X64860000Y-44570000D03*
%TD*%
%TO.C,REF\u002A\u002A256*%
X47080000Y-95370000D03*
%TD*%
%TO.C,REF\u002A\u002A872*%
X34380000Y-102990000D03*
%TD*%
%TO.C,REF\u002A\u002A672*%
X72480000Y-113150000D03*
%TD*%
%TO.C,REF\u002A\u002A826*%
X36920000Y-64890000D03*
%TD*%
%TO.C,REF\u002A\u002A625*%
X75020000Y-97910000D03*
%TD*%
%TO.C,REF\u002A\u002A600*%
X72480000Y-90290000D03*
%TD*%
%TO.C,REF\u002A\u002A843*%
X39460000Y-80130000D03*
%TD*%
%TO.C,REF\u002A\u002A132*%
X57240000Y-54730000D03*
%TD*%
%TO.C,REF\u002A\u002A151*%
X64860000Y-59810000D03*
%TD*%
%TO.C,REF\u002A\u002A664*%
X72480000Y-110610000D03*
%TD*%
%TO.C,REF\u002A\u002A724*%
X92800000Y-42030000D03*
%TD*%
%TO.C,REF\u002A\u002A840*%
X39460000Y-77590000D03*
%TD*%
%TO.C,REF\u002A\u002A613*%
X85180000Y-92830000D03*
%TD*%
%TO.C,REF\u002A\u002A815*%
X34380000Y-54730000D03*
%TD*%
%TO.C,REF\u002A\u002A427*%
X69940000Y-120770000D03*
%TD*%
%TO.C,REF\u002A\u002A499*%
X80100000Y-57270000D03*
%TD*%
%TO.C,REF\u002A\u002A253*%
X59780000Y-92830000D03*
%TD*%
%TO.C,REF\u002A\u002A315*%
X54700000Y-113150000D03*
%TD*%
%TO.C,REF\u002A\u002A509*%
X85180000Y-59810000D03*
%TD*%
%TO.C,REF\u002A\u002A810*%
X39460000Y-52190000D03*
%TD*%
%TO.C,REF\u002A\u002A91*%
X54700000Y-42030000D03*
%TD*%
%TO.C,REF\u002A\u002A809*%
X34380000Y-49650000D03*
%TD*%
%TO.C,REF\u002A\u002A156*%
X57240000Y-62350000D03*
%TD*%
%TO.C,REF\u002A\u002A35*%
X44540000Y-80130000D03*
%TD*%
%TO.C,REF\u002A\u002A730*%
X92800000Y-49650000D03*
%TD*%
%TO.C,REF\u002A\u002A514*%
X77560000Y-62350000D03*
%TD*%
%TO.C,REF\u002A\u002A411*%
X69940000Y-100450000D03*
%TD*%
%TO.C,REF\u002A\u002A49*%
X44540000Y-97910000D03*
%TD*%
%TO.C,REF\u002A\u002A425*%
X69940000Y-118230000D03*
%TD*%
%TO.C,REF\u002A\u002A473*%
X75020000Y-49650000D03*
%TD*%
%TO.C,REF\u002A\u002A847*%
X36920000Y-82670000D03*
%TD*%
%TO.C,REF\u002A\u002A650*%
X77560000Y-105530000D03*
%TD*%
%TO.C,REF\u002A\u002A131*%
X54700000Y-54730000D03*
%TD*%
%TO.C,REF\u002A\u002A124*%
X57240000Y-52190000D03*
%TD*%
%TO.C,REF\u002A\u002A846*%
X39460000Y-82670000D03*
%TD*%
%TO.C,REF\u002A\u002A816*%
X39460000Y-57270000D03*
%TD*%
%TO.C,REF\u002A\u002A832*%
X36920000Y-69970000D03*
%TD*%
%TO.C,REF\u002A\u002A656*%
X72480000Y-108070000D03*
%TD*%
%TO.C,REF\u002A\u002A5*%
X44540000Y-42030000D03*
%TD*%
%TO.C,REF\u002A\u002A576*%
X72480000Y-82670000D03*
%TD*%
%TO.C,REF\u002A\u002A341*%
X59780000Y-120770000D03*
%TD*%
%TO.C,REF\u002A\u002A136*%
X47080000Y-57270000D03*
%TD*%
%TO.C,REF\u002A\u002A488*%
X72480000Y-54730000D03*
%TD*%
%TO.C,REF\u002A\u002A119*%
X64860000Y-49650000D03*
%TD*%
%TO.C,REF\u002A\u002A465*%
X75020000Y-47110000D03*
%TD*%
%TO.C,REF\u002A\u002A396*%
X67400000Y-82670000D03*
%TD*%
%TO.C,REF\u002A\u002A116*%
X57240000Y-49650000D03*
%TD*%
%TO.C,REF\u002A\u002A334*%
X62320000Y-118230000D03*
%TD*%
%TO.C,REF\u002A\u002A263*%
X64860000Y-95370000D03*
%TD*%
%TO.C,REF\u002A\u002A240*%
X47080000Y-90290000D03*
%TD*%
%TO.C,REF\u002A\u002A674*%
X77560000Y-113150000D03*
%TD*%
%TO.C,REF\u002A\u002A428*%
X67400000Y-123310000D03*
%TD*%
%TO.C,REF\u002A\u002A323*%
X54700000Y-115690000D03*
%TD*%
%TO.C,REF\u002A\u002A410*%
X67400000Y-100450000D03*
%TD*%
%TO.C,REF\u002A\u002A571*%
X80100000Y-80130000D03*
%TD*%
%TO.C,REF\u002A\u002A43*%
X44540000Y-90290000D03*
%TD*%
%TO.C,REF\u002A\u002A420*%
X67400000Y-113150000D03*
%TD*%
%TO.C,REF\u002A\u002A610*%
X77560000Y-92830000D03*
%TD*%
%TO.C,REF\u002A\u002A58*%
X42000000Y-110610000D03*
%TD*%
%TO.C,REF\u002A\u002A314*%
X52160000Y-113150000D03*
%TD*%
%TO.C,REF\u002A\u002A825*%
X39460000Y-64890000D03*
%TD*%
%TO.C,REF\u002A\u002A351*%
X64860000Y-123310000D03*
%TD*%
%TO.C,REF\u002A\u002A848*%
X34380000Y-82670000D03*
%TD*%
%TO.C,REF\u002A\u002A342*%
X62320000Y-120770000D03*
%TD*%
%TO.C,REF\u002A\u002A38*%
X42000000Y-85210000D03*
%TD*%
%TO.C,REF\u002A\u002A413*%
X69940000Y-102990000D03*
%TD*%
%TO.C,REF\u002A\u002A701*%
X85180000Y-120770000D03*
%TD*%
%TO.C,REF\u002A\u002A828*%
X39460000Y-67430000D03*
%TD*%
%TO.C,REF\u002A\u002A37*%
X44540000Y-82670000D03*
%TD*%
%TO.C,REF\u002A\u002A423*%
X69940000Y-115690000D03*
%TD*%
%TO.C,REF\u002A\u002A655*%
X90260000Y-105530000D03*
%TD*%
%TO.C,REF\u002A\u002A333*%
X59780000Y-118230000D03*
%TD*%
%TO.C,REF\u002A\u002A881*%
X34380000Y-110610000D03*
%TD*%
%TO.C,REF\u002A\u002A254*%
X62320000Y-92830000D03*
%TD*%
%TO.C,REF\u002A\u002A618*%
X77560000Y-95370000D03*
%TD*%
%TO.C,REF\u002A\u002A642*%
X77560000Y-102990000D03*
%TD*%
%TO.C,REF\u002A\u002A99*%
X54700000Y-44570000D03*
%TD*%
%TO.C,REF\u002A\u002A760*%
X92800000Y-87750000D03*
%TD*%
%TO.C,REF\u002A\u002A400*%
X67400000Y-87750000D03*
%TD*%
%TO.C,REF\u002A\u002A65*%
X44540000Y-118230000D03*
%TD*%
%TO.C,REF\u002A\u002A658*%
X77560000Y-108070000D03*
%TD*%
%TO.C,REF\u002A\u002A740*%
X92800000Y-62350000D03*
%TD*%
%TO.C,REF\u002A\u002A369*%
X69940000Y-47110000D03*
%TD*%
%TO.C,REF\u002A\u002A648*%
X72480000Y-105530000D03*
%TD*%
%TO.C,REF\u002A\u002A882*%
X39460000Y-113150000D03*
%TD*%
%TO.C,REF\u002A\u002A827*%
X34380000Y-64890000D03*
%TD*%
%TO.C,REF\u002A\u002A311*%
X64860000Y-110610000D03*
%TD*%
%TO.C,REF\u002A\u002A391*%
X69940000Y-75050000D03*
%TD*%
%TO.C,REF\u002A\u002A398*%
X67400000Y-85210000D03*
%TD*%
%TO.C,REF\u002A\u002A335*%
X64860000Y-118230000D03*
%TD*%
%TO.C,REF\u002A\u002A876*%
X39460000Y-108070000D03*
%TD*%
%TO.C,REF\u002A\u002A679*%
X90260000Y-113150000D03*
%TD*%
%TO.C,REF\u002A\u002A246*%
X62320000Y-90290000D03*
%TD*%
%TO.C,REF\u002A\u002A612*%
X82640000Y-92830000D03*
%TD*%
%TO.C,REF\u002A\u002A274*%
X52160000Y-100450000D03*
%TD*%
%TO.C,REF\u002A\u002A764*%
X92800000Y-92830000D03*
%TD*%
%TO.C,REF\u002A\u002A261*%
X59780000Y-95370000D03*
%TD*%
%TO.C,REF\u002A\u002A812*%
X34380000Y-52190000D03*
%TD*%
%TO.C,REF\u002A\u002A457*%
X75020000Y-44570000D03*
%TD*%
%TO.C,REF\u002A\u002A276*%
X57240000Y-100450000D03*
%TD*%
%TO.C,REF\u002A\u002A330*%
X52160000Y-118230000D03*
%TD*%
%TO.C,REF\u002A\u002A46*%
X42000000Y-95370000D03*
%TD*%
%TO.C,REF\u002A\u002A676*%
X82640000Y-113150000D03*
%TD*%
%TO.C,REF\u002A\u002A223*%
X64860000Y-82670000D03*
%TD*%
%TO.C,REF\u002A\u002A546*%
X77560000Y-72510000D03*
%TD*%
%TO.C,REF\u002A\u002A781*%
X95340000Y-113150000D03*
%TD*%
%TO.C,REF\u002A\u002A111*%
X64860000Y-47110000D03*
%TD*%
%TO.C,REF\u002A\u002A468*%
X82640000Y-47110000D03*
%TD*%
%TO.C,REF\u002A\u002A388*%
X67400000Y-72510000D03*
%TD*%
%TO.C,REF\u002A\u002A628*%
X82640000Y-97910000D03*
%TD*%
%TO.C,REF\u002A\u002A225*%
X49620000Y-85210000D03*
%TD*%
%TO.C,REF\u002A\u002A634*%
X77560000Y-100450000D03*
%TD*%
%TO.C,REF\u002A\u002A380*%
X67400000Y-62350000D03*
%TD*%
%TO.C,REF\u002A\u002A209*%
X49620000Y-80130000D03*
%TD*%
%TO.C,REF\u002A\u002A523*%
X80100000Y-64890000D03*
%TD*%
%TO.C,REF\u002A\u002A532*%
X82640000Y-67430000D03*
%TD*%
%TO.C,REF\u002A\u002A638*%
X87720000Y-100450000D03*
%TD*%
%TO.C,REF\u002A\u002A619*%
X80100000Y-95370000D03*
%TD*%
%TO.C,REF\u002A\u002A419*%
X69940000Y-110610000D03*
%TD*%
%TO.C,REF\u002A\u002A892*%
X36920000Y-120770000D03*
%TD*%
%TO.C,REF\u002A\u002A33*%
X44540000Y-77590000D03*
%TD*%
%TO.C,REF\u002A\u002A841*%
X36920000Y-77590000D03*
%TD*%
%TO.C,REF\u002A\u002A224*%
X47080000Y-85210000D03*
%TD*%
%TO.C,REF\u002A\u002A205*%
X59780000Y-77590000D03*
%TD*%
%TO.C,REF\u002A\u002A459*%
X80100000Y-44570000D03*
%TD*%
%TO.C,REF\u002A\u002A787*%
X95340000Y-120770000D03*
%TD*%
%TO.C,REF\u002A\u002A252*%
X57240000Y-92830000D03*
%TD*%
%TO.C,REF\u002A\u002A170*%
X52160000Y-67430000D03*
%TD*%
%TO.C,REF\u002A\u002A220*%
X57240000Y-82670000D03*
%TD*%
%TO.C,REF\u002A\u002A498*%
X77560000Y-57270000D03*
%TD*%
%TO.C,REF\u002A\u002A703*%
X90260000Y-120770000D03*
%TD*%
%TO.C,REF\u002A\u002A390*%
X67400000Y-75050000D03*
%TD*%
%TO.C,REF\u002A\u002A14*%
X42000000Y-54730000D03*
%TD*%
%TO.C,REF\u002A\u002A896*%
X34380000Y-123310000D03*
%TD*%
%TO.C,REF\u002A\u002A822*%
X39460000Y-62350000D03*
%TD*%
%TO.C,REF\u002A\u002A867*%
X39460000Y-100450000D03*
%TD*%
%TO.C,REF\u002A\u002A161*%
X49620000Y-64890000D03*
%TD*%
%TO.C,REF\u002A\u002A394*%
X67400000Y-80130000D03*
%TD*%
%TO.C,REF\u002A\u002A200*%
X47080000Y-77590000D03*
%TD*%
%TO.C,REF\u002A\u002A553*%
X75020000Y-75050000D03*
%TD*%
%TO.C,REF\u002A\u002A134*%
X62320000Y-54730000D03*
%TD*%
%TO.C,REF\u002A\u002A347*%
X54700000Y-123310000D03*
%TD*%
%TO.C,REF\u002A\u002A639*%
X90260000Y-100450000D03*
%TD*%
%TO.C,REF\u002A\u002A40*%
X42000000Y-87750000D03*
%TD*%
%TO.C,REF\u002A\u002A680*%
X72480000Y-115690000D03*
%TD*%
%TO.C,REF\u002A\u002A120*%
X47080000Y-52190000D03*
%TD*%
%TO.C,REF\u002A\u002A549*%
X85180000Y-72510000D03*
%TD*%
%TO.C,REF\u002A\u002A168*%
X47080000Y-67430000D03*
%TD*%
%TO.C,REF\u002A\u002A766*%
X92800000Y-95370000D03*
%TD*%
%TO.C,REF\u002A\u002A115*%
X54700000Y-49650000D03*
%TD*%
%TO.C,REF\u002A\u002A267*%
X54700000Y-97910000D03*
%TD*%
%TO.C,REF\u002A\u002A551*%
X90260000Y-72510000D03*
%TD*%
%TO.C,REF\u002A\u002A346*%
X52160000Y-123310000D03*
%TD*%
%TO.C,REF\u002A\u002A749*%
X95340000Y-72510000D03*
%TD*%
%TO.C,REF\u002A\u002A875*%
X34380000Y-105530000D03*
%TD*%
%TO.C,REF\u002A\u002A367*%
X69940000Y-44570000D03*
%TD*%
%TO.C,REF\u002A\u002A871*%
X36920000Y-102990000D03*
%TD*%
%TO.C,REF\u002A\u002A693*%
X85180000Y-118230000D03*
%TD*%
%TO.C,REF\u002A\u002A371*%
X69940000Y-49650000D03*
%TD*%
%TO.C,REF\u002A\u002A56*%
X42000000Y-108070000D03*
%TD*%
%TO.C,REF\u002A\u002A880*%
X36920000Y-110610000D03*
%TD*%
%TO.C,REF\u002A\u002A42*%
X42000000Y-90290000D03*
%TD*%
%TO.C,REF\u002A\u002A109*%
X59780000Y-47110000D03*
%TD*%
%TO.C,REF\u002A\u002A660*%
X82640000Y-108070000D03*
%TD*%
%TO.C,REF\u002A\u002A458*%
X77560000Y-44570000D03*
%TD*%
%TO.C,REF\u002A\u002A684*%
X82640000Y-115690000D03*
%TD*%
%TO.C,REF\u002A\u002A862*%
X36920000Y-95370000D03*
%TD*%
%TO.C,REF\u002A\u002A890*%
X34380000Y-118230000D03*
%TD*%
%TO.C,REF\u002A\u002A678*%
X87720000Y-113150000D03*
%TD*%
%TO.C,REF\u002A\u002A281*%
X49620000Y-102990000D03*
%TD*%
%TO.C,REF\u002A\u002A97*%
X49620000Y-44570000D03*
%TD*%
%TO.C,REF\u002A\u002A166*%
X62320000Y-64890000D03*
%TD*%
%TO.C,REF\u002A\u002A255*%
X64860000Y-92830000D03*
%TD*%
%TO.C,REF\u002A\u002A682*%
X77560000Y-115690000D03*
%TD*%
%TO.C,REF\u002A\u002A102*%
X62320000Y-44570000D03*
%TD*%
%TO.C,REF\u002A\u002A697*%
X75020000Y-120770000D03*
%TD*%
%TO.C,REF\u002A\u002A598*%
X87720000Y-87750000D03*
%TD*%
%TO.C,REF\u002A\u002A744*%
X92800000Y-67430000D03*
%TD*%
%TO.C,REF\u002A\u002A536*%
X72480000Y-69970000D03*
%TD*%
%TO.C,REF\u002A\u002A67*%
X44540000Y-120770000D03*
%TD*%
%TO.C,REF\u002A\u002A510*%
X87720000Y-59810000D03*
%TD*%
%TO.C,REF\u002A\u002A685*%
X85180000Y-115690000D03*
%TD*%
%TO.C,REF\u002A\u002A574*%
X87720000Y-80130000D03*
%TD*%
%TO.C,REF\u002A\u002A630*%
X87720000Y-97910000D03*
%TD*%
%TO.C,REF\u002A\u002A506*%
X77560000Y-59810000D03*
%TD*%
%TO.C,REF\u002A\u002A6*%
X42000000Y-44570000D03*
%TD*%
%TO.C,REF\u002A\u002A609*%
X75020000Y-92830000D03*
%TD*%
%TO.C,REF\u002A\u002A55*%
X44540000Y-105530000D03*
%TD*%
%TO.C,REF\u002A\u002A30*%
X42000000Y-75050000D03*
%TD*%
%TO.C,REF\u002A\u002A519*%
X90260000Y-62350000D03*
%TD*%
%TO.C,REF\u002A\u002A421*%
X69940000Y-113150000D03*
%TD*%
%TO.C,REF\u002A\u002A654*%
X87720000Y-105530000D03*
%TD*%
%TO.C,REF\u002A\u002A741*%
X95340000Y-62350000D03*
%TD*%
%TO.C,REF\u002A\u002A853*%
X36920000Y-87750000D03*
%TD*%
%TO.C,REF\u002A\u002A505*%
X75020000Y-59810000D03*
%TD*%
%TO.C,REF\u002A\u002A125*%
X59780000Y-52190000D03*
%TD*%
%TO.C,REF\u002A\u002A196*%
X57240000Y-75050000D03*
%TD*%
%TO.C,REF\u002A\u002A725*%
X95340000Y-42030000D03*
%TD*%
%TO.C,REF\u002A\u002A302*%
X62320000Y-108070000D03*
%TD*%
%TO.C,REF\u002A\u002A746*%
X92800000Y-69970000D03*
%TD*%
%TO.C,REF\u002A\u002A583*%
X90260000Y-82670000D03*
%TD*%
%TO.C,REF\u002A\u002A326*%
X62320000Y-115690000D03*
%TD*%
%TO.C,REF\u002A\u002A26*%
X42000000Y-69970000D03*
%TD*%
%TO.C,REF\u002A\u002A268*%
X57240000Y-97910000D03*
%TD*%
%TO.C,REF\u002A\u002A833*%
X34380000Y-69970000D03*
%TD*%
%TO.C,REF\u002A\u002A188*%
X57240000Y-72510000D03*
%TD*%
%TO.C,REF\u002A\u002A635*%
X80100000Y-100450000D03*
%TD*%
%TO.C,REF\u002A\u002A561*%
X75020000Y-77590000D03*
%TD*%
%TO.C,REF\u002A\u002A295*%
X64860000Y-105530000D03*
%TD*%
%TO.C,REF\u002A\u002A585*%
X75020000Y-85210000D03*
%TD*%
%TO.C,REF\u002A\u002A325*%
X59780000Y-115690000D03*
%TD*%
%TO.C,REF\u002A\u002A29*%
X44540000Y-72510000D03*
%TD*%
%TO.C,REF\u002A\u002A318*%
X62320000Y-113150000D03*
%TD*%
%TO.C,REF\u002A\u002A462*%
X87720000Y-44570000D03*
%TD*%
%TO.C,REF\u002A\u002A469*%
X85180000Y-47110000D03*
%TD*%
%TO.C,REF\u002A\u002A607*%
X90260000Y-90290000D03*
%TD*%
%TO.C,REF\u002A\u002A736*%
X92800000Y-57270000D03*
%TD*%
%TO.C,REF\u002A\u002A768*%
X92800000Y-97910000D03*
%TD*%
%TO.C,REF\u002A\u002A381*%
X69940000Y-62350000D03*
%TD*%
%TO.C,REF\u002A\u002A272*%
X47080000Y-100450000D03*
%TD*%
%TO.C,REF\u002A\u002A802*%
X36920000Y-44570000D03*
%TD*%
%TO.C,REF\u002A\u002A244*%
X57240000Y-90290000D03*
%TD*%
%TO.C,REF\u002A\u002A548*%
X82640000Y-72510000D03*
%TD*%
%TO.C,REF\u002A\u002A128*%
X47080000Y-54730000D03*
%TD*%
%TO.C,REF\u002A\u002A704*%
X72480000Y-123310000D03*
%TD*%
%TO.C,REF\u002A\u002A799*%
X36920000Y-42030000D03*
%TD*%
%TO.C,REF\u002A\u002A555*%
X80100000Y-75050000D03*
%TD*%
%TO.C,REF\u002A\u002A13*%
X44540000Y-52190000D03*
%TD*%
%TO.C,REF\u002A\u002A854*%
X34380000Y-87750000D03*
%TD*%
%TO.C,REF\u002A\u002A491*%
X80100000Y-54730000D03*
%TD*%
%TO.C,REF\u002A\u002A858*%
X39460000Y-92830000D03*
%TD*%
%TO.C,REF\u002A\u002A241*%
X49620000Y-90290000D03*
%TD*%
%TO.C,REF\u002A\u002A429*%
X69940000Y-123310000D03*
%TD*%
%TO.C,REF\u002A\u002A888*%
X39460000Y-118230000D03*
%TD*%
%TO.C,REF\u002A\u002A729*%
X95340000Y-47110000D03*
%TD*%
%TO.C,REF\u002A\u002A485*%
X85180000Y-52190000D03*
%TD*%
%TO.C,REF\u002A\u002A686*%
X87720000Y-115690000D03*
%TD*%
%TO.C,REF\u002A\u002A580*%
X82640000Y-82670000D03*
%TD*%
%TO.C,REF\u002A\u002A155*%
X54700000Y-62350000D03*
%TD*%
%TO.C,REF\u002A\u002A93*%
X59780000Y-42030000D03*
%TD*%
%TO.C,REF\u002A\u002A370*%
X67400000Y-49650000D03*
%TD*%
%TO.C,REF\u002A\u002A216*%
X47080000Y-82670000D03*
%TD*%
%TO.C,REF\u002A\u002A157*%
X59780000Y-62350000D03*
%TD*%
%TO.C,REF\u002A\u002A483*%
X80100000Y-52190000D03*
%TD*%
%TO.C,REF\u002A\u002A554*%
X77560000Y-75050000D03*
%TD*%
%TO.C,REF\u002A\u002A868*%
X36920000Y-100450000D03*
%TD*%
%TO.C,REF\u002A\u002A804*%
X39460000Y-47110000D03*
%TD*%
%TO.C,REF\u002A\u002A577*%
X75020000Y-82670000D03*
%TD*%
%TO.C,REF\u002A\u002A160*%
X47080000Y-64890000D03*
%TD*%
%TO.C,REF\u002A\u002A198*%
X62320000Y-75050000D03*
%TD*%
%TO.C,REF\u002A\u002A817*%
X36920000Y-57270000D03*
%TD*%
%TO.C,REF\u002A\u002A517*%
X85180000Y-62350000D03*
%TD*%
%TO.C,REF\u002A\u002A777*%
X95340000Y-108070000D03*
%TD*%
%TO.C,REF\u002A\u002A312*%
X47080000Y-113150000D03*
%TD*%
%TO.C,REF\u002A\u002A284*%
X57240000Y-102990000D03*
%TD*%
%TO.C,REF\u002A\u002A530*%
X77560000Y-67430000D03*
%TD*%
%TO.C,REF\u002A\u002A415*%
X69940000Y-105530000D03*
%TD*%
%TO.C,REF\u002A\u002A387*%
X69940000Y-69970000D03*
%TD*%
%TO.C,REF\u002A\u002A838*%
X36920000Y-75050000D03*
%TD*%
%TO.C,REF\u002A\u002A886*%
X36920000Y-115690000D03*
%TD*%
%TO.C,REF\u002A\u002A837*%
X39460000Y-75050000D03*
%TD*%
%TO.C,REF\u002A\u002A206*%
X62320000Y-77590000D03*
%TD*%
%TO.C,REF\u002A\u002A885*%
X39460000Y-115690000D03*
%TD*%
%TO.C,REF\u002A\u002A266*%
X52160000Y-97910000D03*
%TD*%
%TO.C,REF\u002A\u002A599*%
X90260000Y-87750000D03*
%TD*%
%TO.C,REF\u002A\u002A175*%
X64860000Y-67430000D03*
%TD*%
%TO.C,REF\u002A\u002A452*%
X82640000Y-42030000D03*
%TD*%
%TO.C,REF\u002A\u002A234*%
X52160000Y-87750000D03*
%TD*%
%TO.C,REF\u002A\u002A891*%
X39460000Y-120770000D03*
%TD*%
%TO.C,REF\u002A\u002A264*%
X47080000Y-97910000D03*
%TD*%
%TO.C,REF\u002A\u002A343*%
X64860000Y-120770000D03*
%TD*%
%TO.C,REF\u002A\u002A319*%
X64860000Y-113150000D03*
%TD*%
%TO.C,REF\u002A\u002A617*%
X75020000Y-95370000D03*
%TD*%
%TO.C,REF\u002A\u002A727*%
X95340000Y-44570000D03*
%TD*%
%TO.C,REF\u002A\u002A537*%
X75020000Y-69970000D03*
%TD*%
%TO.C,REF\u002A\u002A194*%
X52160000Y-75050000D03*
%TD*%
%TO.C,REF\u002A\u002A227*%
X54700000Y-85210000D03*
%TD*%
%TO.C,REF\u002A\u002A60*%
X42000000Y-113150000D03*
%TD*%
%TO.C,REF\u002A\u002A556*%
X82640000Y-75050000D03*
%TD*%
%TO.C,REF\u002A\u002A830*%
X34380000Y-67430000D03*
%TD*%
%TO.C,REF\u002A\u002A500*%
X82640000Y-57270000D03*
%TD*%
%TO.C,REF\u002A\u002A104*%
X47080000Y-47110000D03*
%TD*%
%TO.C,REF\u002A\u002A218*%
X52160000Y-82670000D03*
%TD*%
%TO.C,REF\u002A\u002A277*%
X59780000Y-100450000D03*
%TD*%
%TO.C,REF\u002A\u002A544*%
X72480000Y-72510000D03*
%TD*%
%TO.C,REF\u002A\u002A212*%
X57240000Y-80130000D03*
%TD*%
%TO.C,REF\u002A\u002A582*%
X87720000Y-82670000D03*
%TD*%
%TO.C,REF\u002A\u002A751*%
X95340000Y-75050000D03*
%TD*%
%TO.C,REF\u002A\u002A328*%
X47080000Y-118230000D03*
%TD*%
%TO.C,REF\u002A\u002A219*%
X54700000Y-82670000D03*
%TD*%
%TO.C,REF\u002A\u002A851*%
X34380000Y-85210000D03*
%TD*%
%TO.C,REF\u002A\u002A659*%
X80100000Y-108070000D03*
%TD*%
%TO.C,REF\u002A\u002A350*%
X62320000Y-123310000D03*
%TD*%
%TO.C,REF\u002A\u002A53*%
X44540000Y-102990000D03*
%TD*%
%TO.C,REF\u002A\u002A187*%
X54700000Y-72510000D03*
%TD*%
%TO.C,REF\u002A\u002A895*%
X36920000Y-123310000D03*
%TD*%
%TO.C,REF\u002A\u002A385*%
X69940000Y-67430000D03*
%TD*%
%TO.C,REF\u002A\u002A453*%
X85180000Y-42030000D03*
%TD*%
%TO.C,REF\u002A\u002A451*%
X80100000Y-42030000D03*
%TD*%
%TO.C,REF\u002A\u002A294*%
X62320000Y-105530000D03*
%TD*%
%TO.C,REF\u002A\u002A771*%
X95340000Y-100450000D03*
%TD*%
%TO.C,REF\u002A\u002A521*%
X75020000Y-64890000D03*
%TD*%
%TO.C,REF\u002A\u002A167*%
X64860000Y-64890000D03*
%TD*%
%TO.C,REF\u002A\u002A231*%
X64860000Y-85210000D03*
%TD*%
%TO.C,REF\u002A\u002A183*%
X64860000Y-69970000D03*
%TD*%
%TO.C,REF\u002A\u002A745*%
X95340000Y-67430000D03*
%TD*%
%TO.C,REF\u002A\u002A8*%
X42000000Y-47110000D03*
%TD*%
%TO.C,REF\u002A\u002A735*%
X95340000Y-54730000D03*
%TD*%
%TO.C,REF\u002A\u002A563*%
X80100000Y-77590000D03*
%TD*%
%TO.C,REF\u002A\u002A16*%
X42000000Y-57270000D03*
%TD*%
%TO.C,REF\u002A\u002A233*%
X49620000Y-87750000D03*
%TD*%
%TO.C,REF\u002A\u002A154*%
X52160000Y-62350000D03*
%TD*%
%TO.C,REF\u002A\u002A770*%
X92800000Y-100450000D03*
%TD*%
%TO.C,REF\u002A\u002A191*%
X64860000Y-72510000D03*
%TD*%
%TO.C,REF\u002A\u002A63*%
X44540000Y-115690000D03*
%TD*%
%TO.C,REF\u002A\u002A180*%
X57240000Y-69970000D03*
%TD*%
%TO.C,REF\u002A\u002A785*%
X95340000Y-118230000D03*
%TD*%
%TO.C,REF\u002A\u002A322*%
X52160000Y-115690000D03*
%TD*%
%TO.C,REF\u002A\u002A207*%
X64860000Y-77590000D03*
%TD*%
%TO.C,REF\u002A\u002A249*%
X49620000Y-92830000D03*
%TD*%
%TO.C,REF\u002A\u002A653*%
X85180000Y-105530000D03*
%TD*%
%TO.C,REF\u002A\u002A461*%
X85180000Y-44570000D03*
%TD*%
%TO.C,REF\u002A\u002A285*%
X59780000Y-102990000D03*
%TD*%
%TO.C,REF\u002A\u002A384*%
X67400000Y-67430000D03*
%TD*%
%TO.C,REF\u002A\u002A695*%
X90260000Y-118230000D03*
%TD*%
%TO.C,REF\u002A\u002A307*%
X54700000Y-110610000D03*
%TD*%
%TO.C,REF\u002A\u002A731*%
X95340000Y-49650000D03*
%TD*%
%TO.C,REF\u002A\u002A36*%
X42000000Y-82670000D03*
%TD*%
%TO.C,REF\u002A\u002A303*%
X64860000Y-108070000D03*
%TD*%
%TO.C,REF\u002A\u002A50*%
X42000000Y-100450000D03*
%TD*%
%TO.C,REF\u002A\u002A575*%
X90260000Y-80130000D03*
%TD*%
%TO.C,REF\u002A\u002A486*%
X87720000Y-52190000D03*
%TD*%
%TO.C,REF\u002A\u002A153*%
X49620000Y-62350000D03*
%TD*%
%TO.C,REF\u002A\u002A584*%
X72480000Y-85210000D03*
%TD*%
%TO.C,REF\u002A\u002A550*%
X87720000Y-72510000D03*
%TD*%
%TO.C,REF\u002A\u002A426*%
X67400000Y-120770000D03*
%TD*%
%TO.C,REF\u002A\u002A633*%
X75020000Y-100450000D03*
%TD*%
%TO.C,REF\u002A\u002A820*%
X36920000Y-59810000D03*
%TD*%
%TO.C,REF\u002A\u002A734*%
X92800000Y-54730000D03*
%TD*%
%TO.C,REF\u002A\u002A27*%
X44540000Y-69970000D03*
%TD*%
%TO.C,REF\u002A\u002A778*%
X92800000Y-110610000D03*
%TD*%
%TO.C,REF\u002A\u002A705*%
X75020000Y-123310000D03*
%TD*%
%TO.C,REF\u002A\u002A403*%
X69940000Y-90290000D03*
%TD*%
%TO.C,REF\u002A\u002A870*%
X39460000Y-102990000D03*
%TD*%
%TO.C,REF\u002A\u002A123*%
X54700000Y-52190000D03*
%TD*%
%TO.C,REF\u002A\u002A756*%
X92800000Y-82670000D03*
%TD*%
%TO.C,REF\u002A\u002A671*%
X90260000Y-110610000D03*
%TD*%
%TO.C,REF\u002A\u002A186*%
X52160000Y-72510000D03*
%TD*%
%TO.C,REF\u002A\u002A31*%
X44540000Y-75050000D03*
%TD*%
%TO.C,REF\u002A\u002A176*%
X47080000Y-69970000D03*
%TD*%
%TO.C,REF\u002A\u002A412*%
X67400000Y-102990000D03*
%TD*%
%TO.C,REF\u002A\u002A192*%
X47080000Y-75050000D03*
%TD*%
%TO.C,REF\u002A\u002A158*%
X62320000Y-62350000D03*
%TD*%
%TO.C,REF\u002A\u002A88*%
X47080000Y-42030000D03*
%TD*%
%TO.C,REF\u002A\u002A677*%
X85180000Y-113150000D03*
%TD*%
%TO.C,REF\u002A\u002A811*%
X36920000Y-52190000D03*
%TD*%
%TO.C,REF\u002A\u002A767*%
X95340000Y-95370000D03*
%TD*%
%TO.C,REF\u002A\u002A504*%
X72480000Y-59810000D03*
%TD*%
%TO.C,REF\u002A\u002A273*%
X49620000Y-100450000D03*
%TD*%
%TO.C,REF\u002A\u002A559*%
X90260000Y-75050000D03*
%TD*%
%TO.C,REF\u002A\u002A399*%
X69940000Y-85210000D03*
%TD*%
%TO.C,REF\u002A\u002A738*%
X92800000Y-59810000D03*
%TD*%
%TO.C,REF\u002A\u002A531*%
X80100000Y-67430000D03*
%TD*%
%TO.C,REF\u002A\u002A454*%
X87720000Y-42030000D03*
%TD*%
%TO.C,REF\u002A\u002A450*%
X77560000Y-42030000D03*
%TD*%
D13*
%TO.C,REF\u002A\u002A*%
X85000000Y-33460000D03*
D14*
X85000000Y-36000000D03*
D13*
X92620000Y-33460000D03*
X90080000Y-33460000D03*
X90080000Y-36000000D03*
X87540000Y-33460000D03*
X87540000Y-36000000D03*
X92620000Y-36000000D03*
X95160000Y-33460000D03*
X95160000Y-36000000D03*
%TD*%
D12*
%TO.C,REF\u002A\u002A742*%
X92800000Y-64890000D03*
%TD*%
%TO.C,REF\u002A\u002A573*%
X85180000Y-80130000D03*
%TD*%
%TO.C,REF\u002A\u002A710*%
X87720000Y-123310000D03*
%TD*%
%TO.C,REF\u002A\u002A265*%
X49620000Y-97910000D03*
%TD*%
%TO.C,REF\u002A\u002A694*%
X87720000Y-118230000D03*
%TD*%
%TO.C,REF\u002A\u002A48*%
X42000000Y-97910000D03*
%TD*%
%TO.C,REF\u002A\u002A392*%
X67400000Y-77590000D03*
%TD*%
%TO.C,REF\u002A\u002A344*%
X47080000Y-123310000D03*
%TD*%
%TO.C,REF\u002A\u002A670*%
X87720000Y-110610000D03*
%TD*%
%TO.C,REF\u002A\u002A464*%
X72480000Y-47110000D03*
%TD*%
%TO.C,REF\u002A\u002A19*%
X44540000Y-59810000D03*
%TD*%
%TO.C,REF\u002A\u002A856*%
X36920000Y-90290000D03*
%TD*%
%TO.C,REF\u002A\u002A747*%
X95340000Y-69970000D03*
%TD*%
%TO.C,REF\u002A\u002A707*%
X80100000Y-123310000D03*
%TD*%
%TO.C,REF\u002A\u002A289*%
X49620000Y-105530000D03*
%TD*%
%TO.C,REF\u002A\u002A587*%
X80100000Y-85210000D03*
%TD*%
%TO.C,REF\u002A\u002A560*%
X72480000Y-77590000D03*
%TD*%
%TO.C,REF\u002A\u002A487*%
X90260000Y-52190000D03*
%TD*%
%TO.C,REF\u002A\u002A492*%
X82640000Y-54730000D03*
%TD*%
%TO.C,REF\u002A\u002A588*%
X82640000Y-85210000D03*
%TD*%
%TO.C,REF\u002A\u002A143*%
X64860000Y-57270000D03*
%TD*%
%TO.C,REF\u002A\u002A786*%
X92800000Y-120770000D03*
%TD*%
%TO.C,REF\u002A\u002A339*%
X54700000Y-120770000D03*
%TD*%
%TO.C,REF\u002A\u002A502*%
X87720000Y-57270000D03*
%TD*%
%TO.C,REF\u002A\u002A310*%
X62320000Y-110610000D03*
%TD*%
%TO.C,REF\u002A\u002A414*%
X67400000Y-105530000D03*
%TD*%
%TO.C,REF\u002A\u002A405*%
X69940000Y-92830000D03*
%TD*%
%TO.C,REF\u002A\u002A159*%
X64860000Y-62350000D03*
%TD*%
%TO.C,REF\u002A\u002A126*%
X62320000Y-52190000D03*
%TD*%
%TO.C,REF\u002A\u002A623*%
X90260000Y-95370000D03*
%TD*%
%TO.C,REF\u002A\u002A331*%
X54700000Y-118230000D03*
%TD*%
%TO.C,REF\u002A\u002A539*%
X80100000Y-69970000D03*
%TD*%
%TO.C,REF\u002A\u002A174*%
X62320000Y-67430000D03*
%TD*%
%TO.C,REF\u002A\u002A691*%
X80100000Y-118230000D03*
%TD*%
%TO.C,REF\u002A\u002A782*%
X92800000Y-115690000D03*
%TD*%
%TO.C,REF\u002A\u002A608*%
X72480000Y-92830000D03*
%TD*%
%TO.C,REF\u002A\u002A673*%
X75020000Y-113150000D03*
%TD*%
%TO.C,REF\u002A\u002A95*%
X64860000Y-42030000D03*
%TD*%
%TO.C,REF\u002A\u002A524*%
X82640000Y-64890000D03*
%TD*%
%TO.C,REF\u002A\u002A309*%
X59780000Y-110610000D03*
%TD*%
%TO.C,REF\u002A\u002A377*%
X69940000Y-57270000D03*
%TD*%
%TO.C,REF\u002A\u002A189*%
X59780000Y-72510000D03*
%TD*%
%TO.C,REF\u002A\u002A100*%
X57240000Y-44570000D03*
%TD*%
%TO.C,REF\u002A\u002A96*%
X47080000Y-44570000D03*
%TD*%
%TO.C,REF\u002A\u002A316*%
X57240000Y-113150000D03*
%TD*%
%TO.C,REF\u002A\u002A474*%
X77560000Y-49650000D03*
%TD*%
%TO.C,REF\u002A\u002A89*%
X49620000Y-42030000D03*
%TD*%
%TO.C,REF\u002A\u002A150*%
X62320000Y-59810000D03*
%TD*%
%TO.C,REF\u002A\u002A463*%
X90260000Y-44570000D03*
%TD*%
%TO.C,REF\u002A\u002A591*%
X90260000Y-85210000D03*
%TD*%
%TO.C,REF\u002A\u002A640*%
X72480000Y-102990000D03*
%TD*%
%TO.C,REF\u002A\u002A821*%
X34380000Y-59810000D03*
%TD*%
%TO.C,REF\u002A\u002A228*%
X57240000Y-85210000D03*
%TD*%
%TO.C,REF\u002A\u002A814*%
X36920000Y-54730000D03*
%TD*%
%TO.C,REF\u002A\u002A141*%
X59780000Y-57270000D03*
%TD*%
%TO.C,REF\u002A\u002A836*%
X34380000Y-72510000D03*
%TD*%
%TO.C,REF\u002A\u002A395*%
X69940000Y-80130000D03*
%TD*%
%TO.C,REF\u002A\u002A482*%
X77560000Y-52190000D03*
%TD*%
%TO.C,REF\u002A\u002A460*%
X82640000Y-44570000D03*
%TD*%
%TO.C,REF\u002A\u002A477*%
X85180000Y-49650000D03*
%TD*%
%TO.C,REF\u002A\u002A863*%
X34380000Y-95370000D03*
%TD*%
%TO.C,REF\u002A\u002A572*%
X82640000Y-80130000D03*
%TD*%
%TO.C,REF\u002A\u002A41*%
X44540000Y-87750000D03*
%TD*%
%TO.C,REF\u002A\u002A239*%
X64860000Y-87750000D03*
%TD*%
%TO.C,REF\u002A\u002A61*%
X44540000Y-113150000D03*
%TD*%
%TO.C,REF\u002A\u002A698*%
X77560000Y-120770000D03*
%TD*%
%TO.C,REF\u002A\u002A507*%
X80100000Y-59810000D03*
%TD*%
%TO.C,REF\u002A\u002A818*%
X34380000Y-57270000D03*
%TD*%
%TO.C,REF\u002A\u002A366*%
X67400000Y-44570000D03*
%TD*%
%TO.C,REF\u002A\u002A229*%
X59780000Y-85210000D03*
%TD*%
%TO.C,REF\u002A\u002A552*%
X72480000Y-75050000D03*
%TD*%
%TO.C,REF\u002A\u002A127*%
X64860000Y-52190000D03*
%TD*%
%TO.C,REF\u002A\u002A64*%
X42000000Y-118230000D03*
%TD*%
%TO.C,REF\u002A\u002A497*%
X75020000Y-57270000D03*
%TD*%
%TO.C,REF\u002A\u002A257*%
X49620000Y-95370000D03*
%TD*%
%TO.C,REF\u002A\u002A137*%
X49620000Y-57270000D03*
%TD*%
%TO.C,REF\u002A\u002A235*%
X54700000Y-87750000D03*
%TD*%
%TO.C,REF\u002A\u002A675*%
X80100000Y-113150000D03*
%TD*%
%TO.C,REF\u002A\u002A152*%
X47080000Y-62350000D03*
%TD*%
%TO.C,REF\u002A\u002A140*%
X57240000Y-57270000D03*
%TD*%
%TO.C,REF\u002A\u002A320*%
X47080000Y-115690000D03*
%TD*%
%TO.C,REF\u002A\u002A547*%
X80100000Y-72510000D03*
%TD*%
%TO.C,REF\u002A\u002A784*%
X92800000Y-118230000D03*
%TD*%
%TO.C,REF\u002A\u002A271*%
X64860000Y-97910000D03*
%TD*%
%TO.C,REF\u002A\u002A242*%
X52160000Y-90290000D03*
%TD*%
%TO.C,REF\u002A\u002A508*%
X82640000Y-59810000D03*
%TD*%
%TO.C,REF\u002A\u002A142*%
X62320000Y-57270000D03*
%TD*%
%TO.C,REF\u002A\u002A857*%
X34380000Y-90290000D03*
%TD*%
%TO.C,REF\u002A\u002A893*%
X34380000Y-120770000D03*
%TD*%
%TO.C,REF\u002A\u002A338*%
X52160000Y-120770000D03*
%TD*%
%TO.C,REF\u002A\u002A515*%
X80100000Y-62350000D03*
%TD*%
%TO.C,REF\u002A\u002A280*%
X47080000Y-102990000D03*
%TD*%
%TO.C,REF\u002A\u002A10*%
X42000000Y-49650000D03*
%TD*%
%TO.C,REF\u002A\u002A293*%
X59780000Y-105530000D03*
%TD*%
%TO.C,REF\u002A\u002A248*%
X47080000Y-92830000D03*
%TD*%
%TO.C,REF\u002A\u002A368*%
X67400000Y-47110000D03*
%TD*%
%TO.C,REF\u002A\u002A819*%
X39460000Y-59810000D03*
%TD*%
%TO.C,REF\u002A\u002A569*%
X75020000Y-80130000D03*
%TD*%
%TO.C,REF\u002A\u002A179*%
X54700000Y-69970000D03*
%TD*%
%TO.C,REF\u002A\u002A324*%
X57240000Y-115690000D03*
%TD*%
%TO.C,REF\u002A\u002A114*%
X52160000Y-49650000D03*
%TD*%
%TO.C,REF\u002A\u002A327*%
X64860000Y-115690000D03*
%TD*%
%TO.C,REF\u002A\u002A757*%
X95340000Y-82670000D03*
%TD*%
%TO.C,REF\u002A\u002A297*%
X49620000Y-108070000D03*
%TD*%
%TO.C,REF\u002A\u002A107*%
X54700000Y-47110000D03*
%TD*%
%TO.C,REF\u002A\u002A298*%
X52160000Y-108070000D03*
%TD*%
%TO.C,REF\u002A\u002A529*%
X75020000Y-67430000D03*
%TD*%
%TO.C,REF\u002A\u002A578*%
X77560000Y-82670000D03*
%TD*%
%TO.C,REF\u002A\u002A169*%
X49620000Y-67430000D03*
%TD*%
%TO.C,REF\u002A\u002A21*%
X44540000Y-62350000D03*
%TD*%
%TO.C,REF\u002A\u002A108*%
X57240000Y-47110000D03*
%TD*%
%TO.C,REF\u002A\u002A105*%
X49620000Y-47110000D03*
%TD*%
%TO.C,REF\u002A\u002A283*%
X54700000Y-102990000D03*
%TD*%
%TO.C,REF\u002A\u002A172*%
X57240000Y-67430000D03*
%TD*%
D15*
%TO.C,REF\u002A\u002A*%
X35000000Y-34000000D03*
%TD*%
D12*
%TO.C,REF\u002A\u002A379*%
X69940000Y-59810000D03*
%TD*%
%TO.C,REF\u002A\u002A279*%
X64860000Y-100450000D03*
%TD*%
%TO.C,REF\u002A\u002A47*%
X44540000Y-95370000D03*
%TD*%
%TO.C,REF\u002A\u002A752*%
X92800000Y-77590000D03*
%TD*%
%TO.C,REF\u002A\u002A495*%
X90260000Y-54730000D03*
%TD*%
%TO.C,REF\u002A\u002A602*%
X77560000Y-90290000D03*
%TD*%
%TO.C,REF\u002A\u002A775*%
X95340000Y-105530000D03*
%TD*%
%TO.C,REF\u002A\u002A237*%
X59780000Y-87750000D03*
%TD*%
%TO.C,REF\u002A\u002A889*%
X36920000Y-118230000D03*
%TD*%
%TO.C,REF\u002A\u002A702*%
X87720000Y-120770000D03*
%TD*%
%TO.C,REF\u002A\u002A808*%
X36920000Y-49650000D03*
%TD*%
%TO.C,REF\u002A\u002A732*%
X92800000Y-52190000D03*
%TD*%
%TO.C,REF\u002A\u002A604*%
X82640000Y-90290000D03*
%TD*%
%TO.C,REF\u002A\u002A769*%
X95340000Y-97910000D03*
%TD*%
%TO.C,REF\u002A\u002A637*%
X85180000Y-100450000D03*
%TD*%
%TO.C,REF\u002A\u002A208*%
X47080000Y-80130000D03*
%TD*%
%TO.C,REF\u002A\u002A538*%
X77560000Y-69970000D03*
%TD*%
%TO.C,REF\u002A\u002A113*%
X49620000Y-49650000D03*
%TD*%
%TO.C,REF\u002A\u002A164*%
X57240000Y-64890000D03*
%TD*%
%TO.C,REF\u002A\u002A666*%
X77560000Y-110610000D03*
%TD*%
%TO.C,REF\u002A\u002A214*%
X62320000Y-80130000D03*
%TD*%
%TO.C,REF\u002A\u002A829*%
X36920000Y-67430000D03*
%TD*%
%TO.C,REF\u002A\u002A807*%
X39460000Y-49650000D03*
%TD*%
%TO.C,REF\u002A\u002A195*%
X54700000Y-75050000D03*
%TD*%
%TO.C,REF\u002A\u002A644*%
X82640000Y-102990000D03*
%TD*%
%TO.C,REF\u002A\u002A288*%
X47080000Y-105530000D03*
%TD*%
%TO.C,REF\u002A\u002A699*%
X80100000Y-120770000D03*
%TD*%
%TO.C,REF\u002A\u002A873*%
X39460000Y-105530000D03*
%TD*%
%TO.C,REF\u002A\u002A595*%
X80100000Y-87750000D03*
%TD*%
%TO.C,REF\u002A\u002A262*%
X62320000Y-95370000D03*
%TD*%
%TO.C,REF\u002A\u002A726*%
X92800000Y-44570000D03*
%TD*%
%TO.C,REF\u002A\u002A773*%
X95340000Y-102990000D03*
%TD*%
%TO.C,REF\u002A\u002A490*%
X77560000Y-54730000D03*
%TD*%
%TO.C,REF\u002A\u002A378*%
X67400000Y-59810000D03*
%TD*%
%TO.C,REF\u002A\u002A260*%
X57240000Y-95370000D03*
%TD*%
%TO.C,REF\u002A\u002A615*%
X90260000Y-92830000D03*
%TD*%
%TO.C,REF\u002A\u002A292*%
X57240000Y-105530000D03*
%TD*%
%TO.C,REF\u002A\u002A17*%
X44540000Y-57270000D03*
%TD*%
%TO.C,REF\u002A\u002A632*%
X72480000Y-100450000D03*
%TD*%
%TO.C,REF\u002A\u002A884*%
X34380000Y-113150000D03*
%TD*%
%TO.C,REF\u002A\u002A540*%
X82640000Y-69970000D03*
%TD*%
%TO.C,REF\u002A\u002A282*%
X52160000Y-102990000D03*
%TD*%
%TO.C,REF\u002A\u002A121*%
X49620000Y-52190000D03*
%TD*%
%TO.C,REF\u002A\u002A557*%
X85180000Y-75050000D03*
%TD*%
%TO.C,REF\u002A\u002A522*%
X77560000Y-64890000D03*
%TD*%
%TO.C,REF\u002A\u002A44*%
X42000000Y-92830000D03*
%TD*%
%TO.C,REF\u002A\u002A528*%
X72480000Y-67430000D03*
%TD*%
%TO.C,REF\u002A\u002A408*%
X67400000Y-97910000D03*
%TD*%
%TO.C,REF\u002A\u002A711*%
X90260000Y-123310000D03*
%TD*%
%TO.C,REF\u002A\u002A422*%
X67400000Y-115690000D03*
%TD*%
%TO.C,REF\u002A\u002A301*%
X59780000Y-108070000D03*
%TD*%
%TO.C,REF\u002A\u002A245*%
X59780000Y-90290000D03*
%TD*%
%TO.C,REF\u002A\u002A217*%
X49620000Y-82670000D03*
%TD*%
%TO.C,REF\u002A\u002A681*%
X75020000Y-115690000D03*
%TD*%
%TO.C,REF\u002A\u002A824*%
X34380000Y-62350000D03*
%TD*%
%TO.C,REF\u002A\u002A135*%
X64860000Y-54730000D03*
%TD*%
%TO.C,REF\u002A\u002A300*%
X57240000Y-108070000D03*
%TD*%
%TO.C,REF\u002A\u002A193*%
X49620000Y-75050000D03*
%TD*%
%TO.C,REF\u002A\u002A9*%
X44540000Y-47110000D03*
%TD*%
%TO.C,REF\u002A\u002A147*%
X54700000Y-59810000D03*
%TD*%
%TO.C,REF\u002A\u002A761*%
X95340000Y-87750000D03*
%TD*%
%TO.C,REF\u002A\u002A759*%
X95340000Y-85210000D03*
%TD*%
%TO.C,REF\u002A\u002A389*%
X69940000Y-72510000D03*
%TD*%
%TO.C,REF\u002A\u002A243*%
X54700000Y-90290000D03*
%TD*%
%TO.C,REF\u002A\u002A163*%
X54700000Y-64890000D03*
%TD*%
%TO.C,REF\u002A\u002A259*%
X54700000Y-95370000D03*
%TD*%
%TO.C,REF\u002A\u002A652*%
X82640000Y-105530000D03*
%TD*%
%TO.C,REF\u002A\u002A449*%
X75020000Y-42030000D03*
%TD*%
%TO.C,REF\u002A\u002A173*%
X59780000Y-67430000D03*
%TD*%
%TO.C,REF\u002A\u002A774*%
X92800000Y-105530000D03*
%TD*%
%TO.C,REF\u002A\u002A592*%
X72480000Y-87750000D03*
%TD*%
%TO.C,REF\u002A\u002A304*%
X47080000Y-110610000D03*
%TD*%
%TO.C,REF\u002A\u002A20*%
X42000000Y-62350000D03*
%TD*%
%TO.C,REF\u002A\u002A57*%
X44540000Y-108070000D03*
%TD*%
%TO.C,REF\u002A\u002A594*%
X77560000Y-87750000D03*
%TD*%
%TO.C,REF\u002A\u002A375*%
X69940000Y-54730000D03*
%TD*%
%TO.C,REF\u002A\u002A250*%
X52160000Y-92830000D03*
%TD*%
%TO.C,REF\u002A\u002A501*%
X85180000Y-57270000D03*
%TD*%
%TO.C,REF\u002A\u002A236*%
X57240000Y-87750000D03*
%TD*%
%TO.C,REF\u002A\u002A845*%
X34380000Y-80130000D03*
%TD*%
%TO.C,REF\u002A\u002A185*%
X49620000Y-72510000D03*
%TD*%
%TO.C,REF\u002A\u002A534*%
X87720000Y-67430000D03*
%TD*%
%TO.C,REF\u002A\u002A117*%
X59780000Y-49650000D03*
%TD*%
%TO.C,REF\u002A\u002A629*%
X85180000Y-97910000D03*
%TD*%
%TO.C,REF\u002A\u002A162*%
X52160000Y-64890000D03*
%TD*%
%TO.C,REF\u002A\u002A364*%
X67400000Y-42030000D03*
%TD*%
%TO.C,REF\u002A\u002A494*%
X87720000Y-54730000D03*
%TD*%
%TO.C,REF\u002A\u002A424*%
X67400000Y-118230000D03*
%TD*%
%TO.C,REF\u002A\u002A667*%
X80100000Y-110610000D03*
%TD*%
%TO.C,REF\u002A\u002A202*%
X52160000Y-77590000D03*
%TD*%
%TO.C,REF\u002A\u002A145*%
X49620000Y-59810000D03*
%TD*%
%TO.C,REF\u002A\u002A567*%
X90260000Y-77590000D03*
%TD*%
%TO.C,REF\u002A\u002A763*%
X95340000Y-90290000D03*
%TD*%
%TO.C,REF\u002A\u002A222*%
X62320000Y-82670000D03*
%TD*%
%TO.C,REF\u002A\u002A570*%
X77560000Y-80130000D03*
%TD*%
%TO.C,REF\u002A\u002A372*%
X67400000Y-52190000D03*
%TD*%
%TO.C,REF\u002A\u002A182*%
X62320000Y-69970000D03*
%TD*%
%TO.C,REF\u002A\u002A844*%
X36920000Y-80130000D03*
%TD*%
%TO.C,REF\u002A\u002A138*%
X52160000Y-57270000D03*
%TD*%
%TO.C,REF\u002A\u002A709*%
X85180000Y-123310000D03*
%TD*%
%TO.C,REF\u002A\u002A489*%
X75020000Y-54730000D03*
%TD*%
%TO.C,REF\u002A\u002A765*%
X95340000Y-92830000D03*
%TD*%
%TO.C,REF\u002A\u002A296*%
X47080000Y-108070000D03*
%TD*%
%TO.C,REF\u002A\u002A601*%
X75020000Y-90290000D03*
%TD*%
%TO.C,REF\u002A\u002A568*%
X72480000Y-80130000D03*
%TD*%
%TO.C,REF\u002A\u002A626*%
X77560000Y-97910000D03*
%TD*%
%TO.C,REF\u002A\u002A518*%
X87720000Y-62350000D03*
%TD*%
%TO.C,REF\u002A\u002A92*%
X57240000Y-42030000D03*
%TD*%
%TO.C,REF\u002A\u002A543*%
X90260000Y-69970000D03*
%TD*%
%TO.C,REF\u002A\u002A110*%
X62320000Y-47110000D03*
%TD*%
%TO.C,REF\u002A\u002A34*%
X42000000Y-80130000D03*
%TD*%
%TO.C,REF\u002A\u002A750*%
X92800000Y-75050000D03*
%TD*%
%TO.C,REF\u002A\u002A776*%
X92800000Y-108070000D03*
%TD*%
%TO.C,REF\u002A\u002A383*%
X69940000Y-64890000D03*
%TD*%
%TO.C,REF\u002A\u002A466*%
X77560000Y-47110000D03*
%TD*%
%TO.C,REF\u002A\u002A611*%
X80100000Y-92830000D03*
%TD*%
%TO.C,REF\u002A\u002A287*%
X64860000Y-102990000D03*
%TD*%
%TO.C,REF\u002A\u002A376*%
X67400000Y-57270000D03*
%TD*%
%TO.C,REF\u002A\u002A197*%
X59780000Y-75050000D03*
%TD*%
%TO.C,REF\u002A\u002A606*%
X87720000Y-90290000D03*
%TD*%
%TO.C,REF\u002A\u002A4*%
X42000000Y-42030000D03*
%TD*%
%TO.C,REF\u002A\u002A564*%
X82640000Y-77590000D03*
%TD*%
%TO.C,REF\u002A\u002A484*%
X82640000Y-52190000D03*
%TD*%
%TO.C,REF\u002A\u002A758*%
X92800000Y-85210000D03*
%TD*%
%TO.C,REF\u002A\u002A558*%
X87720000Y-75050000D03*
%TD*%
%TO.C,REF\u002A\u002A416*%
X67400000Y-108070000D03*
%TD*%
%TO.C,REF\u002A\u002A106*%
X52160000Y-47110000D03*
%TD*%
%TO.C,REF\u002A\u002A230*%
X62320000Y-85210000D03*
%TD*%
%TO.C,REF\u002A\u002A668*%
X82640000Y-110610000D03*
%TD*%
%TO.C,REF\u002A\u002A258*%
X52160000Y-95370000D03*
%TD*%
%TO.C,REF\u002A\u002A476*%
X82640000Y-49650000D03*
%TD*%
%TO.C,REF\u002A\u002A139*%
X54700000Y-57270000D03*
%TD*%
%TO.C,REF\u002A\u002A835*%
X36920000Y-72510000D03*
%TD*%
%TO.C,REF\u002A\u002A783*%
X95340000Y-115690000D03*
%TD*%
%TO.C,REF\u002A\u002A657*%
X75020000Y-108070000D03*
%TD*%
%TO.C,REF\u002A\u002A317*%
X59780000Y-113150000D03*
%TD*%
%TO.C,REF\u002A\u002A386*%
X67400000Y-69970000D03*
%TD*%
%TO.C,REF\u002A\u002A762*%
X92800000Y-90290000D03*
%TD*%
%TO.C,REF\u002A\u002A527*%
X90260000Y-64890000D03*
%TD*%
%TO.C,REF\u002A\u002A204*%
X57240000Y-77590000D03*
%TD*%
%TO.C,REF\u002A\u002A270*%
X62320000Y-97910000D03*
%TD*%
%TO.C,REF\u002A\u002A144*%
X47080000Y-59810000D03*
%TD*%
%TO.C,REF\u002A\u002A834*%
X39460000Y-72510000D03*
%TD*%
%TO.C,REF\u002A\u002A98*%
X52160000Y-44570000D03*
%TD*%
%TO.C,REF\u002A\u002A45*%
X44540000Y-92830000D03*
%TD*%
%TO.C,REF\u002A\u002A688*%
X72480000Y-118230000D03*
%TD*%
%TO.C,REF\u002A\u002A754*%
X92800000Y-80130000D03*
%TD*%
%TO.C,REF\u002A\u002A733*%
X95340000Y-52190000D03*
%TD*%
%TO.C,REF\u002A\u002A475*%
X80100000Y-49650000D03*
%TD*%
%TO.C,REF\u002A\u002A278*%
X62320000Y-100450000D03*
%TD*%
%TO.C,REF\u002A\u002A23*%
X44540000Y-64890000D03*
%TD*%
%TO.C,REF\u002A\u002A645*%
X85180000Y-102990000D03*
%TD*%
%TO.C,REF\u002A\u002A59*%
X44540000Y-110610000D03*
%TD*%
%TO.C,REF\u002A\u002A401*%
X69940000Y-87750000D03*
%TD*%
%TO.C,REF\u002A\u002A269*%
X59780000Y-97910000D03*
%TD*%
%TO.C,REF\u002A\u002A321*%
X49620000Y-115690000D03*
%TD*%
%TO.C,REF\u002A\u002A232*%
X47080000Y-87750000D03*
%TD*%
%TO.C,REF\u002A\u002A332*%
X57240000Y-118230000D03*
%TD*%
%TO.C,REF\u002A\u002A11*%
X44540000Y-49650000D03*
%TD*%
%TO.C,REF\u002A\u002A562*%
X77560000Y-77590000D03*
%TD*%
%TO.C,REF\u002A\u002A545*%
X75020000Y-72510000D03*
%TD*%
%TO.C,REF\u002A\u002A728*%
X92800000Y-47110000D03*
%TD*%
%TO.C,REF\u002A\u002A565*%
X85180000Y-77590000D03*
%TD*%
%TO.C,REF\u002A\u002A478*%
X87720000Y-49650000D03*
%TD*%
%TO.C,REF\u002A\u002A823*%
X36920000Y-62350000D03*
%TD*%
%TO.C,REF\u002A\u002A496*%
X72480000Y-57270000D03*
%TD*%
%TO.C,REF\u002A\u002A190*%
X62320000Y-72510000D03*
%TD*%
%TO.C,REF\u002A\u002A690*%
X77560000Y-118230000D03*
%TD*%
%TO.C,REF\u002A\u002A887*%
X34380000Y-115690000D03*
%TD*%
%TO.C,REF\u002A\u002A859*%
X36920000Y-92830000D03*
%TD*%
%TO.C,REF\u002A\u002A211*%
X54700000Y-80130000D03*
%TD*%
%TO.C,REF\u002A\u002A68*%
X42000000Y-123310000D03*
%TD*%
%TO.C,REF\u002A\u002A69*%
X44540000Y-123310000D03*
%TD*%
%TO.C,REF\u002A\u002A122*%
X52160000Y-52190000D03*
%TD*%
%TO.C,REF\u002A\u002A850*%
X36920000Y-85210000D03*
%TD*%
%TO.C,REF\u002A\u002A737*%
X95340000Y-57270000D03*
%TD*%
%TO.C,REF\u002A\u002A286*%
X62320000Y-102990000D03*
%TD*%
%TO.C,REF\u002A\u002A643*%
X80100000Y-102990000D03*
%TD*%
%TO.C,REF\u002A\u002A184*%
X47080000Y-72510000D03*
%TD*%
%TO.C,REF\u002A\u002A149*%
X59780000Y-59810000D03*
%TD*%
%TO.C,REF\u002A\u002A417*%
X69940000Y-108070000D03*
%TD*%
%TO.C,REF\u002A\u002A25*%
X44540000Y-67430000D03*
%TD*%
%TO.C,REF\u002A\u002A801*%
X39460000Y-44570000D03*
%TD*%
%TO.C,REF\u002A\u002A18*%
X42000000Y-59810000D03*
%TD*%
%TO.C,REF\u002A\u002A593*%
X75020000Y-87750000D03*
%TD*%
%TO.C,REF\u002A\u002A520*%
X72480000Y-64890000D03*
%TD*%
%TO.C,REF\u002A\u002A696*%
X72480000Y-120770000D03*
%TD*%
%TO.C,REF\u002A\u002A503*%
X90260000Y-57270000D03*
%TD*%
%TO.C,REF\u002A\u002A305*%
X49620000Y-110610000D03*
%TD*%
%TO.C,REF\u002A\u002A177*%
X49620000Y-69970000D03*
%TD*%
%TO.C,REF\u002A\u002A525*%
X85180000Y-64890000D03*
%TD*%
%TO.C,REF\u002A\u002A178*%
X52160000Y-69970000D03*
%TD*%
%TO.C,REF\u002A\u002A708*%
X82640000Y-123310000D03*
%TD*%
%TO.C,REF\u002A\u002A866*%
X34380000Y-97910000D03*
%TD*%
%TO.C,REF\u002A\u002A662*%
X87720000Y-108070000D03*
%TD*%
%TO.C,REF\u002A\u002A213*%
X59780000Y-80130000D03*
%TD*%
%TO.C,REF\u002A\u002A512*%
X72480000Y-62350000D03*
%TD*%
%TO.C,REF\u002A\u002A842*%
X34380000Y-77590000D03*
%TD*%
%TO.C,REF\u002A\u002A349*%
X59780000Y-123310000D03*
%TD*%
%TO.C,REF\u002A\u002A406*%
X67400000Y-95370000D03*
%TD*%
%TO.C,REF\u002A\u002A779*%
X95340000Y-110610000D03*
%TD*%
%TO.C,REF\u002A\u002A663*%
X90260000Y-108070000D03*
%TD*%
%TO.C,REF\u002A\u002A148*%
X57240000Y-59810000D03*
%TD*%
%TO.C,REF\u002A\u002A215*%
X64860000Y-80130000D03*
%TD*%
%TO.C,REF\u002A\u002A860*%
X34380000Y-92830000D03*
%TD*%
%TO.C,REF\u002A\u002A199*%
X64860000Y-75050000D03*
%TD*%
%TO.C,REF\u002A\u002A12*%
X42000000Y-52190000D03*
%TD*%
%TO.C,REF\u002A\u002A15*%
X44540000Y-54730000D03*
%TD*%
%TO.C,REF\u002A\u002A772*%
X92800000Y-102990000D03*
%TD*%
%TO.C,REF\u002A\u002A798*%
X39460000Y-42030000D03*
%TD*%
%TO.C,REF\u002A\u002A181*%
X59780000Y-69970000D03*
%TD*%
%TO.C,REF\u002A\u002A448*%
X72480000Y-42030000D03*
%TD*%
%TO.C,REF\u002A\u002A864*%
X39460000Y-97910000D03*
%TD*%
%TO.C,REF\u002A\u002A133*%
X59780000Y-54730000D03*
%TD*%
%TO.C,REF\u002A\u002A849*%
X39460000Y-85210000D03*
%TD*%
%TO.C,REF\u002A\u002A455*%
X90260000Y-42030000D03*
%TD*%
%TO.C,REF\u002A\u002A337*%
X49620000Y-120770000D03*
%TD*%
%TO.C,REF\u002A\u002A641*%
X75020000Y-102990000D03*
%TD*%
%TO.C,REF\u002A\u002A831*%
X39460000Y-69970000D03*
%TD*%
%TO.C,REF\u002A\u002A839*%
X34380000Y-75050000D03*
%TD*%
%TO.C,REF\u002A\u002A894*%
X39460000Y-123310000D03*
%TD*%
%TO.C,REF\u002A\u002A647*%
X90260000Y-102990000D03*
%TD*%
%TO.C,REF\u002A\u002A409*%
X69940000Y-97910000D03*
%TD*%
%TO.C,REF\u002A\u002A542*%
X87720000Y-69970000D03*
%TD*%
%TO.C,REF\u002A\u002A535*%
X90260000Y-67430000D03*
%TD*%
%TO.C,REF\u002A\u002A471*%
X90260000Y-47110000D03*
%TD*%
%TO.C,REF\u002A\u002A869*%
X34380000Y-100450000D03*
%TD*%
%TO.C,REF\u002A\u002A526*%
X87720000Y-64890000D03*
%TD*%
%TO.C,REF\u002A\u002A382*%
X67400000Y-64890000D03*
%TD*%
%TO.C,REF\u002A\u002A480*%
X72480000Y-52190000D03*
%TD*%
%TO.C,REF\u002A\u002A165*%
X59780000Y-64890000D03*
%TD*%
%TO.C,REF\u002A\u002A743*%
X95340000Y-64890000D03*
%TD*%
%TO.C,REF\u002A\u002A313*%
X49620000Y-113150000D03*
%TD*%
%TO.C,REF\u002A\u002A803*%
X34380000Y-44570000D03*
%TD*%
%TO.C,REF\u002A\u002A687*%
X90260000Y-115690000D03*
%TD*%
%TO.C,REF\u002A\u002A201*%
X49620000Y-77590000D03*
%TD*%
%TO.C,REF\u002A\u002A365*%
X69940000Y-42030000D03*
%TD*%
%TO.C,REF\u002A\u002A397*%
X69940000Y-82670000D03*
%TD*%
%TO.C,REF\u002A\u002A861*%
X39460000Y-95370000D03*
%TD*%
%TO.C,REF\u002A\u002A855*%
X39460000Y-90290000D03*
%TD*%
%TO.C,REF\u002A\u002A203*%
X54700000Y-77590000D03*
%TD*%
%TO.C,REF\u002A\u002A52*%
X42000000Y-102990000D03*
%TD*%
%TO.C,REF\u002A\u002A590*%
X87720000Y-85210000D03*
%TD*%
%TO.C,REF\u002A\u002A481*%
X75020000Y-52190000D03*
%TD*%
%TO.C,REF\u002A\u002A631*%
X90260000Y-97910000D03*
%TD*%
%TO.C,REF\u002A\u002A649*%
X75020000Y-105530000D03*
%TD*%
%TO.C,REF\u002A\u002A806*%
X34380000Y-47110000D03*
%TD*%
%TO.C,REF\u002A\u002A373*%
X69940000Y-52190000D03*
%TD*%
%TO.C,REF\u002A\u002A456*%
X72480000Y-44570000D03*
%TD*%
%TO.C,REF\u002A\u002A541*%
X85180000Y-69970000D03*
%TD*%
%TO.C,REF\u002A\u002A883*%
X36920000Y-113150000D03*
%TD*%
%TO.C,REF\u002A\u002A706*%
X77560000Y-123310000D03*
%TD*%
%TO.C,REF\u002A\u002A589*%
X85180000Y-85210000D03*
%TD*%
%TO.C,REF\u002A\u002A516*%
X82640000Y-62350000D03*
%TD*%
%TO.C,REF\u002A\u002A788*%
X92800000Y-123310000D03*
%TD*%
%TO.C,REF\u002A\u002A308*%
X57240000Y-110610000D03*
%TD*%
%TO.C,REF\u002A\u002A805*%
X36920000Y-47110000D03*
%TD*%
%TO.C,REF\u002A\u002A616*%
X72480000Y-95370000D03*
%TD*%
%TO.C,REF\u002A\u002A28*%
X42000000Y-72510000D03*
%TD*%
%TO.C,REF\u002A\u002A24*%
X42000000Y-67430000D03*
%TD*%
%TO.C,REF\u002A\u002A651*%
X80100000Y-105530000D03*
%TD*%
%TO.C,REF\u002A\u002A753*%
X95340000Y-77590000D03*
%TD*%
%TO.C,REF\u002A\u002A661*%
X85180000Y-108070000D03*
%TD*%
%TO.C,REF\u002A\u002A101*%
X59780000Y-44570000D03*
%TD*%
%TO.C,REF\u002A\u002A39*%
X44540000Y-85210000D03*
%TD*%
%TO.C,REF\u002A\u002A130*%
X52160000Y-54730000D03*
%TD*%
%TO.C,REF\u002A\u002A118*%
X62320000Y-49650000D03*
%TD*%
%TO.C,REF\u002A\u002A700*%
X82640000Y-120770000D03*
%TD*%
%TO.C,REF\u002A\u002A251*%
X54700000Y-92830000D03*
%TD*%
%TO.C,REF\u002A\u002A345*%
X49620000Y-123310000D03*
%TD*%
%TO.C,REF\u002A\u002A800*%
X34380000Y-42030000D03*
%TD*%
%TO.C,REF\u002A\u002A878*%
X34380000Y-108070000D03*
%TD*%
%TO.C,REF\u002A\u002A472*%
X72480000Y-49650000D03*
%TD*%
D15*
%TO.C,REF\u002A\u002A*%
X95000000Y-128000000D03*
%TD*%
D12*
%TO.C,REF\u002A\u002A789*%
X95340000Y-123310000D03*
%TD*%
%TO.C,REF\u002A\u002A581*%
X85180000Y-82670000D03*
%TD*%
%TO.C,REF\u002A\u002A621*%
X85180000Y-95370000D03*
%TD*%
%TO.C,REF\u002A\u002A879*%
X39460000Y-110610000D03*
%TD*%
%TO.C,REF\u002A\u002A402*%
X67400000Y-90290000D03*
%TD*%
%TO.C,REF\u002A\u002A336*%
X47080000Y-120770000D03*
%TD*%
%TO.C,REF\u002A\u002A329*%
X49620000Y-118230000D03*
%TD*%
%TO.C,REF\u002A\u002A51*%
X44540000Y-100450000D03*
%TD*%
%TO.C,REF\u002A\u002A533*%
X85180000Y-67430000D03*
%TD*%
%TO.C,REF\u002A\u002A622*%
X87720000Y-95370000D03*
%TD*%
%TO.C,REF\u002A\u002A748*%
X92800000Y-72510000D03*
%TD*%
%TO.C,REF\u002A\u002A32*%
X42000000Y-77590000D03*
%TD*%
%TO.C,REF\u002A\u002A636*%
X82640000Y-100450000D03*
%TD*%
%TO.C,REF\u002A\u002A467*%
X80100000Y-47110000D03*
%TD*%
%TO.C,REF\u002A\u002A511*%
X90260000Y-59810000D03*
%TD*%
%TO.C,REF\u002A\u002A739*%
X95340000Y-59810000D03*
%TD*%
%TO.C,REF\u002A\u002A596*%
X82640000Y-87750000D03*
%TD*%
%TO.C,REF\u002A\u002A238*%
X62320000Y-87750000D03*
%TD*%
%TO.C,REF\u002A\u002A579*%
X80100000Y-82670000D03*
%TD*%
%TO.C,REF\u002A\u002A605*%
X85180000Y-90290000D03*
%TD*%
%TO.C,REF\u002A\u002A614*%
X87720000Y-92830000D03*
%TD*%
%TO.C,REF\u002A\u002A669*%
X85180000Y-110610000D03*
%TD*%
%TO.C,REF\u002A\u002A493*%
X85180000Y-54730000D03*
%TD*%
%TO.C,REF\u002A\u002A306*%
X52160000Y-110610000D03*
%TD*%
%TO.C,REF\u002A\u002A62*%
X42000000Y-115690000D03*
%TD*%
%TO.C,REF\u002A\u002A226*%
X52160000Y-85210000D03*
%TD*%
%TO.C,REF\u002A\u002A689*%
X75020000Y-118230000D03*
%TD*%
%TO.C,REF\u002A\u002A291*%
X54700000Y-105530000D03*
%TD*%
%TO.C,REF\u002A\u002A513*%
X75020000Y-62350000D03*
%TD*%
%TO.C,REF\u002A\u002A407*%
X69940000Y-95370000D03*
%TD*%
%TO.C,REF\u002A\u002A66*%
X42000000Y-120770000D03*
%TD*%
%TO.C,REF\u002A\u002A877*%
X36920000Y-108070000D03*
%TD*%
%TO.C,REF\u002A\u002A665*%
X75020000Y-110610000D03*
%TD*%
%TO.C,REF\u002A\u002A780*%
X92800000Y-113150000D03*
%TD*%
%TO.C,REF\u002A\u002A275*%
X54700000Y-100450000D03*
%TD*%
%TO.C,REF\u002A\u002A210*%
X52160000Y-80130000D03*
%TD*%
%TO.C,REF\u002A\u002A683*%
X80100000Y-115690000D03*
%TD*%
%TO.C,REF\u002A\u002A299*%
X54700000Y-108070000D03*
%TD*%
%TO.C,REF\u002A\u002A90*%
X52160000Y-42030000D03*
%TD*%
%TO.C,REF\u002A\u002A865*%
X36920000Y-97910000D03*
%TD*%
%TO.C,REF\u002A\u002A646*%
X87720000Y-102990000D03*
%TD*%
%TO.C,REF\u002A\u002A418*%
X67400000Y-110610000D03*
%TD*%
%TO.C,REF\u002A\u002A171*%
X54700000Y-67430000D03*
%TD*%
%TO.C,REF\u002A\u002A627*%
X80100000Y-97910000D03*
%TD*%
%TO.C,REF\u002A\u002A620*%
X82640000Y-95370000D03*
%TD*%
M02*
