M48
; DRILL file {KiCad (6.0.8-1)-1} date Thursday, February 02, 2023 at 10:16:12 AM
; FORMAT={-:-/ absolute / inch / decimal}
; #@! TF.CreationDate,2023-02-02T10:16:12-05:00
; #@! TF.GenerationSoftware,Kicad,Pcbnew,(6.0.8-1)-1
; #@! TF.FileFunction,Plated,1,2,PTH
FMAT,2
INCH
; #@! TA.AperFunction,Plated,PTH,ComponentDrill
T1C0.0394
; #@! TA.AperFunction,Plated,PTH,ComponentDrill
T2C0.0400
; #@! TA.AperFunction,Plated,PTH,ComponentDrill
T3C0.0433
%
G90
G05
T1
X1.8504Y-1.2992
X1.9094Y-5.0778
X1.9504Y-1.2992
X2.0094Y-5.0778
X2.0504Y-1.2992
X2.1094Y-5.0778
X2.1504Y-1.2992
X2.2094Y-5.0778
X2.2504Y-1.2992
X2.3094Y-5.0778
X2.3504Y-1.2992
X2.4094Y-5.0778
X2.4504Y-1.2992
X2.5094Y-5.0778
X2.5504Y-1.2992
X2.6094Y-5.0778
X2.6504Y-1.2992
X2.7094Y-5.0778
X2.7504Y-1.2992
X2.8094Y-5.0778
X2.8504Y-1.2992
X2.9094Y-5.0778
X2.9504Y-1.2992
X3.0094Y-5.0778
X3.0504Y-1.2992
X3.1094Y-5.0778
X3.1504Y-1.2992
X3.2094Y-5.0778
T2
X3.3465Y-1.3173
X3.3465Y-1.4173
X3.4465Y-1.3173
X3.4465Y-1.4173
X3.5465Y-1.3173
X3.5465Y-1.4173
X3.6465Y-1.3173
X3.6465Y-1.4173
X3.7465Y-1.3173
X3.7465Y-1.4173
T3
X1.3535Y-1.6547
X1.3535Y-1.7547
X1.3535Y-1.8547
X1.3535Y-1.9547
X1.3535Y-2.0547
X1.3535Y-2.1547
X1.3535Y-2.2547
X1.3535Y-2.3547
X1.3535Y-2.4547
X1.3535Y-2.5547
X1.3535Y-2.6547
X1.3535Y-2.7547
X1.3535Y-2.8547
X1.3535Y-2.9547
X1.3535Y-3.0547
X1.3535Y-3.1547
X1.3535Y-3.2547
X1.3535Y-3.3547
X1.3535Y-3.4547
X1.3535Y-3.5547
X1.3535Y-3.6547
X1.3535Y-3.7547
X1.3535Y-3.8547
X1.3535Y-3.9547
X1.3535Y-4.0547
X1.3535Y-4.1547
X1.3535Y-4.2547
X1.3535Y-4.3547
X1.3535Y-4.4547
X1.3535Y-4.5547
X1.3535Y-4.6547
X1.3535Y-4.7547
X1.3535Y-4.8547
X1.4535Y-1.6547
X1.4535Y-1.7547
X1.4535Y-1.8547
X1.4535Y-1.9547
X1.4535Y-2.0547
X1.4535Y-2.1547
X1.4535Y-2.2547
X1.4535Y-2.3547
X1.4535Y-2.4547
X1.4535Y-2.5547
X1.4535Y-2.6547
X1.4535Y-2.7547
X1.4535Y-2.8547
X1.4535Y-2.9547
X1.4535Y-3.0547
X1.4535Y-3.1547
X1.4535Y-3.2547
X1.4535Y-3.3547
X1.4535Y-3.4547
X1.4535Y-3.5547
X1.4535Y-3.6547
X1.4535Y-3.7547
X1.4535Y-3.8547
X1.4535Y-3.9547
X1.4535Y-4.0547
X1.4535Y-4.1547
X1.4535Y-4.2547
X1.4535Y-4.3547
X1.4535Y-4.4547
X1.4535Y-4.5547
X1.4535Y-4.6547
X1.4535Y-4.7547
X1.4535Y-4.8547
X1.5535Y-1.6547
X1.5535Y-1.7547
X1.5535Y-1.8547
X1.5535Y-1.9547
X1.5535Y-2.0547
X1.5535Y-2.1547
X1.5535Y-2.2547
X1.5535Y-2.3547
X1.5535Y-2.4547
X1.5535Y-2.5547
X1.5535Y-2.6547
X1.5535Y-2.7547
X1.5535Y-2.8547
X1.5535Y-2.9547
X1.5535Y-3.0547
X1.5535Y-3.1547
X1.5535Y-3.2547
X1.5535Y-3.3547
X1.5535Y-3.4547
X1.5535Y-3.5547
X1.5535Y-3.6547
X1.5535Y-3.7547
X1.5535Y-3.8547
X1.5535Y-3.9547
X1.5535Y-4.0547
X1.5535Y-4.1547
X1.5535Y-4.2547
X1.5535Y-4.3547
X1.5535Y-4.4547
X1.5535Y-4.5547
X1.5535Y-4.6547
X1.5535Y-4.7547
X1.5535Y-4.8547
X1.6535Y-1.6547
X1.6535Y-1.7547
X1.6535Y-1.8547
X1.6535Y-1.9547
X1.6535Y-2.0547
X1.6535Y-2.1547
X1.6535Y-2.2547
X1.6535Y-2.3547
X1.6535Y-2.4547
X1.6535Y-2.5547
X1.6535Y-2.6547
X1.6535Y-2.7547
X1.6535Y-2.8547
X1.6535Y-2.9547
X1.6535Y-3.0547
X1.6535Y-3.1547
X1.6535Y-3.2547
X1.6535Y-3.3547
X1.6535Y-3.4547
X1.6535Y-3.5547
X1.6535Y-3.6547
X1.6535Y-3.7547
X1.6535Y-3.8547
X1.6535Y-3.9547
X1.6535Y-4.0547
X1.6535Y-4.1547
X1.6535Y-4.2547
X1.6535Y-4.3547
X1.6535Y-4.4547
X1.6535Y-4.5547
X1.6535Y-4.6547
X1.6535Y-4.7547
X1.6535Y-4.8547
X1.7535Y-1.6547
X1.7535Y-1.7547
X1.7535Y-1.8547
X1.7535Y-1.9547
X1.7535Y-2.0547
X1.7535Y-2.1547
X1.7535Y-2.2547
X1.7535Y-2.3547
X1.7535Y-2.4547
X1.7535Y-2.5547
X1.7535Y-2.6547
X1.7535Y-2.7547
X1.7535Y-2.8547
X1.7535Y-2.9547
X1.7535Y-3.0547
X1.7535Y-3.1547
X1.7535Y-3.2547
X1.7535Y-3.3547
X1.7535Y-3.4547
X1.7535Y-3.5547
X1.7535Y-3.6547
X1.7535Y-3.7547
X1.7535Y-3.8547
X1.7535Y-3.9547
X1.7535Y-4.0547
X1.7535Y-4.1547
X1.7535Y-4.2547
X1.7535Y-4.3547
X1.7535Y-4.4547
X1.7535Y-4.5547
X1.7535Y-4.6547
X1.7535Y-4.7547
X1.7535Y-4.8547
X1.8535Y-1.6547
X1.8535Y-1.7547
X1.8535Y-1.8547
X1.8535Y-1.9547
X1.8535Y-2.0547
X1.8535Y-2.1547
X1.8535Y-2.2547
X1.8535Y-2.3547
X1.8535Y-2.4547
X1.8535Y-2.5547
X1.8535Y-2.6547
X1.8535Y-2.7547
X1.8535Y-2.8547
X1.8535Y-2.9547
X1.8535Y-3.0547
X1.8535Y-3.1547
X1.8535Y-3.2547
X1.8535Y-3.3547
X1.8535Y-3.4547
X1.8535Y-3.5547
X1.8535Y-3.6547
X1.8535Y-3.7547
X1.8535Y-3.8547
X1.8535Y-3.9547
X1.8535Y-4.0547
X1.8535Y-4.1547
X1.8535Y-4.2547
X1.8535Y-4.3547
X1.8535Y-4.4547
X1.8535Y-4.5547
X1.8535Y-4.6547
X1.8535Y-4.7547
X1.8535Y-4.8547
X1.9535Y-1.6547
X1.9535Y-1.7547
X1.9535Y-1.8547
X1.9535Y-1.9547
X1.9535Y-2.0547
X1.9535Y-2.1547
X1.9535Y-2.2547
X1.9535Y-2.3547
X1.9535Y-2.4547
X1.9535Y-2.5547
X1.9535Y-2.6547
X1.9535Y-2.7547
X1.9535Y-2.8547
X1.9535Y-2.9547
X1.9535Y-3.0547
X1.9535Y-3.1547
X1.9535Y-3.2547
X1.9535Y-3.3547
X1.9535Y-3.4547
X1.9535Y-3.5547
X1.9535Y-3.6547
X1.9535Y-3.7547
X1.9535Y-3.8547
X1.9535Y-3.9547
X1.9535Y-4.0547
X1.9535Y-4.1547
X1.9535Y-4.2547
X1.9535Y-4.3547
X1.9535Y-4.4547
X1.9535Y-4.5547
X1.9535Y-4.6547
X1.9535Y-4.7547
X1.9535Y-4.8547
X2.0535Y-1.6547
X2.0535Y-1.7547
X2.0535Y-1.8547
X2.0535Y-1.9547
X2.0535Y-2.0547
X2.0535Y-2.1547
X2.0535Y-2.2547
X2.0535Y-2.3547
X2.0535Y-2.4547
X2.0535Y-2.5547
X2.0535Y-2.6547
X2.0535Y-2.7547
X2.0535Y-2.8547
X2.0535Y-2.9547
X2.0535Y-3.0547
X2.0535Y-3.1547
X2.0535Y-3.2547
X2.0535Y-3.3547
X2.0535Y-3.4547
X2.0535Y-3.5547
X2.0535Y-3.6547
X2.0535Y-3.7547
X2.0535Y-3.8547
X2.0535Y-3.9547
X2.0535Y-4.0547
X2.0535Y-4.1547
X2.0535Y-4.2547
X2.0535Y-4.3547
X2.0535Y-4.4547
X2.0535Y-4.5547
X2.0535Y-4.6547
X2.0535Y-4.7547
X2.0535Y-4.8547
X2.1535Y-1.6547
X2.1535Y-1.7547
X2.1535Y-1.8547
X2.1535Y-1.9547
X2.1535Y-2.0547
X2.1535Y-2.1547
X2.1535Y-2.2547
X2.1535Y-2.3547
X2.1535Y-2.4547
X2.1535Y-2.5547
X2.1535Y-2.6547
X2.1535Y-2.7547
X2.1535Y-2.8547
X2.1535Y-2.9547
X2.1535Y-3.0547
X2.1535Y-3.1547
X2.1535Y-3.2547
X2.1535Y-3.3547
X2.1535Y-3.4547
X2.1535Y-3.5547
X2.1535Y-3.6547
X2.1535Y-3.7547
X2.1535Y-3.8547
X2.1535Y-3.9547
X2.1535Y-4.0547
X2.1535Y-4.1547
X2.1535Y-4.2547
X2.1535Y-4.3547
X2.1535Y-4.4547
X2.1535Y-4.5547
X2.1535Y-4.6547
X2.1535Y-4.7547
X2.1535Y-4.8547
X2.2535Y-1.6547
X2.2535Y-1.7547
X2.2535Y-1.8547
X2.2535Y-1.9547
X2.2535Y-2.0547
X2.2535Y-2.1547
X2.2535Y-2.2547
X2.2535Y-2.3547
X2.2535Y-2.4547
X2.2535Y-2.5547
X2.2535Y-2.6547
X2.2535Y-2.7547
X2.2535Y-2.8547
X2.2535Y-2.9547
X2.2535Y-3.0547
X2.2535Y-3.1547
X2.2535Y-3.2547
X2.2535Y-3.3547
X2.2535Y-3.4547
X2.2535Y-3.5547
X2.2535Y-3.6547
X2.2535Y-3.7547
X2.2535Y-3.8547
X2.2535Y-3.9547
X2.2535Y-4.0547
X2.2535Y-4.1547
X2.2535Y-4.2547
X2.2535Y-4.3547
X2.2535Y-4.4547
X2.2535Y-4.5547
X2.2535Y-4.6547
X2.2535Y-4.7547
X2.2535Y-4.8547
X2.3535Y-1.6547
X2.3535Y-1.7547
X2.3535Y-1.8547
X2.3535Y-1.9547
X2.3535Y-2.0547
X2.3535Y-2.1547
X2.3535Y-2.2547
X2.3535Y-2.3547
X2.3535Y-2.4547
X2.3535Y-2.5547
X2.3535Y-2.6547
X2.3535Y-2.7547
X2.3535Y-2.8547
X2.3535Y-2.9547
X2.3535Y-3.0547
X2.3535Y-3.1547
X2.3535Y-3.2547
X2.3535Y-3.3547
X2.3535Y-3.4547
X2.3535Y-3.5547
X2.3535Y-3.6547
X2.3535Y-3.7547
X2.3535Y-3.8547
X2.3535Y-3.9547
X2.3535Y-4.0547
X2.3535Y-4.1547
X2.3535Y-4.2547
X2.3535Y-4.3547
X2.3535Y-4.4547
X2.3535Y-4.5547
X2.3535Y-4.6547
X2.3535Y-4.7547
X2.3535Y-4.8547
X2.4535Y-1.6547
X2.4535Y-1.7547
X2.4535Y-1.8547
X2.4535Y-1.9547
X2.4535Y-2.0547
X2.4535Y-2.1547
X2.4535Y-2.2547
X2.4535Y-2.3547
X2.4535Y-2.4547
X2.4535Y-2.5547
X2.4535Y-2.6547
X2.4535Y-2.7547
X2.4535Y-2.8547
X2.4535Y-2.9547
X2.4535Y-3.0547
X2.4535Y-3.1547
X2.4535Y-3.2547
X2.4535Y-3.3547
X2.4535Y-3.4547
X2.4535Y-3.5547
X2.4535Y-3.6547
X2.4535Y-3.7547
X2.4535Y-3.8547
X2.4535Y-3.9547
X2.4535Y-4.0547
X2.4535Y-4.1547
X2.4535Y-4.2547
X2.4535Y-4.3547
X2.4535Y-4.4547
X2.4535Y-4.5547
X2.4535Y-4.6547
X2.4535Y-4.7547
X2.4535Y-4.8547
X2.5535Y-1.6547
X2.5535Y-1.7547
X2.5535Y-1.8547
X2.5535Y-1.9547
X2.5535Y-2.0547
X2.5535Y-2.1547
X2.5535Y-2.2547
X2.5535Y-2.3547
X2.5535Y-2.4547
X2.5535Y-2.5547
X2.5535Y-2.6547
X2.5535Y-2.7547
X2.5535Y-2.8547
X2.5535Y-2.9547
X2.5535Y-3.0547
X2.5535Y-3.1547
X2.5535Y-3.2547
X2.5535Y-3.3547
X2.5535Y-3.4547
X2.5535Y-3.5547
X2.5535Y-3.6547
X2.5535Y-3.7547
X2.5535Y-3.8547
X2.5535Y-3.9547
X2.5535Y-4.0547
X2.5535Y-4.1547
X2.5535Y-4.2547
X2.5535Y-4.3547
X2.5535Y-4.4547
X2.5535Y-4.5547
X2.5535Y-4.6547
X2.5535Y-4.7547
X2.5535Y-4.8547
X2.6535Y-1.6547
X2.6535Y-1.7547
X2.6535Y-1.8547
X2.6535Y-1.9547
X2.6535Y-2.0547
X2.6535Y-2.1547
X2.6535Y-2.2547
X2.6535Y-2.3547
X2.6535Y-2.4547
X2.6535Y-2.5547
X2.6535Y-2.6547
X2.6535Y-2.7547
X2.6535Y-2.8547
X2.6535Y-2.9547
X2.6535Y-3.0547
X2.6535Y-3.1547
X2.6535Y-3.2547
X2.6535Y-3.3547
X2.6535Y-3.4547
X2.6535Y-3.5547
X2.6535Y-3.6547
X2.6535Y-3.7547
X2.6535Y-3.8547
X2.6535Y-3.9547
X2.6535Y-4.0547
X2.6535Y-4.1547
X2.6535Y-4.2547
X2.6535Y-4.3547
X2.6535Y-4.4547
X2.6535Y-4.5547
X2.6535Y-4.6547
X2.6535Y-4.7547
X2.6535Y-4.8547
X2.7535Y-1.6547
X2.7535Y-1.7547
X2.7535Y-1.8547
X2.7535Y-1.9547
X2.7535Y-2.0547
X2.7535Y-2.1547
X2.7535Y-2.2547
X2.7535Y-2.3547
X2.7535Y-2.4547
X2.7535Y-2.5547
X2.7535Y-2.6547
X2.7535Y-2.7547
X2.7535Y-2.8547
X2.7535Y-2.9547
X2.7535Y-3.0547
X2.7535Y-3.1547
X2.7535Y-3.2547
X2.7535Y-3.3547
X2.7535Y-3.4547
X2.7535Y-3.5547
X2.7535Y-3.6547
X2.7535Y-3.7547
X2.7535Y-3.8547
X2.7535Y-3.9547
X2.7535Y-4.0547
X2.7535Y-4.1547
X2.7535Y-4.2547
X2.7535Y-4.3547
X2.7535Y-4.4547
X2.7535Y-4.5547
X2.7535Y-4.6547
X2.7535Y-4.7547
X2.7535Y-4.8547
X2.8535Y-1.6547
X2.8535Y-1.7547
X2.8535Y-1.8547
X2.8535Y-1.9547
X2.8535Y-2.0547
X2.8535Y-2.1547
X2.8535Y-2.2547
X2.8535Y-2.3547
X2.8535Y-2.4547
X2.8535Y-2.5547
X2.8535Y-2.6547
X2.8535Y-2.7547
X2.8535Y-2.8547
X2.8535Y-2.9547
X2.8535Y-3.0547
X2.8535Y-3.1547
X2.8535Y-3.2547
X2.8535Y-3.3547
X2.8535Y-3.4547
X2.8535Y-3.5547
X2.8535Y-3.6547
X2.8535Y-3.7547
X2.8535Y-3.8547
X2.8535Y-3.9547
X2.8535Y-4.0547
X2.8535Y-4.1547
X2.8535Y-4.2547
X2.8535Y-4.3547
X2.8535Y-4.4547
X2.8535Y-4.5547
X2.8535Y-4.6547
X2.8535Y-4.7547
X2.8535Y-4.8547
X2.9535Y-1.6547
X2.9535Y-1.7547
X2.9535Y-1.8547
X2.9535Y-1.9547
X2.9535Y-2.0547
X2.9535Y-2.1547
X2.9535Y-2.2547
X2.9535Y-2.3547
X2.9535Y-2.4547
X2.9535Y-2.5547
X2.9535Y-2.6547
X2.9535Y-2.7547
X2.9535Y-2.8547
X2.9535Y-2.9547
X2.9535Y-3.0547
X2.9535Y-3.1547
X2.9535Y-3.2547
X2.9535Y-3.3547
X2.9535Y-3.4547
X2.9535Y-3.5547
X2.9535Y-3.6547
X2.9535Y-3.7547
X2.9535Y-3.8547
X2.9535Y-3.9547
X2.9535Y-4.0547
X2.9535Y-4.1547
X2.9535Y-4.2547
X2.9535Y-4.3547
X2.9535Y-4.4547
X2.9535Y-4.5547
X2.9535Y-4.6547
X2.9535Y-4.7547
X2.9535Y-4.8547
X3.0535Y-1.6547
X3.0535Y-1.7547
X3.0535Y-1.8547
X3.0535Y-1.9547
X3.0535Y-2.0547
X3.0535Y-2.1547
X3.0535Y-2.2547
X3.0535Y-2.3547
X3.0535Y-2.4547
X3.0535Y-2.5547
X3.0535Y-2.6547
X3.0535Y-2.7547
X3.0535Y-2.8547
X3.0535Y-2.9547
X3.0535Y-3.0547
X3.0535Y-3.1547
X3.0535Y-3.2547
X3.0535Y-3.3547
X3.0535Y-3.4547
X3.0535Y-3.5547
X3.0535Y-3.6547
X3.0535Y-3.7547
X3.0535Y-3.8547
X3.0535Y-3.9547
X3.0535Y-4.0547
X3.0535Y-4.1547
X3.0535Y-4.2547
X3.0535Y-4.3547
X3.0535Y-4.4547
X3.0535Y-4.5547
X3.0535Y-4.6547
X3.0535Y-4.7547
X3.0535Y-4.8547
X3.1535Y-1.6547
X3.1535Y-1.7547
X3.1535Y-1.8547
X3.1535Y-1.9547
X3.1535Y-2.0547
X3.1535Y-2.1547
X3.1535Y-2.2547
X3.1535Y-2.3547
X3.1535Y-2.4547
X3.1535Y-2.5547
X3.1535Y-2.6547
X3.1535Y-2.7547
X3.1535Y-2.8547
X3.1535Y-2.9547
X3.1535Y-3.0547
X3.1535Y-3.1547
X3.1535Y-3.2547
X3.1535Y-3.3547
X3.1535Y-3.4547
X3.1535Y-3.5547
X3.1535Y-3.6547
X3.1535Y-3.7547
X3.1535Y-3.8547
X3.1535Y-3.9547
X3.1535Y-4.0547
X3.1535Y-4.1547
X3.1535Y-4.2547
X3.1535Y-4.3547
X3.1535Y-4.4547
X3.1535Y-4.5547
X3.1535Y-4.6547
X3.1535Y-4.7547
X3.1535Y-4.8547
X3.2535Y-1.6547
X3.2535Y-1.7547
X3.2535Y-1.8547
X3.2535Y-1.9547
X3.2535Y-2.0547
X3.2535Y-2.1547
X3.2535Y-2.2547
X3.2535Y-2.3547
X3.2535Y-2.4547
X3.2535Y-2.5547
X3.2535Y-2.6547
X3.2535Y-2.7547
X3.2535Y-2.8547
X3.2535Y-2.9547
X3.2535Y-3.0547
X3.2535Y-3.1547
X3.2535Y-3.2547
X3.2535Y-3.3547
X3.2535Y-3.4547
X3.2535Y-3.5547
X3.2535Y-3.6547
X3.2535Y-3.7547
X3.2535Y-3.8547
X3.2535Y-3.9547
X3.2535Y-4.0547
X3.2535Y-4.1547
X3.2535Y-4.2547
X3.2535Y-4.3547
X3.2535Y-4.4547
X3.2535Y-4.5547
X3.2535Y-4.6547
X3.2535Y-4.7547
X3.2535Y-4.8547
X3.3535Y-1.6547
X3.3535Y-1.7547
X3.3535Y-1.8547
X3.3535Y-1.9547
X3.3535Y-2.0547
X3.3535Y-2.1547
X3.3535Y-2.2547
X3.3535Y-2.3547
X3.3535Y-2.4547
X3.3535Y-2.5547
X3.3535Y-2.6547
X3.3535Y-2.7547
X3.3535Y-2.8547
X3.3535Y-2.9547
X3.3535Y-3.0547
X3.3535Y-3.1547
X3.3535Y-3.2547
X3.3535Y-3.3547
X3.3535Y-3.4547
X3.3535Y-3.5547
X3.3535Y-3.6547
X3.3535Y-3.7547
X3.3535Y-3.8547
X3.3535Y-3.9547
X3.3535Y-4.0547
X3.3535Y-4.1547
X3.3535Y-4.2547
X3.3535Y-4.3547
X3.3535Y-4.4547
X3.3535Y-4.5547
X3.3535Y-4.6547
X3.3535Y-4.7547
X3.3535Y-4.8547
X3.4535Y-1.6547
X3.4535Y-1.7547
X3.4535Y-1.8547
X3.4535Y-1.9547
X3.4535Y-2.0547
X3.4535Y-2.1547
X3.4535Y-2.2547
X3.4535Y-2.3547
X3.4535Y-2.4547
X3.4535Y-2.5547
X3.4535Y-2.6547
X3.4535Y-2.7547
X3.4535Y-2.8547
X3.4535Y-2.9547
X3.4535Y-3.0547
X3.4535Y-3.1547
X3.4535Y-3.2547
X3.4535Y-3.3547
X3.4535Y-3.4547
X3.4535Y-3.5547
X3.4535Y-3.6547
X3.4535Y-3.7547
X3.4535Y-3.8547
X3.4535Y-3.9547
X3.4535Y-4.0547
X3.4535Y-4.1547
X3.4535Y-4.2547
X3.4535Y-4.3547
X3.4535Y-4.4547
X3.4535Y-4.5547
X3.4535Y-4.6547
X3.4535Y-4.7547
X3.4535Y-4.8547
X3.5535Y-1.6547
X3.5535Y-1.7547
X3.5535Y-1.8547
X3.5535Y-1.9547
X3.5535Y-2.0547
X3.5535Y-2.1547
X3.5535Y-2.2547
X3.5535Y-2.3547
X3.5535Y-2.4547
X3.5535Y-2.5547
X3.5535Y-2.6547
X3.5535Y-2.7547
X3.5535Y-2.8547
X3.5535Y-2.9547
X3.5535Y-3.0547
X3.5535Y-3.1547
X3.5535Y-3.2547
X3.5535Y-3.3547
X3.5535Y-3.4547
X3.5535Y-3.5547
X3.5535Y-3.6547
X3.5535Y-3.7547
X3.5535Y-3.8547
X3.5535Y-3.9547
X3.5535Y-4.0547
X3.5535Y-4.1547
X3.5535Y-4.2547
X3.5535Y-4.3547
X3.5535Y-4.4547
X3.5535Y-4.5547
X3.5535Y-4.6547
X3.5535Y-4.7547
X3.5535Y-4.8547
X3.6535Y-1.6547
X3.6535Y-1.7547
X3.6535Y-1.8547
X3.6535Y-1.9547
X3.6535Y-2.0547
X3.6535Y-2.1547
X3.6535Y-2.2547
X3.6535Y-2.3547
X3.6535Y-2.4547
X3.6535Y-2.5547
X3.6535Y-2.6547
X3.6535Y-2.7547
X3.6535Y-2.8547
X3.6535Y-2.9547
X3.6535Y-3.0547
X3.6535Y-3.1547
X3.6535Y-3.2547
X3.6535Y-3.3547
X3.6535Y-3.4547
X3.6535Y-3.5547
X3.6535Y-3.6547
X3.6535Y-3.7547
X3.6535Y-3.8547
X3.6535Y-3.9547
X3.6535Y-4.0547
X3.6535Y-4.1547
X3.6535Y-4.2547
X3.6535Y-4.3547
X3.6535Y-4.4547
X3.6535Y-4.5547
X3.6535Y-4.6547
X3.6535Y-4.7547
X3.6535Y-4.8547
X3.7535Y-1.6547
X3.7535Y-1.7547
X3.7535Y-1.8547
X3.7535Y-1.9547
X3.7535Y-2.0547
X3.7535Y-2.1547
X3.7535Y-2.2547
X3.7535Y-2.3547
X3.7535Y-2.4547
X3.7535Y-2.5547
X3.7535Y-2.6547
X3.7535Y-2.7547
X3.7535Y-2.8547
X3.7535Y-2.9547
X3.7535Y-3.0547
X3.7535Y-3.1547
X3.7535Y-3.2547
X3.7535Y-3.3547
X3.7535Y-3.4547
X3.7535Y-3.5547
X3.7535Y-3.6547
X3.7535Y-3.7547
X3.7535Y-3.8547
X3.7535Y-3.9547
X3.7535Y-4.0547
X3.7535Y-4.1547
X3.7535Y-4.2547
X3.7535Y-4.3547
X3.7535Y-4.4547
X3.7535Y-4.5547
X3.7535Y-4.6547
X3.7535Y-4.7547
X3.7535Y-4.8547
T0
M30
