%TF.GenerationSoftware,KiCad,Pcbnew,(6.0.8-1)-1*%
%TF.CreationDate,2023-02-02T10:16:17-05:00*%
%TF.ProjectId,protopcb,70726f74-6f70-4636-922e-6b696361645f,rev?*%
%TF.SameCoordinates,Original*%
%TF.FileFunction,Copper,L1,Top*%
%TF.FilePolarity,Positive*%
%FSLAX46Y46*%
G04 Gerber Fmt 4.6, Leading zero omitted, Abs format (unit mm)*
G04 Created by KiCad (PCBNEW (6.0.8-1)-1) date 2023-02-02 10:16:17*
%MOMM*%
%LPD*%
G01*
G04 APERTURE LIST*
%TA.AperFunction,ComponentPad*%
%ADD10R,1.700000X1.700000*%
%TD*%
%TA.AperFunction,ComponentPad*%
%ADD11O,1.700000X1.700000*%
%TD*%
%TA.AperFunction,ComponentPad*%
%ADD12C,1.700000*%
%TD*%
%TA.AperFunction,ComponentPad*%
%ADD13O,1.727200X1.727200*%
%TD*%
%TA.AperFunction,ComponentPad*%
%ADD14R,1.727200X1.727200*%
%TD*%
%TA.AperFunction,Conductor*%
%ADD15C,0.500000*%
%TD*%
G04 APERTURE END LIST*
D10*
%TO.P,REF\u002A\u002A,1*%
%TO.N,N/C*%
X48500000Y-128975000D03*
D11*
%TO.P,REF\u002A\u002A,2*%
X51040000Y-128975000D03*
%TO.P,REF\u002A\u002A,3*%
X53580000Y-128975000D03*
%TO.P,REF\u002A\u002A,4*%
X56120000Y-128975000D03*
%TO.P,REF\u002A\u002A,5*%
X58660000Y-128975000D03*
%TO.P,REF\u002A\u002A,6*%
X61200000Y-128975000D03*
%TO.P,REF\u002A\u002A,7*%
X63740000Y-128975000D03*
%TO.P,REF\u002A\u002A,8*%
X66280000Y-128975000D03*
%TO.P,REF\u002A\u002A,9*%
X68820000Y-128975000D03*
%TO.P,REF\u002A\u002A,10*%
X71360000Y-128975000D03*
%TO.P,REF\u002A\u002A,11*%
X73900000Y-128975000D03*
%TO.P,REF\u002A\u002A,12*%
X76440000Y-128975000D03*
%TO.P,REF\u002A\u002A,13*%
X78980000Y-128975000D03*
%TO.P,REF\u002A\u002A,14*%
X81520000Y-128975000D03*
%TD*%
D10*
%TO.P,REF\u002A\u002A,1*%
%TO.N,N/C*%
X47000000Y-33000000D03*
D11*
%TO.P,REF\u002A\u002A,2*%
X49540000Y-33000000D03*
%TO.P,REF\u002A\u002A,3*%
X52080000Y-33000000D03*
%TO.P,REF\u002A\u002A,4*%
X54620000Y-33000000D03*
%TO.P,REF\u002A\u002A,5*%
X57160000Y-33000000D03*
%TO.P,REF\u002A\u002A,6*%
X59700000Y-33000000D03*
%TO.P,REF\u002A\u002A,7*%
X62240000Y-33000000D03*
%TO.P,REF\u002A\u002A,8*%
X64780000Y-33000000D03*
%TO.P,REF\u002A\u002A,9*%
X67320000Y-33000000D03*
%TO.P,REF\u002A\u002A,10*%
X69860000Y-33000000D03*
%TO.P,REF\u002A\u002A,11*%
X72400000Y-33000000D03*
%TO.P,REF\u002A\u002A,12*%
X74940000Y-33000000D03*
%TO.P,REF\u002A\u002A,13*%
X77480000Y-33000000D03*
%TO.P,REF\u002A\u002A,14*%
X80020000Y-33000000D03*
%TD*%
D12*
%TO.P,REF\u002A\u002A566,*%
%TO.N,*%
X87720000Y-77590000D03*
%TD*%
%TO.P,REF\u002A\u002A624,*%
%TO.N,*%
X72480000Y-97910000D03*
%TD*%
%TO.P,REF\u002A\u002A112,*%
%TO.N,*%
X47080000Y-49650000D03*
%TD*%
%TO.P,REF\u002A\u002A374,*%
%TO.N,*%
X67400000Y-54730000D03*
%TD*%
%TO.P,REF\u002A\u002A813,*%
%TO.N,*%
X39460000Y-54730000D03*
%TD*%
%TO.P,REF\u002A\u002A94,*%
%TO.N,*%
X62320000Y-42030000D03*
%TD*%
%TO.P,REF\u002A\u002A586,*%
%TO.N,*%
X77560000Y-85210000D03*
%TD*%
%TO.P,REF\u002A\u002A603,*%
%TO.N,*%
X80100000Y-90290000D03*
%TD*%
%TO.P,REF\u002A\u002A597,*%
%TO.N,*%
X85180000Y-87750000D03*
%TD*%
%TO.P,REF\u002A\u002A54,*%
%TO.N,*%
X42000000Y-105530000D03*
%TD*%
%TO.P,REF\u002A\u002A404,*%
%TO.N,*%
X67400000Y-92830000D03*
%TD*%
%TO.P,REF\u002A\u002A874,*%
%TO.N,*%
X36920000Y-105530000D03*
%TD*%
%TO.P,REF\u002A\u002A247,*%
%TO.N,*%
X64860000Y-90290000D03*
%TD*%
%TO.P,REF\u002A\u002A470,*%
%TO.N,*%
X87720000Y-47110000D03*
%TD*%
%TO.P,REF\u002A\u002A348,*%
%TO.N,*%
X57240000Y-123310000D03*
%TD*%
%TO.P,REF\u002A\u002A393,*%
%TO.N,*%
X69940000Y-77590000D03*
%TD*%
%TO.P,REF\u002A\u002A479,*%
%TO.N,*%
X90260000Y-49650000D03*
%TD*%
%TO.P,REF\u002A\u002A129,*%
%TO.N,*%
X49620000Y-54730000D03*
%TD*%
%TO.P,REF\u002A\u002A692,*%
%TO.N,*%
X82640000Y-118230000D03*
%TD*%
%TO.P,REF\u002A\u002A7,*%
%TO.N,*%
X44540000Y-44570000D03*
%TD*%
%TO.P,REF\u002A\u002A852,*%
%TO.N,*%
X39460000Y-87750000D03*
%TD*%
%TO.P,REF\u002A\u002A755,*%
%TO.N,*%
X95340000Y-80130000D03*
%TD*%
%TO.P,REF\u002A\u002A290,*%
%TO.N,*%
X52160000Y-105530000D03*
%TD*%
%TO.P,REF\u002A\u002A221,*%
%TO.N,*%
X59780000Y-82670000D03*
%TD*%
%TO.P,REF\u002A\u002A340,*%
%TO.N,*%
X57240000Y-120770000D03*
%TD*%
%TO.P,REF\u002A\u002A22,*%
%TO.N,*%
X42000000Y-64890000D03*
%TD*%
%TO.P,REF\u002A\u002A146,*%
%TO.N,*%
X52160000Y-59810000D03*
%TD*%
%TO.P,REF\u002A\u002A103,*%
%TO.N,*%
X64860000Y-44570000D03*
%TD*%
%TO.P,REF\u002A\u002A256,*%
%TO.N,*%
X47080000Y-95370000D03*
%TD*%
%TO.P,REF\u002A\u002A872,*%
%TO.N,*%
X34380000Y-102990000D03*
%TD*%
%TO.P,REF\u002A\u002A672,*%
%TO.N,*%
X72480000Y-113150000D03*
%TD*%
%TO.P,REF\u002A\u002A826,*%
%TO.N,*%
X36920000Y-64890000D03*
%TD*%
%TO.P,REF\u002A\u002A625,*%
%TO.N,*%
X75020000Y-97910000D03*
%TD*%
%TO.P,REF\u002A\u002A600,*%
%TO.N,*%
X72480000Y-90290000D03*
%TD*%
%TO.P,REF\u002A\u002A843,*%
%TO.N,*%
X39460000Y-80130000D03*
%TD*%
%TO.P,REF\u002A\u002A132,*%
%TO.N,*%
X57240000Y-54730000D03*
%TD*%
%TO.P,REF\u002A\u002A151,*%
%TO.N,*%
X64860000Y-59810000D03*
%TD*%
%TO.P,REF\u002A\u002A664,*%
%TO.N,*%
X72480000Y-110610000D03*
%TD*%
%TO.P,REF\u002A\u002A724,*%
%TO.N,*%
X92800000Y-42030000D03*
%TD*%
%TO.P,REF\u002A\u002A840,*%
%TO.N,*%
X39460000Y-77590000D03*
%TD*%
%TO.P,REF\u002A\u002A613,*%
%TO.N,*%
X85180000Y-92830000D03*
%TD*%
%TO.P,REF\u002A\u002A815,*%
%TO.N,*%
X34380000Y-54730000D03*
%TD*%
%TO.P,REF\u002A\u002A427,*%
%TO.N,*%
X69940000Y-120770000D03*
%TD*%
%TO.P,REF\u002A\u002A499,*%
%TO.N,*%
X80100000Y-57270000D03*
%TD*%
%TO.P,REF\u002A\u002A253,*%
%TO.N,*%
X59780000Y-92830000D03*
%TD*%
%TO.P,REF\u002A\u002A315,*%
%TO.N,*%
X54700000Y-113150000D03*
%TD*%
%TO.P,REF\u002A\u002A509,*%
%TO.N,*%
X85180000Y-59810000D03*
%TD*%
%TO.P,REF\u002A\u002A810,*%
%TO.N,*%
X39460000Y-52190000D03*
%TD*%
%TO.P,REF\u002A\u002A91,*%
%TO.N,*%
X54700000Y-42030000D03*
%TD*%
%TO.P,REF\u002A\u002A809,*%
%TO.N,*%
X34380000Y-49650000D03*
%TD*%
%TO.P,REF\u002A\u002A156,*%
%TO.N,*%
X57240000Y-62350000D03*
%TD*%
%TO.P,REF\u002A\u002A35,*%
%TO.N,*%
X44540000Y-80130000D03*
%TD*%
%TO.P,REF\u002A\u002A730,*%
%TO.N,*%
X92800000Y-49650000D03*
%TD*%
%TO.P,REF\u002A\u002A514,*%
%TO.N,*%
X77560000Y-62350000D03*
%TD*%
%TO.P,REF\u002A\u002A411,*%
%TO.N,*%
X69940000Y-100450000D03*
%TD*%
%TO.P,REF\u002A\u002A49,*%
%TO.N,*%
X44540000Y-97910000D03*
%TD*%
%TO.P,REF\u002A\u002A425,*%
%TO.N,*%
X69940000Y-118230000D03*
%TD*%
%TO.P,REF\u002A\u002A473,*%
%TO.N,*%
X75020000Y-49650000D03*
%TD*%
%TO.P,REF\u002A\u002A847,*%
%TO.N,*%
X36920000Y-82670000D03*
%TD*%
%TO.P,REF\u002A\u002A650,*%
%TO.N,*%
X77560000Y-105530000D03*
%TD*%
%TO.P,REF\u002A\u002A131,*%
%TO.N,*%
X54700000Y-54730000D03*
%TD*%
%TO.P,REF\u002A\u002A124,*%
%TO.N,*%
X57240000Y-52190000D03*
%TD*%
%TO.P,REF\u002A\u002A846,*%
%TO.N,*%
X39460000Y-82670000D03*
%TD*%
%TO.P,REF\u002A\u002A816,*%
%TO.N,*%
X39460000Y-57270000D03*
%TD*%
%TO.P,REF\u002A\u002A832,*%
%TO.N,*%
X36920000Y-69970000D03*
%TD*%
%TO.P,REF\u002A\u002A656,*%
%TO.N,*%
X72480000Y-108070000D03*
%TD*%
%TO.P,REF\u002A\u002A5,*%
%TO.N,*%
X44540000Y-42030000D03*
%TD*%
%TO.P,REF\u002A\u002A576,*%
%TO.N,*%
X72480000Y-82670000D03*
%TD*%
%TO.P,REF\u002A\u002A341,*%
%TO.N,*%
X59780000Y-120770000D03*
%TD*%
%TO.P,REF\u002A\u002A136,*%
%TO.N,*%
X47080000Y-57270000D03*
%TD*%
%TO.P,REF\u002A\u002A488,*%
%TO.N,*%
X72480000Y-54730000D03*
%TD*%
%TO.P,REF\u002A\u002A119,*%
%TO.N,*%
X64860000Y-49650000D03*
%TD*%
%TO.P,REF\u002A\u002A465,*%
%TO.N,*%
X75020000Y-47110000D03*
%TD*%
%TO.P,REF\u002A\u002A396,*%
%TO.N,*%
X67400000Y-82670000D03*
%TD*%
%TO.P,REF\u002A\u002A116,*%
%TO.N,*%
X57240000Y-49650000D03*
%TD*%
%TO.P,REF\u002A\u002A334,*%
%TO.N,*%
X62320000Y-118230000D03*
%TD*%
%TO.P,REF\u002A\u002A263,*%
%TO.N,*%
X64860000Y-95370000D03*
%TD*%
%TO.P,REF\u002A\u002A240,*%
%TO.N,*%
X47080000Y-90290000D03*
%TD*%
%TO.P,REF\u002A\u002A674,*%
%TO.N,*%
X77560000Y-113150000D03*
%TD*%
%TO.P,REF\u002A\u002A428,*%
%TO.N,*%
X67400000Y-123310000D03*
%TD*%
%TO.P,REF\u002A\u002A323,*%
%TO.N,*%
X54700000Y-115690000D03*
%TD*%
%TO.P,REF\u002A\u002A410,*%
%TO.N,*%
X67400000Y-100450000D03*
%TD*%
%TO.P,REF\u002A\u002A571,*%
%TO.N,*%
X80100000Y-80130000D03*
%TD*%
%TO.P,REF\u002A\u002A43,*%
%TO.N,*%
X44540000Y-90290000D03*
%TD*%
%TO.P,REF\u002A\u002A420,*%
%TO.N,*%
X67400000Y-113150000D03*
%TD*%
%TO.P,REF\u002A\u002A610,*%
%TO.N,*%
X77560000Y-92830000D03*
%TD*%
%TO.P,REF\u002A\u002A58,*%
%TO.N,*%
X42000000Y-110610000D03*
%TD*%
%TO.P,REF\u002A\u002A314,*%
%TO.N,*%
X52160000Y-113150000D03*
%TD*%
%TO.P,REF\u002A\u002A825,*%
%TO.N,*%
X39460000Y-64890000D03*
%TD*%
%TO.P,REF\u002A\u002A351,*%
%TO.N,*%
X64860000Y-123310000D03*
%TD*%
%TO.P,REF\u002A\u002A848,*%
%TO.N,*%
X34380000Y-82670000D03*
%TD*%
%TO.P,REF\u002A\u002A342,*%
%TO.N,*%
X62320000Y-120770000D03*
%TD*%
%TO.P,REF\u002A\u002A38,*%
%TO.N,*%
X42000000Y-85210000D03*
%TD*%
%TO.P,REF\u002A\u002A413,*%
%TO.N,*%
X69940000Y-102990000D03*
%TD*%
%TO.P,REF\u002A\u002A701,*%
%TO.N,*%
X85180000Y-120770000D03*
%TD*%
%TO.P,REF\u002A\u002A828,*%
%TO.N,*%
X39460000Y-67430000D03*
%TD*%
%TO.P,REF\u002A\u002A37,*%
%TO.N,*%
X44540000Y-82670000D03*
%TD*%
%TO.P,REF\u002A\u002A423,*%
%TO.N,*%
X69940000Y-115690000D03*
%TD*%
%TO.P,REF\u002A\u002A655,*%
%TO.N,*%
X90260000Y-105530000D03*
%TD*%
%TO.P,REF\u002A\u002A333,*%
%TO.N,*%
X59780000Y-118230000D03*
%TD*%
%TO.P,REF\u002A\u002A881,*%
%TO.N,*%
X34380000Y-110610000D03*
%TD*%
%TO.P,REF\u002A\u002A254,*%
%TO.N,*%
X62320000Y-92830000D03*
%TD*%
%TO.P,REF\u002A\u002A618,*%
%TO.N,*%
X77560000Y-95370000D03*
%TD*%
%TO.P,REF\u002A\u002A642,*%
%TO.N,*%
X77560000Y-102990000D03*
%TD*%
%TO.P,REF\u002A\u002A99,*%
%TO.N,*%
X54700000Y-44570000D03*
%TD*%
%TO.P,REF\u002A\u002A760,*%
%TO.N,*%
X92800000Y-87750000D03*
%TD*%
%TO.P,REF\u002A\u002A400,*%
%TO.N,*%
X67400000Y-87750000D03*
%TD*%
%TO.P,REF\u002A\u002A65,*%
%TO.N,*%
X44540000Y-118230000D03*
%TD*%
%TO.P,REF\u002A\u002A658,*%
%TO.N,*%
X77560000Y-108070000D03*
%TD*%
%TO.P,REF\u002A\u002A740,*%
%TO.N,*%
X92800000Y-62350000D03*
%TD*%
%TO.P,REF\u002A\u002A369,*%
%TO.N,*%
X69940000Y-47110000D03*
%TD*%
%TO.P,REF\u002A\u002A648,*%
%TO.N,*%
X72480000Y-105530000D03*
%TD*%
%TO.P,REF\u002A\u002A882,*%
%TO.N,*%
X39460000Y-113150000D03*
%TD*%
%TO.P,REF\u002A\u002A827,*%
%TO.N,*%
X34380000Y-64890000D03*
%TD*%
%TO.P,REF\u002A\u002A311,*%
%TO.N,*%
X64860000Y-110610000D03*
%TD*%
%TO.P,REF\u002A\u002A391,*%
%TO.N,*%
X69940000Y-75050000D03*
%TD*%
%TO.P,REF\u002A\u002A398,*%
%TO.N,*%
X67400000Y-85210000D03*
%TD*%
%TO.P,REF\u002A\u002A335,*%
%TO.N,*%
X64860000Y-118230000D03*
%TD*%
%TO.P,REF\u002A\u002A876,*%
%TO.N,*%
X39460000Y-108070000D03*
%TD*%
%TO.P,REF\u002A\u002A679,*%
%TO.N,*%
X90260000Y-113150000D03*
%TD*%
%TO.P,REF\u002A\u002A246,*%
%TO.N,*%
X62320000Y-90290000D03*
%TD*%
%TO.P,REF\u002A\u002A612,*%
%TO.N,*%
X82640000Y-92830000D03*
%TD*%
%TO.P,REF\u002A\u002A274,*%
%TO.N,*%
X52160000Y-100450000D03*
%TD*%
%TO.P,REF\u002A\u002A764,*%
%TO.N,*%
X92800000Y-92830000D03*
%TD*%
%TO.P,REF\u002A\u002A261,*%
%TO.N,*%
X59780000Y-95370000D03*
%TD*%
%TO.P,REF\u002A\u002A812,*%
%TO.N,*%
X34380000Y-52190000D03*
%TD*%
%TO.P,REF\u002A\u002A457,*%
%TO.N,*%
X75020000Y-44570000D03*
%TD*%
%TO.P,REF\u002A\u002A276,*%
%TO.N,*%
X57240000Y-100450000D03*
%TD*%
%TO.P,REF\u002A\u002A330,*%
%TO.N,*%
X52160000Y-118230000D03*
%TD*%
%TO.P,REF\u002A\u002A46,*%
%TO.N,*%
X42000000Y-95370000D03*
%TD*%
%TO.P,REF\u002A\u002A676,*%
%TO.N,*%
X82640000Y-113150000D03*
%TD*%
%TO.P,REF\u002A\u002A223,*%
%TO.N,*%
X64860000Y-82670000D03*
%TD*%
%TO.P,REF\u002A\u002A546,*%
%TO.N,*%
X77560000Y-72510000D03*
%TD*%
%TO.P,REF\u002A\u002A781,*%
%TO.N,*%
X95340000Y-113150000D03*
%TD*%
%TO.P,REF\u002A\u002A111,*%
%TO.N,*%
X64860000Y-47110000D03*
%TD*%
%TO.P,REF\u002A\u002A468,*%
%TO.N,*%
X82640000Y-47110000D03*
%TD*%
%TO.P,REF\u002A\u002A388,*%
%TO.N,*%
X67400000Y-72510000D03*
%TD*%
%TO.P,REF\u002A\u002A628,*%
%TO.N,*%
X82640000Y-97910000D03*
%TD*%
%TO.P,REF\u002A\u002A225,*%
%TO.N,*%
X49620000Y-85210000D03*
%TD*%
%TO.P,REF\u002A\u002A634,*%
%TO.N,*%
X77560000Y-100450000D03*
%TD*%
%TO.P,REF\u002A\u002A380,*%
%TO.N,*%
X67400000Y-62350000D03*
%TD*%
%TO.P,REF\u002A\u002A209,*%
%TO.N,*%
X49620000Y-80130000D03*
%TD*%
%TO.P,REF\u002A\u002A523,*%
%TO.N,*%
X80100000Y-64890000D03*
%TD*%
%TO.P,REF\u002A\u002A532,*%
%TO.N,*%
X82640000Y-67430000D03*
%TD*%
%TO.P,REF\u002A\u002A638,*%
%TO.N,*%
X87720000Y-100450000D03*
%TD*%
%TO.P,REF\u002A\u002A619,*%
%TO.N,*%
X80100000Y-95370000D03*
%TD*%
%TO.P,REF\u002A\u002A419,*%
%TO.N,*%
X69940000Y-110610000D03*
%TD*%
%TO.P,REF\u002A\u002A892,*%
%TO.N,*%
X36920000Y-120770000D03*
%TD*%
%TO.P,REF\u002A\u002A33,*%
%TO.N,*%
X44540000Y-77590000D03*
%TD*%
%TO.P,REF\u002A\u002A841,*%
%TO.N,*%
X36920000Y-77590000D03*
%TD*%
%TO.P,REF\u002A\u002A224,*%
%TO.N,*%
X47080000Y-85210000D03*
%TD*%
%TO.P,REF\u002A\u002A205,*%
%TO.N,*%
X59780000Y-77590000D03*
%TD*%
%TO.P,REF\u002A\u002A459,*%
%TO.N,*%
X80100000Y-44570000D03*
%TD*%
%TO.P,REF\u002A\u002A787,*%
%TO.N,*%
X95340000Y-120770000D03*
%TD*%
%TO.P,REF\u002A\u002A252,*%
%TO.N,*%
X57240000Y-92830000D03*
%TD*%
%TO.P,REF\u002A\u002A170,*%
%TO.N,*%
X52160000Y-67430000D03*
%TD*%
%TO.P,REF\u002A\u002A220,*%
%TO.N,*%
X57240000Y-82670000D03*
%TD*%
%TO.P,REF\u002A\u002A498,*%
%TO.N,*%
X77560000Y-57270000D03*
%TD*%
%TO.P,REF\u002A\u002A703,*%
%TO.N,*%
X90260000Y-120770000D03*
%TD*%
%TO.P,REF\u002A\u002A390,*%
%TO.N,*%
X67400000Y-75050000D03*
%TD*%
%TO.P,REF\u002A\u002A14,*%
%TO.N,*%
X42000000Y-54730000D03*
%TD*%
%TO.P,REF\u002A\u002A896,*%
%TO.N,*%
X34380000Y-123310000D03*
%TD*%
%TO.P,REF\u002A\u002A822,*%
%TO.N,*%
X39460000Y-62350000D03*
%TD*%
%TO.P,REF\u002A\u002A867,*%
%TO.N,*%
X39460000Y-100450000D03*
%TD*%
%TO.P,REF\u002A\u002A161,*%
%TO.N,*%
X49620000Y-64890000D03*
%TD*%
%TO.P,REF\u002A\u002A394,*%
%TO.N,*%
X67400000Y-80130000D03*
%TD*%
%TO.P,REF\u002A\u002A200,*%
%TO.N,*%
X47080000Y-77590000D03*
%TD*%
%TO.P,REF\u002A\u002A553,*%
%TO.N,*%
X75020000Y-75050000D03*
%TD*%
%TO.P,REF\u002A\u002A134,*%
%TO.N,*%
X62320000Y-54730000D03*
%TD*%
%TO.P,REF\u002A\u002A347,*%
%TO.N,*%
X54700000Y-123310000D03*
%TD*%
%TO.P,REF\u002A\u002A639,*%
%TO.N,*%
X90260000Y-100450000D03*
%TD*%
%TO.P,REF\u002A\u002A40,*%
%TO.N,*%
X42000000Y-87750000D03*
%TD*%
%TO.P,REF\u002A\u002A680,*%
%TO.N,*%
X72480000Y-115690000D03*
%TD*%
%TO.P,REF\u002A\u002A120,*%
%TO.N,*%
X47080000Y-52190000D03*
%TD*%
%TO.P,REF\u002A\u002A549,*%
%TO.N,*%
X85180000Y-72510000D03*
%TD*%
%TO.P,REF\u002A\u002A168,*%
%TO.N,*%
X47080000Y-67430000D03*
%TD*%
%TO.P,REF\u002A\u002A766,*%
%TO.N,*%
X92800000Y-95370000D03*
%TD*%
%TO.P,REF\u002A\u002A115,*%
%TO.N,*%
X54700000Y-49650000D03*
%TD*%
%TO.P,REF\u002A\u002A267,*%
%TO.N,*%
X54700000Y-97910000D03*
%TD*%
%TO.P,REF\u002A\u002A551,*%
%TO.N,*%
X90260000Y-72510000D03*
%TD*%
%TO.P,REF\u002A\u002A346,*%
%TO.N,*%
X52160000Y-123310000D03*
%TD*%
%TO.P,REF\u002A\u002A749,*%
%TO.N,*%
X95340000Y-72510000D03*
%TD*%
%TO.P,REF\u002A\u002A875,*%
%TO.N,*%
X34380000Y-105530000D03*
%TD*%
%TO.P,REF\u002A\u002A367,*%
%TO.N,*%
X69940000Y-44570000D03*
%TD*%
%TO.P,REF\u002A\u002A871,*%
%TO.N,*%
X36920000Y-102990000D03*
%TD*%
%TO.P,REF\u002A\u002A693,*%
%TO.N,*%
X85180000Y-118230000D03*
%TD*%
%TO.P,REF\u002A\u002A371,*%
%TO.N,*%
X69940000Y-49650000D03*
%TD*%
%TO.P,REF\u002A\u002A56,*%
%TO.N,*%
X42000000Y-108070000D03*
%TD*%
%TO.P,REF\u002A\u002A880,*%
%TO.N,*%
X36920000Y-110610000D03*
%TD*%
%TO.P,REF\u002A\u002A42,*%
%TO.N,*%
X42000000Y-90290000D03*
%TD*%
%TO.P,REF\u002A\u002A109,*%
%TO.N,*%
X59780000Y-47110000D03*
%TD*%
%TO.P,REF\u002A\u002A660,*%
%TO.N,*%
X82640000Y-108070000D03*
%TD*%
%TO.P,REF\u002A\u002A458,*%
%TO.N,*%
X77560000Y-44570000D03*
%TD*%
%TO.P,REF\u002A\u002A684,*%
%TO.N,*%
X82640000Y-115690000D03*
%TD*%
%TO.P,REF\u002A\u002A862,*%
%TO.N,*%
X36920000Y-95370000D03*
%TD*%
%TO.P,REF\u002A\u002A890,*%
%TO.N,*%
X34380000Y-118230000D03*
%TD*%
%TO.P,REF\u002A\u002A678,*%
%TO.N,*%
X87720000Y-113150000D03*
%TD*%
%TO.P,REF\u002A\u002A281,*%
%TO.N,*%
X49620000Y-102990000D03*
%TD*%
%TO.P,REF\u002A\u002A97,*%
%TO.N,*%
X49620000Y-44570000D03*
%TD*%
%TO.P,REF\u002A\u002A166,*%
%TO.N,*%
X62320000Y-64890000D03*
%TD*%
%TO.P,REF\u002A\u002A255,*%
%TO.N,*%
X64860000Y-92830000D03*
%TD*%
%TO.P,REF\u002A\u002A682,*%
%TO.N,*%
X77560000Y-115690000D03*
%TD*%
%TO.P,REF\u002A\u002A102,*%
%TO.N,*%
X62320000Y-44570000D03*
%TD*%
%TO.P,REF\u002A\u002A697,*%
%TO.N,*%
X75020000Y-120770000D03*
%TD*%
%TO.P,REF\u002A\u002A598,*%
%TO.N,*%
X87720000Y-87750000D03*
%TD*%
%TO.P,REF\u002A\u002A744,*%
%TO.N,*%
X92800000Y-67430000D03*
%TD*%
%TO.P,REF\u002A\u002A536,*%
%TO.N,*%
X72480000Y-69970000D03*
%TD*%
%TO.P,REF\u002A\u002A67,*%
%TO.N,*%
X44540000Y-120770000D03*
%TD*%
%TO.P,REF\u002A\u002A510,*%
%TO.N,*%
X87720000Y-59810000D03*
%TD*%
%TO.P,REF\u002A\u002A685,*%
%TO.N,*%
X85180000Y-115690000D03*
%TD*%
%TO.P,REF\u002A\u002A574,*%
%TO.N,*%
X87720000Y-80130000D03*
%TD*%
%TO.P,REF\u002A\u002A630,*%
%TO.N,*%
X87720000Y-97910000D03*
%TD*%
%TO.P,REF\u002A\u002A506,*%
%TO.N,*%
X77560000Y-59810000D03*
%TD*%
%TO.P,REF\u002A\u002A6,*%
%TO.N,*%
X42000000Y-44570000D03*
%TD*%
%TO.P,REF\u002A\u002A609,*%
%TO.N,*%
X75020000Y-92830000D03*
%TD*%
%TO.P,REF\u002A\u002A55,*%
%TO.N,*%
X44540000Y-105530000D03*
%TD*%
%TO.P,REF\u002A\u002A30,*%
%TO.N,*%
X42000000Y-75050000D03*
%TD*%
%TO.P,REF\u002A\u002A519,*%
%TO.N,*%
X90260000Y-62350000D03*
%TD*%
%TO.P,REF\u002A\u002A421,*%
%TO.N,*%
X69940000Y-113150000D03*
%TD*%
%TO.P,REF\u002A\u002A654,*%
%TO.N,*%
X87720000Y-105530000D03*
%TD*%
%TO.P,REF\u002A\u002A741,*%
%TO.N,*%
X95340000Y-62350000D03*
%TD*%
%TO.P,REF\u002A\u002A853,*%
%TO.N,*%
X36920000Y-87750000D03*
%TD*%
%TO.P,REF\u002A\u002A505,*%
%TO.N,*%
X75020000Y-59810000D03*
%TD*%
%TO.P,REF\u002A\u002A125,*%
%TO.N,*%
X59780000Y-52190000D03*
%TD*%
%TO.P,REF\u002A\u002A196,*%
%TO.N,*%
X57240000Y-75050000D03*
%TD*%
%TO.P,REF\u002A\u002A725,*%
%TO.N,*%
X95340000Y-42030000D03*
%TD*%
%TO.P,REF\u002A\u002A302,*%
%TO.N,*%
X62320000Y-108070000D03*
%TD*%
%TO.P,REF\u002A\u002A746,*%
%TO.N,*%
X92800000Y-69970000D03*
%TD*%
%TO.P,REF\u002A\u002A583,*%
%TO.N,*%
X90260000Y-82670000D03*
%TD*%
%TO.P,REF\u002A\u002A326,*%
%TO.N,*%
X62320000Y-115690000D03*
%TD*%
%TO.P,REF\u002A\u002A26,*%
%TO.N,*%
X42000000Y-69970000D03*
%TD*%
%TO.P,REF\u002A\u002A268,*%
%TO.N,*%
X57240000Y-97910000D03*
%TD*%
%TO.P,REF\u002A\u002A833,*%
%TO.N,*%
X34380000Y-69970000D03*
%TD*%
%TO.P,REF\u002A\u002A188,*%
%TO.N,*%
X57240000Y-72510000D03*
%TD*%
%TO.P,REF\u002A\u002A635,*%
%TO.N,*%
X80100000Y-100450000D03*
%TD*%
%TO.P,REF\u002A\u002A561,*%
%TO.N,*%
X75020000Y-77590000D03*
%TD*%
%TO.P,REF\u002A\u002A295,*%
%TO.N,*%
X64860000Y-105530000D03*
%TD*%
%TO.P,REF\u002A\u002A585,*%
%TO.N,*%
X75020000Y-85210000D03*
%TD*%
%TO.P,REF\u002A\u002A325,*%
%TO.N,*%
X59780000Y-115690000D03*
%TD*%
%TO.P,REF\u002A\u002A29,*%
%TO.N,*%
X44540000Y-72510000D03*
%TD*%
%TO.P,REF\u002A\u002A318,*%
%TO.N,*%
X62320000Y-113150000D03*
%TD*%
%TO.P,REF\u002A\u002A462,*%
%TO.N,*%
X87720000Y-44570000D03*
%TD*%
%TO.P,REF\u002A\u002A469,*%
%TO.N,*%
X85180000Y-47110000D03*
%TD*%
%TO.P,REF\u002A\u002A607,*%
%TO.N,*%
X90260000Y-90290000D03*
%TD*%
%TO.P,REF\u002A\u002A736,*%
%TO.N,*%
X92800000Y-57270000D03*
%TD*%
%TO.P,REF\u002A\u002A768,*%
%TO.N,*%
X92800000Y-97910000D03*
%TD*%
%TO.P,REF\u002A\u002A381,*%
%TO.N,*%
X69940000Y-62350000D03*
%TD*%
%TO.P,REF\u002A\u002A272,*%
%TO.N,*%
X47080000Y-100450000D03*
%TD*%
%TO.P,REF\u002A\u002A802,*%
%TO.N,*%
X36920000Y-44570000D03*
%TD*%
%TO.P,REF\u002A\u002A244,*%
%TO.N,*%
X57240000Y-90290000D03*
%TD*%
%TO.P,REF\u002A\u002A548,*%
%TO.N,*%
X82640000Y-72510000D03*
%TD*%
%TO.P,REF\u002A\u002A128,*%
%TO.N,*%
X47080000Y-54730000D03*
%TD*%
%TO.P,REF\u002A\u002A704,*%
%TO.N,*%
X72480000Y-123310000D03*
%TD*%
%TO.P,REF\u002A\u002A799,*%
%TO.N,*%
X36920000Y-42030000D03*
%TD*%
%TO.P,REF\u002A\u002A555,*%
%TO.N,*%
X80100000Y-75050000D03*
%TD*%
%TO.P,REF\u002A\u002A13,*%
%TO.N,*%
X44540000Y-52190000D03*
%TD*%
%TO.P,REF\u002A\u002A854,*%
%TO.N,*%
X34380000Y-87750000D03*
%TD*%
%TO.P,REF\u002A\u002A491,*%
%TO.N,*%
X80100000Y-54730000D03*
%TD*%
%TO.P,REF\u002A\u002A858,*%
%TO.N,*%
X39460000Y-92830000D03*
%TD*%
%TO.P,REF\u002A\u002A241,*%
%TO.N,*%
X49620000Y-90290000D03*
%TD*%
%TO.P,REF\u002A\u002A429,*%
%TO.N,*%
X69940000Y-123310000D03*
%TD*%
%TO.P,REF\u002A\u002A888,*%
%TO.N,*%
X39460000Y-118230000D03*
%TD*%
%TO.P,REF\u002A\u002A729,*%
%TO.N,*%
X95340000Y-47110000D03*
%TD*%
%TO.P,REF\u002A\u002A485,*%
%TO.N,*%
X85180000Y-52190000D03*
%TD*%
%TO.P,REF\u002A\u002A686,*%
%TO.N,*%
X87720000Y-115690000D03*
%TD*%
%TO.P,REF\u002A\u002A580,*%
%TO.N,*%
X82640000Y-82670000D03*
%TD*%
%TO.P,REF\u002A\u002A155,*%
%TO.N,*%
X54700000Y-62350000D03*
%TD*%
%TO.P,REF\u002A\u002A93,*%
%TO.N,*%
X59780000Y-42030000D03*
%TD*%
%TO.P,REF\u002A\u002A370,*%
%TO.N,*%
X67400000Y-49650000D03*
%TD*%
%TO.P,REF\u002A\u002A216,*%
%TO.N,*%
X47080000Y-82670000D03*
%TD*%
%TO.P,REF\u002A\u002A157,*%
%TO.N,*%
X59780000Y-62350000D03*
%TD*%
%TO.P,REF\u002A\u002A483,*%
%TO.N,*%
X80100000Y-52190000D03*
%TD*%
%TO.P,REF\u002A\u002A554,*%
%TO.N,*%
X77560000Y-75050000D03*
%TD*%
%TO.P,REF\u002A\u002A868,*%
%TO.N,*%
X36920000Y-100450000D03*
%TD*%
%TO.P,REF\u002A\u002A804,*%
%TO.N,*%
X39460000Y-47110000D03*
%TD*%
%TO.P,REF\u002A\u002A577,*%
%TO.N,*%
X75020000Y-82670000D03*
%TD*%
%TO.P,REF\u002A\u002A160,*%
%TO.N,*%
X47080000Y-64890000D03*
%TD*%
%TO.P,REF\u002A\u002A198,*%
%TO.N,*%
X62320000Y-75050000D03*
%TD*%
%TO.P,REF\u002A\u002A817,*%
%TO.N,*%
X36920000Y-57270000D03*
%TD*%
%TO.P,REF\u002A\u002A517,*%
%TO.N,*%
X85180000Y-62350000D03*
%TD*%
%TO.P,REF\u002A\u002A777,*%
%TO.N,*%
X95340000Y-108070000D03*
%TD*%
%TO.P,REF\u002A\u002A312,*%
%TO.N,*%
X47080000Y-113150000D03*
%TD*%
%TO.P,REF\u002A\u002A284,*%
%TO.N,*%
X57240000Y-102990000D03*
%TD*%
%TO.P,REF\u002A\u002A530,*%
%TO.N,*%
X77560000Y-67430000D03*
%TD*%
%TO.P,REF\u002A\u002A415,*%
%TO.N,*%
X69940000Y-105530000D03*
%TD*%
%TO.P,REF\u002A\u002A387,*%
%TO.N,*%
X69940000Y-69970000D03*
%TD*%
%TO.P,REF\u002A\u002A838,*%
%TO.N,*%
X36920000Y-75050000D03*
%TD*%
%TO.P,REF\u002A\u002A886,*%
%TO.N,*%
X36920000Y-115690000D03*
%TD*%
%TO.P,REF\u002A\u002A837,*%
%TO.N,*%
X39460000Y-75050000D03*
%TD*%
%TO.P,REF\u002A\u002A206,*%
%TO.N,*%
X62320000Y-77590000D03*
%TD*%
%TO.P,REF\u002A\u002A885,*%
%TO.N,*%
X39460000Y-115690000D03*
%TD*%
%TO.P,REF\u002A\u002A266,*%
%TO.N,*%
X52160000Y-97910000D03*
%TD*%
%TO.P,REF\u002A\u002A599,*%
%TO.N,*%
X90260000Y-87750000D03*
%TD*%
%TO.P,REF\u002A\u002A175,*%
%TO.N,*%
X64860000Y-67430000D03*
%TD*%
%TO.P,REF\u002A\u002A452,*%
%TO.N,*%
X82640000Y-42030000D03*
%TD*%
%TO.P,REF\u002A\u002A234,*%
%TO.N,*%
X52160000Y-87750000D03*
%TD*%
%TO.P,REF\u002A\u002A891,*%
%TO.N,*%
X39460000Y-120770000D03*
%TD*%
%TO.P,REF\u002A\u002A264,*%
%TO.N,*%
X47080000Y-97910000D03*
%TD*%
%TO.P,REF\u002A\u002A343,*%
%TO.N,*%
X64860000Y-120770000D03*
%TD*%
%TO.P,REF\u002A\u002A319,*%
%TO.N,*%
X64860000Y-113150000D03*
%TD*%
%TO.P,REF\u002A\u002A617,*%
%TO.N,*%
X75020000Y-95370000D03*
%TD*%
%TO.P,REF\u002A\u002A727,*%
%TO.N,*%
X95340000Y-44570000D03*
%TD*%
%TO.P,REF\u002A\u002A537,*%
%TO.N,*%
X75020000Y-69970000D03*
%TD*%
%TO.P,REF\u002A\u002A194,*%
%TO.N,*%
X52160000Y-75050000D03*
%TD*%
%TO.P,REF\u002A\u002A227,*%
%TO.N,*%
X54700000Y-85210000D03*
%TD*%
%TO.P,REF\u002A\u002A60,*%
%TO.N,*%
X42000000Y-113150000D03*
%TD*%
%TO.P,REF\u002A\u002A556,*%
%TO.N,*%
X82640000Y-75050000D03*
%TD*%
%TO.P,REF\u002A\u002A830,*%
%TO.N,*%
X34380000Y-67430000D03*
%TD*%
%TO.P,REF\u002A\u002A500,*%
%TO.N,*%
X82640000Y-57270000D03*
%TD*%
%TO.P,REF\u002A\u002A104,*%
%TO.N,*%
X47080000Y-47110000D03*
%TD*%
%TO.P,REF\u002A\u002A218,*%
%TO.N,*%
X52160000Y-82670000D03*
%TD*%
%TO.P,REF\u002A\u002A277,*%
%TO.N,*%
X59780000Y-100450000D03*
%TD*%
%TO.P,REF\u002A\u002A544,*%
%TO.N,*%
X72480000Y-72510000D03*
%TD*%
%TO.P,REF\u002A\u002A212,*%
%TO.N,*%
X57240000Y-80130000D03*
%TD*%
%TO.P,REF\u002A\u002A582,*%
%TO.N,*%
X87720000Y-82670000D03*
%TD*%
%TO.P,REF\u002A\u002A751,*%
%TO.N,*%
X95340000Y-75050000D03*
%TD*%
%TO.P,REF\u002A\u002A328,*%
%TO.N,*%
X47080000Y-118230000D03*
%TD*%
%TO.P,REF\u002A\u002A219,*%
%TO.N,*%
X54700000Y-82670000D03*
%TD*%
%TO.P,REF\u002A\u002A851,*%
%TO.N,*%
X34380000Y-85210000D03*
%TD*%
%TO.P,REF\u002A\u002A659,*%
%TO.N,*%
X80100000Y-108070000D03*
%TD*%
%TO.P,REF\u002A\u002A350,*%
%TO.N,*%
X62320000Y-123310000D03*
%TD*%
%TO.P,REF\u002A\u002A53,*%
%TO.N,*%
X44540000Y-102990000D03*
%TD*%
%TO.P,REF\u002A\u002A187,*%
%TO.N,*%
X54700000Y-72510000D03*
%TD*%
%TO.P,REF\u002A\u002A895,*%
%TO.N,*%
X36920000Y-123310000D03*
%TD*%
%TO.P,REF\u002A\u002A385,*%
%TO.N,*%
X69940000Y-67430000D03*
%TD*%
%TO.P,REF\u002A\u002A453,*%
%TO.N,*%
X85180000Y-42030000D03*
%TD*%
%TO.P,REF\u002A\u002A451,*%
%TO.N,*%
X80100000Y-42030000D03*
%TD*%
%TO.P,REF\u002A\u002A294,*%
%TO.N,*%
X62320000Y-105530000D03*
%TD*%
%TO.P,REF\u002A\u002A771,*%
%TO.N,*%
X95340000Y-100450000D03*
%TD*%
%TO.P,REF\u002A\u002A521,*%
%TO.N,*%
X75020000Y-64890000D03*
%TD*%
%TO.P,REF\u002A\u002A167,*%
%TO.N,*%
X64860000Y-64890000D03*
%TD*%
%TO.P,REF\u002A\u002A231,*%
%TO.N,*%
X64860000Y-85210000D03*
%TD*%
%TO.P,REF\u002A\u002A183,*%
%TO.N,*%
X64860000Y-69970000D03*
%TD*%
%TO.P,REF\u002A\u002A745,*%
%TO.N,*%
X95340000Y-67430000D03*
%TD*%
%TO.P,REF\u002A\u002A8,*%
%TO.N,*%
X42000000Y-47110000D03*
%TD*%
%TO.P,REF\u002A\u002A735,*%
%TO.N,*%
X95340000Y-54730000D03*
%TD*%
%TO.P,REF\u002A\u002A563,*%
%TO.N,*%
X80100000Y-77590000D03*
%TD*%
%TO.P,REF\u002A\u002A16,*%
%TO.N,*%
X42000000Y-57270000D03*
%TD*%
%TO.P,REF\u002A\u002A233,*%
%TO.N,*%
X49620000Y-87750000D03*
%TD*%
%TO.P,REF\u002A\u002A154,*%
%TO.N,*%
X52160000Y-62350000D03*
%TD*%
%TO.P,REF\u002A\u002A770,*%
%TO.N,*%
X92800000Y-100450000D03*
%TD*%
%TO.P,REF\u002A\u002A191,*%
%TO.N,*%
X64860000Y-72510000D03*
%TD*%
%TO.P,REF\u002A\u002A63,*%
%TO.N,*%
X44540000Y-115690000D03*
%TD*%
%TO.P,REF\u002A\u002A180,*%
%TO.N,*%
X57240000Y-69970000D03*
%TD*%
%TO.P,REF\u002A\u002A785,*%
%TO.N,*%
X95340000Y-118230000D03*
%TD*%
%TO.P,REF\u002A\u002A322,*%
%TO.N,*%
X52160000Y-115690000D03*
%TD*%
%TO.P,REF\u002A\u002A207,*%
%TO.N,*%
X64860000Y-77590000D03*
%TD*%
%TO.P,REF\u002A\u002A249,*%
%TO.N,*%
X49620000Y-92830000D03*
%TD*%
%TO.P,REF\u002A\u002A653,*%
%TO.N,*%
X85180000Y-105530000D03*
%TD*%
%TO.P,REF\u002A\u002A461,*%
%TO.N,*%
X85180000Y-44570000D03*
%TD*%
%TO.P,REF\u002A\u002A285,*%
%TO.N,*%
X59780000Y-102990000D03*
%TD*%
%TO.P,REF\u002A\u002A384,*%
%TO.N,*%
X67400000Y-67430000D03*
%TD*%
%TO.P,REF\u002A\u002A695,*%
%TO.N,*%
X90260000Y-118230000D03*
%TD*%
%TO.P,REF\u002A\u002A307,*%
%TO.N,*%
X54700000Y-110610000D03*
%TD*%
%TO.P,REF\u002A\u002A731,*%
%TO.N,*%
X95340000Y-49650000D03*
%TD*%
%TO.P,REF\u002A\u002A36,*%
%TO.N,*%
X42000000Y-82670000D03*
%TD*%
%TO.P,REF\u002A\u002A303,*%
%TO.N,*%
X64860000Y-108070000D03*
%TD*%
%TO.P,REF\u002A\u002A50,*%
%TO.N,*%
X42000000Y-100450000D03*
%TD*%
%TO.P,REF\u002A\u002A575,*%
%TO.N,*%
X90260000Y-80130000D03*
%TD*%
%TO.P,REF\u002A\u002A486,*%
%TO.N,*%
X87720000Y-52190000D03*
%TD*%
%TO.P,REF\u002A\u002A153,*%
%TO.N,*%
X49620000Y-62350000D03*
%TD*%
%TO.P,REF\u002A\u002A584,*%
%TO.N,*%
X72480000Y-85210000D03*
%TD*%
%TO.P,REF\u002A\u002A550,*%
%TO.N,*%
X87720000Y-72510000D03*
%TD*%
%TO.P,REF\u002A\u002A426,*%
%TO.N,*%
X67400000Y-120770000D03*
%TD*%
%TO.P,REF\u002A\u002A633,*%
%TO.N,*%
X75020000Y-100450000D03*
%TD*%
%TO.P,REF\u002A\u002A820,*%
%TO.N,*%
X36920000Y-59810000D03*
%TD*%
%TO.P,REF\u002A\u002A734,*%
%TO.N,*%
X92800000Y-54730000D03*
%TD*%
%TO.P,REF\u002A\u002A27,*%
%TO.N,*%
X44540000Y-69970000D03*
%TD*%
%TO.P,REF\u002A\u002A778,*%
%TO.N,*%
X92800000Y-110610000D03*
%TD*%
%TO.P,REF\u002A\u002A705,*%
%TO.N,*%
X75020000Y-123310000D03*
%TD*%
%TO.P,REF\u002A\u002A403,*%
%TO.N,*%
X69940000Y-90290000D03*
%TD*%
%TO.P,REF\u002A\u002A870,*%
%TO.N,*%
X39460000Y-102990000D03*
%TD*%
%TO.P,REF\u002A\u002A123,*%
%TO.N,*%
X54700000Y-52190000D03*
%TD*%
%TO.P,REF\u002A\u002A756,*%
%TO.N,*%
X92800000Y-82670000D03*
%TD*%
%TO.P,REF\u002A\u002A671,*%
%TO.N,*%
X90260000Y-110610000D03*
%TD*%
%TO.P,REF\u002A\u002A186,*%
%TO.N,*%
X52160000Y-72510000D03*
%TD*%
%TO.P,REF\u002A\u002A31,*%
%TO.N,*%
X44540000Y-75050000D03*
%TD*%
%TO.P,REF\u002A\u002A176,*%
%TO.N,*%
X47080000Y-69970000D03*
%TD*%
%TO.P,REF\u002A\u002A412,*%
%TO.N,*%
X67400000Y-102990000D03*
%TD*%
%TO.P,REF\u002A\u002A192,*%
%TO.N,*%
X47080000Y-75050000D03*
%TD*%
%TO.P,REF\u002A\u002A158,*%
%TO.N,*%
X62320000Y-62350000D03*
%TD*%
%TO.P,REF\u002A\u002A88,*%
%TO.N,*%
X47080000Y-42030000D03*
%TD*%
%TO.P,REF\u002A\u002A677,*%
%TO.N,*%
X85180000Y-113150000D03*
%TD*%
%TO.P,REF\u002A\u002A811,*%
%TO.N,*%
X36920000Y-52190000D03*
%TD*%
%TO.P,REF\u002A\u002A767,*%
%TO.N,*%
X95340000Y-95370000D03*
%TD*%
%TO.P,REF\u002A\u002A504,*%
%TO.N,*%
X72480000Y-59810000D03*
%TD*%
%TO.P,REF\u002A\u002A273,*%
%TO.N,*%
X49620000Y-100450000D03*
%TD*%
%TO.P,REF\u002A\u002A559,*%
%TO.N,*%
X90260000Y-75050000D03*
%TD*%
%TO.P,REF\u002A\u002A399,*%
%TO.N,*%
X69940000Y-85210000D03*
%TD*%
%TO.P,REF\u002A\u002A738,*%
%TO.N,*%
X92800000Y-59810000D03*
%TD*%
%TO.P,REF\u002A\u002A531,*%
%TO.N,*%
X80100000Y-67430000D03*
%TD*%
%TO.P,REF\u002A\u002A454,*%
%TO.N,*%
X87720000Y-42030000D03*
%TD*%
%TO.P,REF\u002A\u002A450,*%
%TO.N,*%
X77560000Y-42030000D03*
%TD*%
D13*
%TO.P,REF\u002A\u002A,1*%
%TO.N,N/C*%
X85000000Y-33460000D03*
D14*
X85000000Y-36000000D03*
D13*
%TO.P,REF\u002A\u002A,2*%
X92620000Y-33460000D03*
X90080000Y-33460000D03*
X90080000Y-36000000D03*
X87540000Y-33460000D03*
X87540000Y-36000000D03*
X92620000Y-36000000D03*
%TO.P,REF\u002A\u002A,3*%
X95160000Y-33460000D03*
X95160000Y-36000000D03*
%TD*%
D12*
%TO.P,REF\u002A\u002A742,*%
%TO.N,*%
X92800000Y-64890000D03*
%TD*%
%TO.P,REF\u002A\u002A573,*%
%TO.N,*%
X85180000Y-80130000D03*
%TD*%
%TO.P,REF\u002A\u002A710,*%
%TO.N,*%
X87720000Y-123310000D03*
%TD*%
%TO.P,REF\u002A\u002A265,*%
%TO.N,*%
X49620000Y-97910000D03*
%TD*%
%TO.P,REF\u002A\u002A694,*%
%TO.N,*%
X87720000Y-118230000D03*
%TD*%
%TO.P,REF\u002A\u002A48,*%
%TO.N,*%
X42000000Y-97910000D03*
%TD*%
%TO.P,REF\u002A\u002A392,*%
%TO.N,*%
X67400000Y-77590000D03*
%TD*%
%TO.P,REF\u002A\u002A344,*%
%TO.N,*%
X47080000Y-123310000D03*
%TD*%
%TO.P,REF\u002A\u002A670,*%
%TO.N,*%
X87720000Y-110610000D03*
%TD*%
%TO.P,REF\u002A\u002A464,*%
%TO.N,*%
X72480000Y-47110000D03*
%TD*%
%TO.P,REF\u002A\u002A19,*%
%TO.N,*%
X44540000Y-59810000D03*
%TD*%
%TO.P,REF\u002A\u002A856,*%
%TO.N,*%
X36920000Y-90290000D03*
%TD*%
%TO.P,REF\u002A\u002A747,*%
%TO.N,*%
X95340000Y-69970000D03*
%TD*%
%TO.P,REF\u002A\u002A707,*%
%TO.N,*%
X80100000Y-123310000D03*
%TD*%
%TO.P,REF\u002A\u002A289,*%
%TO.N,*%
X49620000Y-105530000D03*
%TD*%
%TO.P,REF\u002A\u002A587,*%
%TO.N,*%
X80100000Y-85210000D03*
%TD*%
%TO.P,REF\u002A\u002A560,*%
%TO.N,*%
X72480000Y-77590000D03*
%TD*%
%TO.P,REF\u002A\u002A487,*%
%TO.N,*%
X90260000Y-52190000D03*
%TD*%
%TO.P,REF\u002A\u002A492,*%
%TO.N,*%
X82640000Y-54730000D03*
%TD*%
%TO.P,REF\u002A\u002A588,*%
%TO.N,*%
X82640000Y-85210000D03*
%TD*%
%TO.P,REF\u002A\u002A143,*%
%TO.N,*%
X64860000Y-57270000D03*
%TD*%
%TO.P,REF\u002A\u002A786,*%
%TO.N,*%
X92800000Y-120770000D03*
%TD*%
%TO.P,REF\u002A\u002A339,*%
%TO.N,*%
X54700000Y-120770000D03*
%TD*%
%TO.P,REF\u002A\u002A502,*%
%TO.N,*%
X87720000Y-57270000D03*
%TD*%
%TO.P,REF\u002A\u002A310,*%
%TO.N,*%
X62320000Y-110610000D03*
%TD*%
%TO.P,REF\u002A\u002A414,*%
%TO.N,*%
X67400000Y-105530000D03*
%TD*%
%TO.P,REF\u002A\u002A405,*%
%TO.N,*%
X69940000Y-92830000D03*
%TD*%
%TO.P,REF\u002A\u002A159,*%
%TO.N,*%
X64860000Y-62350000D03*
%TD*%
%TO.P,REF\u002A\u002A126,*%
%TO.N,*%
X62320000Y-52190000D03*
%TD*%
%TO.P,REF\u002A\u002A623,*%
%TO.N,*%
X90260000Y-95370000D03*
%TD*%
%TO.P,REF\u002A\u002A331,*%
%TO.N,*%
X54700000Y-118230000D03*
%TD*%
%TO.P,REF\u002A\u002A539,*%
%TO.N,*%
X80100000Y-69970000D03*
%TD*%
%TO.P,REF\u002A\u002A174,*%
%TO.N,*%
X62320000Y-67430000D03*
%TD*%
%TO.P,REF\u002A\u002A691,*%
%TO.N,*%
X80100000Y-118230000D03*
%TD*%
%TO.P,REF\u002A\u002A782,*%
%TO.N,*%
X92800000Y-115690000D03*
%TD*%
%TO.P,REF\u002A\u002A608,*%
%TO.N,*%
X72480000Y-92830000D03*
%TD*%
%TO.P,REF\u002A\u002A673,*%
%TO.N,*%
X75020000Y-113150000D03*
%TD*%
%TO.P,REF\u002A\u002A95,*%
%TO.N,*%
X64860000Y-42030000D03*
%TD*%
%TO.P,REF\u002A\u002A524,*%
%TO.N,*%
X82640000Y-64890000D03*
%TD*%
%TO.P,REF\u002A\u002A309,*%
%TO.N,*%
X59780000Y-110610000D03*
%TD*%
%TO.P,REF\u002A\u002A377,*%
%TO.N,*%
X69940000Y-57270000D03*
%TD*%
%TO.P,REF\u002A\u002A189,*%
%TO.N,*%
X59780000Y-72510000D03*
%TD*%
%TO.P,REF\u002A\u002A100,*%
%TO.N,*%
X57240000Y-44570000D03*
%TD*%
%TO.P,REF\u002A\u002A96,*%
%TO.N,*%
X47080000Y-44570000D03*
%TD*%
%TO.P,REF\u002A\u002A316,*%
%TO.N,*%
X57240000Y-113150000D03*
%TD*%
%TO.P,REF\u002A\u002A474,*%
%TO.N,*%
X77560000Y-49650000D03*
%TD*%
%TO.P,REF\u002A\u002A89,*%
%TO.N,*%
X49620000Y-42030000D03*
%TD*%
%TO.P,REF\u002A\u002A150,*%
%TO.N,*%
X62320000Y-59810000D03*
%TD*%
%TO.P,REF\u002A\u002A463,*%
%TO.N,*%
X90260000Y-44570000D03*
%TD*%
%TO.P,REF\u002A\u002A591,*%
%TO.N,*%
X90260000Y-85210000D03*
%TD*%
%TO.P,REF\u002A\u002A640,*%
%TO.N,*%
X72480000Y-102990000D03*
%TD*%
%TO.P,REF\u002A\u002A821,*%
%TO.N,*%
X34380000Y-59810000D03*
%TD*%
%TO.P,REF\u002A\u002A228,*%
%TO.N,*%
X57240000Y-85210000D03*
%TD*%
%TO.P,REF\u002A\u002A814,*%
%TO.N,*%
X36920000Y-54730000D03*
%TD*%
%TO.P,REF\u002A\u002A141,*%
%TO.N,*%
X59780000Y-57270000D03*
%TD*%
%TO.P,REF\u002A\u002A836,*%
%TO.N,*%
X34380000Y-72510000D03*
%TD*%
%TO.P,REF\u002A\u002A395,*%
%TO.N,*%
X69940000Y-80130000D03*
%TD*%
%TO.P,REF\u002A\u002A482,*%
%TO.N,*%
X77560000Y-52190000D03*
%TD*%
%TO.P,REF\u002A\u002A460,*%
%TO.N,*%
X82640000Y-44570000D03*
%TD*%
%TO.P,REF\u002A\u002A477,*%
%TO.N,*%
X85180000Y-49650000D03*
%TD*%
%TO.P,REF\u002A\u002A863,*%
%TO.N,*%
X34380000Y-95370000D03*
%TD*%
%TO.P,REF\u002A\u002A572,*%
%TO.N,*%
X82640000Y-80130000D03*
%TD*%
%TO.P,REF\u002A\u002A41,*%
%TO.N,*%
X44540000Y-87750000D03*
%TD*%
%TO.P,REF\u002A\u002A239,*%
%TO.N,*%
X64860000Y-87750000D03*
%TD*%
%TO.P,REF\u002A\u002A61,*%
%TO.N,*%
X44540000Y-113150000D03*
%TD*%
%TO.P,REF\u002A\u002A698,*%
%TO.N,*%
X77560000Y-120770000D03*
%TD*%
%TO.P,REF\u002A\u002A507,*%
%TO.N,*%
X80100000Y-59810000D03*
%TD*%
%TO.P,REF\u002A\u002A818,*%
%TO.N,*%
X34380000Y-57270000D03*
%TD*%
%TO.P,REF\u002A\u002A366,*%
%TO.N,*%
X67400000Y-44570000D03*
%TD*%
%TO.P,REF\u002A\u002A229,*%
%TO.N,*%
X59780000Y-85210000D03*
%TD*%
%TO.P,REF\u002A\u002A552,*%
%TO.N,*%
X72480000Y-75050000D03*
%TD*%
%TO.P,REF\u002A\u002A127,*%
%TO.N,*%
X64860000Y-52190000D03*
%TD*%
%TO.P,REF\u002A\u002A64,*%
%TO.N,*%
X42000000Y-118230000D03*
%TD*%
%TO.P,REF\u002A\u002A497,*%
%TO.N,*%
X75020000Y-57270000D03*
%TD*%
%TO.P,REF\u002A\u002A257,*%
%TO.N,*%
X49620000Y-95370000D03*
%TD*%
%TO.P,REF\u002A\u002A137,*%
%TO.N,*%
X49620000Y-57270000D03*
%TD*%
%TO.P,REF\u002A\u002A235,*%
%TO.N,*%
X54700000Y-87750000D03*
%TD*%
%TO.P,REF\u002A\u002A675,*%
%TO.N,*%
X80100000Y-113150000D03*
%TD*%
%TO.P,REF\u002A\u002A152,*%
%TO.N,*%
X47080000Y-62350000D03*
%TD*%
%TO.P,REF\u002A\u002A140,*%
%TO.N,*%
X57240000Y-57270000D03*
%TD*%
%TO.P,REF\u002A\u002A320,*%
%TO.N,*%
X47080000Y-115690000D03*
%TD*%
%TO.P,REF\u002A\u002A547,*%
%TO.N,*%
X80100000Y-72510000D03*
%TD*%
%TO.P,REF\u002A\u002A784,*%
%TO.N,*%
X92800000Y-118230000D03*
%TD*%
%TO.P,REF\u002A\u002A271,*%
%TO.N,*%
X64860000Y-97910000D03*
%TD*%
%TO.P,REF\u002A\u002A242,*%
%TO.N,*%
X52160000Y-90290000D03*
%TD*%
%TO.P,REF\u002A\u002A508,*%
%TO.N,*%
X82640000Y-59810000D03*
%TD*%
%TO.P,REF\u002A\u002A142,*%
%TO.N,*%
X62320000Y-57270000D03*
%TD*%
%TO.P,REF\u002A\u002A857,*%
%TO.N,*%
X34380000Y-90290000D03*
%TD*%
%TO.P,REF\u002A\u002A893,*%
%TO.N,*%
X34380000Y-120770000D03*
%TD*%
%TO.P,REF\u002A\u002A338,*%
%TO.N,*%
X52160000Y-120770000D03*
%TD*%
%TO.P,REF\u002A\u002A515,*%
%TO.N,*%
X80100000Y-62350000D03*
%TD*%
%TO.P,REF\u002A\u002A280,*%
%TO.N,*%
X47080000Y-102990000D03*
%TD*%
%TO.P,REF\u002A\u002A10,*%
%TO.N,*%
X42000000Y-49650000D03*
%TD*%
%TO.P,REF\u002A\u002A293,*%
%TO.N,*%
X59780000Y-105530000D03*
%TD*%
%TO.P,REF\u002A\u002A248,*%
%TO.N,*%
X47080000Y-92830000D03*
%TD*%
%TO.P,REF\u002A\u002A368,*%
%TO.N,*%
X67400000Y-47110000D03*
%TD*%
%TO.P,REF\u002A\u002A819,*%
%TO.N,*%
X39460000Y-59810000D03*
%TD*%
%TO.P,REF\u002A\u002A569,*%
%TO.N,*%
X75020000Y-80130000D03*
%TD*%
%TO.P,REF\u002A\u002A179,*%
%TO.N,*%
X54700000Y-69970000D03*
%TD*%
%TO.P,REF\u002A\u002A324,*%
%TO.N,*%
X57240000Y-115690000D03*
%TD*%
%TO.P,REF\u002A\u002A114,*%
%TO.N,*%
X52160000Y-49650000D03*
%TD*%
%TO.P,REF\u002A\u002A327,*%
%TO.N,*%
X64860000Y-115690000D03*
%TD*%
%TO.P,REF\u002A\u002A757,*%
%TO.N,*%
X95340000Y-82670000D03*
%TD*%
%TO.P,REF\u002A\u002A297,*%
%TO.N,*%
X49620000Y-108070000D03*
%TD*%
%TO.P,REF\u002A\u002A107,*%
%TO.N,*%
X54700000Y-47110000D03*
%TD*%
%TO.P,REF\u002A\u002A298,*%
%TO.N,*%
X52160000Y-108070000D03*
%TD*%
%TO.P,REF\u002A\u002A529,*%
%TO.N,*%
X75020000Y-67430000D03*
%TD*%
%TO.P,REF\u002A\u002A578,*%
%TO.N,*%
X77560000Y-82670000D03*
%TD*%
%TO.P,REF\u002A\u002A169,*%
%TO.N,*%
X49620000Y-67430000D03*
%TD*%
%TO.P,REF\u002A\u002A21,*%
%TO.N,*%
X44540000Y-62350000D03*
%TD*%
%TO.P,REF\u002A\u002A108,*%
%TO.N,*%
X57240000Y-47110000D03*
%TD*%
%TO.P,REF\u002A\u002A105,*%
%TO.N,*%
X49620000Y-47110000D03*
%TD*%
%TO.P,REF\u002A\u002A283,*%
%TO.N,*%
X54700000Y-102990000D03*
%TD*%
%TO.P,REF\u002A\u002A172,*%
%TO.N,*%
X57240000Y-67430000D03*
%TD*%
%TO.P,REF\u002A\u002A379,*%
%TO.N,*%
X69940000Y-59810000D03*
%TD*%
%TO.P,REF\u002A\u002A279,*%
%TO.N,*%
X64860000Y-100450000D03*
%TD*%
%TO.P,REF\u002A\u002A47,*%
%TO.N,*%
X44540000Y-95370000D03*
%TD*%
%TO.P,REF\u002A\u002A752,*%
%TO.N,*%
X92800000Y-77590000D03*
%TD*%
%TO.P,REF\u002A\u002A495,*%
%TO.N,*%
X90260000Y-54730000D03*
%TD*%
%TO.P,REF\u002A\u002A602,*%
%TO.N,*%
X77560000Y-90290000D03*
%TD*%
%TO.P,REF\u002A\u002A775,*%
%TO.N,*%
X95340000Y-105530000D03*
%TD*%
%TO.P,REF\u002A\u002A237,*%
%TO.N,*%
X59780000Y-87750000D03*
%TD*%
%TO.P,REF\u002A\u002A889,*%
%TO.N,*%
X36920000Y-118230000D03*
%TD*%
%TO.P,REF\u002A\u002A702,*%
%TO.N,*%
X87720000Y-120770000D03*
%TD*%
%TO.P,REF\u002A\u002A808,*%
%TO.N,*%
X36920000Y-49650000D03*
%TD*%
%TO.P,REF\u002A\u002A732,*%
%TO.N,*%
X92800000Y-52190000D03*
%TD*%
%TO.P,REF\u002A\u002A604,*%
%TO.N,*%
X82640000Y-90290000D03*
%TD*%
%TO.P,REF\u002A\u002A769,*%
%TO.N,*%
X95340000Y-97910000D03*
%TD*%
%TO.P,REF\u002A\u002A637,*%
%TO.N,*%
X85180000Y-100450000D03*
%TD*%
%TO.P,REF\u002A\u002A208,*%
%TO.N,*%
X47080000Y-80130000D03*
%TD*%
%TO.P,REF\u002A\u002A538,*%
%TO.N,*%
X77560000Y-69970000D03*
%TD*%
%TO.P,REF\u002A\u002A113,*%
%TO.N,*%
X49620000Y-49650000D03*
%TD*%
%TO.P,REF\u002A\u002A164,*%
%TO.N,*%
X57240000Y-64890000D03*
%TD*%
%TO.P,REF\u002A\u002A666,*%
%TO.N,*%
X77560000Y-110610000D03*
%TD*%
%TO.P,REF\u002A\u002A214,*%
%TO.N,*%
X62320000Y-80130000D03*
%TD*%
%TO.P,REF\u002A\u002A829,*%
%TO.N,*%
X36920000Y-67430000D03*
%TD*%
%TO.P,REF\u002A\u002A807,*%
%TO.N,*%
X39460000Y-49650000D03*
%TD*%
%TO.P,REF\u002A\u002A195,*%
%TO.N,*%
X54700000Y-75050000D03*
%TD*%
%TO.P,REF\u002A\u002A644,*%
%TO.N,*%
X82640000Y-102990000D03*
%TD*%
%TO.P,REF\u002A\u002A288,*%
%TO.N,*%
X47080000Y-105530000D03*
%TD*%
%TO.P,REF\u002A\u002A699,*%
%TO.N,*%
X80100000Y-120770000D03*
%TD*%
%TO.P,REF\u002A\u002A873,*%
%TO.N,*%
X39460000Y-105530000D03*
%TD*%
%TO.P,REF\u002A\u002A595,*%
%TO.N,*%
X80100000Y-87750000D03*
%TD*%
%TO.P,REF\u002A\u002A262,*%
%TO.N,*%
X62320000Y-95370000D03*
%TD*%
%TO.P,REF\u002A\u002A726,*%
%TO.N,*%
X92800000Y-44570000D03*
%TD*%
%TO.P,REF\u002A\u002A773,*%
%TO.N,*%
X95340000Y-102990000D03*
%TD*%
%TO.P,REF\u002A\u002A490,*%
%TO.N,*%
X77560000Y-54730000D03*
%TD*%
%TO.P,REF\u002A\u002A378,*%
%TO.N,*%
X67400000Y-59810000D03*
%TD*%
%TO.P,REF\u002A\u002A260,*%
%TO.N,*%
X57240000Y-95370000D03*
%TD*%
%TO.P,REF\u002A\u002A615,*%
%TO.N,*%
X90260000Y-92830000D03*
%TD*%
%TO.P,REF\u002A\u002A292,*%
%TO.N,*%
X57240000Y-105530000D03*
%TD*%
%TO.P,REF\u002A\u002A17,*%
%TO.N,*%
X44540000Y-57270000D03*
%TD*%
%TO.P,REF\u002A\u002A632,*%
%TO.N,*%
X72480000Y-100450000D03*
%TD*%
%TO.P,REF\u002A\u002A884,*%
%TO.N,*%
X34380000Y-113150000D03*
%TD*%
%TO.P,REF\u002A\u002A540,*%
%TO.N,*%
X82640000Y-69970000D03*
%TD*%
%TO.P,REF\u002A\u002A282,*%
%TO.N,*%
X52160000Y-102990000D03*
%TD*%
%TO.P,REF\u002A\u002A121,*%
%TO.N,*%
X49620000Y-52190000D03*
%TD*%
%TO.P,REF\u002A\u002A557,*%
%TO.N,*%
X85180000Y-75050000D03*
%TD*%
%TO.P,REF\u002A\u002A522,*%
%TO.N,*%
X77560000Y-64890000D03*
%TD*%
%TO.P,REF\u002A\u002A44,*%
%TO.N,*%
X42000000Y-92830000D03*
%TD*%
%TO.P,REF\u002A\u002A528,*%
%TO.N,*%
X72480000Y-67430000D03*
%TD*%
%TO.P,REF\u002A\u002A408,*%
%TO.N,*%
X67400000Y-97910000D03*
%TD*%
%TO.P,REF\u002A\u002A711,*%
%TO.N,*%
X90260000Y-123310000D03*
%TD*%
%TO.P,REF\u002A\u002A422,*%
%TO.N,*%
X67400000Y-115690000D03*
%TD*%
%TO.P,REF\u002A\u002A301,*%
%TO.N,*%
X59780000Y-108070000D03*
%TD*%
%TO.P,REF\u002A\u002A245,*%
%TO.N,*%
X59780000Y-90290000D03*
%TD*%
%TO.P,REF\u002A\u002A217,*%
%TO.N,*%
X49620000Y-82670000D03*
%TD*%
%TO.P,REF\u002A\u002A681,*%
%TO.N,*%
X75020000Y-115690000D03*
%TD*%
%TO.P,REF\u002A\u002A824,*%
%TO.N,*%
X34380000Y-62350000D03*
%TD*%
%TO.P,REF\u002A\u002A135,*%
%TO.N,*%
X64860000Y-54730000D03*
%TD*%
%TO.P,REF\u002A\u002A300,*%
%TO.N,*%
X57240000Y-108070000D03*
%TD*%
%TO.P,REF\u002A\u002A193,*%
%TO.N,*%
X49620000Y-75050000D03*
%TD*%
%TO.P,REF\u002A\u002A9,*%
%TO.N,*%
X44540000Y-47110000D03*
%TD*%
%TO.P,REF\u002A\u002A147,*%
%TO.N,*%
X54700000Y-59810000D03*
%TD*%
%TO.P,REF\u002A\u002A761,*%
%TO.N,*%
X95340000Y-87750000D03*
%TD*%
%TO.P,REF\u002A\u002A759,*%
%TO.N,*%
X95340000Y-85210000D03*
%TD*%
%TO.P,REF\u002A\u002A389,*%
%TO.N,*%
X69940000Y-72510000D03*
%TD*%
%TO.P,REF\u002A\u002A243,*%
%TO.N,*%
X54700000Y-90290000D03*
%TD*%
%TO.P,REF\u002A\u002A163,*%
%TO.N,*%
X54700000Y-64890000D03*
%TD*%
%TO.P,REF\u002A\u002A259,*%
%TO.N,*%
X54700000Y-95370000D03*
%TD*%
%TO.P,REF\u002A\u002A652,*%
%TO.N,*%
X82640000Y-105530000D03*
%TD*%
%TO.P,REF\u002A\u002A449,*%
%TO.N,*%
X75020000Y-42030000D03*
%TD*%
%TO.P,REF\u002A\u002A173,*%
%TO.N,*%
X59780000Y-67430000D03*
%TD*%
%TO.P,REF\u002A\u002A774,*%
%TO.N,*%
X92800000Y-105530000D03*
%TD*%
%TO.P,REF\u002A\u002A592,*%
%TO.N,*%
X72480000Y-87750000D03*
%TD*%
%TO.P,REF\u002A\u002A304,*%
%TO.N,*%
X47080000Y-110610000D03*
%TD*%
%TO.P,REF\u002A\u002A20,*%
%TO.N,*%
X42000000Y-62350000D03*
%TD*%
%TO.P,REF\u002A\u002A57,*%
%TO.N,*%
X44540000Y-108070000D03*
%TD*%
%TO.P,REF\u002A\u002A594,*%
%TO.N,*%
X77560000Y-87750000D03*
%TD*%
%TO.P,REF\u002A\u002A375,*%
%TO.N,*%
X69940000Y-54730000D03*
%TD*%
%TO.P,REF\u002A\u002A250,*%
%TO.N,*%
X52160000Y-92830000D03*
%TD*%
%TO.P,REF\u002A\u002A501,*%
%TO.N,*%
X85180000Y-57270000D03*
%TD*%
%TO.P,REF\u002A\u002A236,*%
%TO.N,*%
X57240000Y-87750000D03*
%TD*%
%TO.P,REF\u002A\u002A845,*%
%TO.N,*%
X34380000Y-80130000D03*
%TD*%
%TO.P,REF\u002A\u002A185,*%
%TO.N,*%
X49620000Y-72510000D03*
%TD*%
%TO.P,REF\u002A\u002A534,*%
%TO.N,*%
X87720000Y-67430000D03*
%TD*%
%TO.P,REF\u002A\u002A117,*%
%TO.N,*%
X59780000Y-49650000D03*
%TD*%
%TO.P,REF\u002A\u002A629,*%
%TO.N,*%
X85180000Y-97910000D03*
%TD*%
%TO.P,REF\u002A\u002A162,*%
%TO.N,*%
X52160000Y-64890000D03*
%TD*%
%TO.P,REF\u002A\u002A364,*%
%TO.N,*%
X67400000Y-42030000D03*
%TD*%
%TO.P,REF\u002A\u002A494,*%
%TO.N,*%
X87720000Y-54730000D03*
%TD*%
%TO.P,REF\u002A\u002A424,*%
%TO.N,*%
X67400000Y-118230000D03*
%TD*%
%TO.P,REF\u002A\u002A667,*%
%TO.N,*%
X80100000Y-110610000D03*
%TD*%
%TO.P,REF\u002A\u002A202,*%
%TO.N,*%
X52160000Y-77590000D03*
%TD*%
%TO.P,REF\u002A\u002A145,*%
%TO.N,*%
X49620000Y-59810000D03*
%TD*%
%TO.P,REF\u002A\u002A567,*%
%TO.N,*%
X90260000Y-77590000D03*
%TD*%
%TO.P,REF\u002A\u002A763,*%
%TO.N,*%
X95340000Y-90290000D03*
%TD*%
%TO.P,REF\u002A\u002A222,*%
%TO.N,*%
X62320000Y-82670000D03*
%TD*%
%TO.P,REF\u002A\u002A570,*%
%TO.N,*%
X77560000Y-80130000D03*
%TD*%
%TO.P,REF\u002A\u002A372,*%
%TO.N,*%
X67400000Y-52190000D03*
%TD*%
%TO.P,REF\u002A\u002A182,*%
%TO.N,*%
X62320000Y-69970000D03*
%TD*%
%TO.P,REF\u002A\u002A844,*%
%TO.N,*%
X36920000Y-80130000D03*
%TD*%
%TO.P,REF\u002A\u002A138,*%
%TO.N,*%
X52160000Y-57270000D03*
%TD*%
%TO.P,REF\u002A\u002A709,*%
%TO.N,*%
X85180000Y-123310000D03*
%TD*%
%TO.P,REF\u002A\u002A489,*%
%TO.N,*%
X75020000Y-54730000D03*
%TD*%
%TO.P,REF\u002A\u002A765,*%
%TO.N,*%
X95340000Y-92830000D03*
%TD*%
%TO.P,REF\u002A\u002A296,*%
%TO.N,*%
X47080000Y-108070000D03*
%TD*%
%TO.P,REF\u002A\u002A601,*%
%TO.N,*%
X75020000Y-90290000D03*
%TD*%
%TO.P,REF\u002A\u002A568,*%
%TO.N,*%
X72480000Y-80130000D03*
%TD*%
%TO.P,REF\u002A\u002A626,*%
%TO.N,*%
X77560000Y-97910000D03*
%TD*%
%TO.P,REF\u002A\u002A518,*%
%TO.N,*%
X87720000Y-62350000D03*
%TD*%
%TO.P,REF\u002A\u002A92,*%
%TO.N,*%
X57240000Y-42030000D03*
%TD*%
%TO.P,REF\u002A\u002A543,*%
%TO.N,*%
X90260000Y-69970000D03*
%TD*%
%TO.P,REF\u002A\u002A110,*%
%TO.N,*%
X62320000Y-47110000D03*
%TD*%
%TO.P,REF\u002A\u002A34,*%
%TO.N,*%
X42000000Y-80130000D03*
%TD*%
%TO.P,REF\u002A\u002A750,*%
%TO.N,*%
X92800000Y-75050000D03*
%TD*%
%TO.P,REF\u002A\u002A776,*%
%TO.N,*%
X92800000Y-108070000D03*
%TD*%
%TO.P,REF\u002A\u002A383,*%
%TO.N,*%
X69940000Y-64890000D03*
%TD*%
%TO.P,REF\u002A\u002A466,*%
%TO.N,*%
X77560000Y-47110000D03*
%TD*%
%TO.P,REF\u002A\u002A611,*%
%TO.N,*%
X80100000Y-92830000D03*
%TD*%
%TO.P,REF\u002A\u002A287,*%
%TO.N,*%
X64860000Y-102990000D03*
%TD*%
%TO.P,REF\u002A\u002A376,*%
%TO.N,*%
X67400000Y-57270000D03*
%TD*%
%TO.P,REF\u002A\u002A197,*%
%TO.N,*%
X59780000Y-75050000D03*
%TD*%
%TO.P,REF\u002A\u002A606,*%
%TO.N,*%
X87720000Y-90290000D03*
%TD*%
%TO.P,REF\u002A\u002A4,*%
%TO.N,*%
X42000000Y-42030000D03*
%TD*%
%TO.P,REF\u002A\u002A564,*%
%TO.N,*%
X82640000Y-77590000D03*
%TD*%
%TO.P,REF\u002A\u002A484,*%
%TO.N,*%
X82640000Y-52190000D03*
%TD*%
%TO.P,REF\u002A\u002A758,*%
%TO.N,*%
X92800000Y-85210000D03*
%TD*%
%TO.P,REF\u002A\u002A558,*%
%TO.N,*%
X87720000Y-75050000D03*
%TD*%
%TO.P,REF\u002A\u002A416,*%
%TO.N,*%
X67400000Y-108070000D03*
%TD*%
%TO.P,REF\u002A\u002A106,*%
%TO.N,*%
X52160000Y-47110000D03*
%TD*%
%TO.P,REF\u002A\u002A230,*%
%TO.N,*%
X62320000Y-85210000D03*
%TD*%
%TO.P,REF\u002A\u002A668,*%
%TO.N,*%
X82640000Y-110610000D03*
%TD*%
%TO.P,REF\u002A\u002A258,*%
%TO.N,*%
X52160000Y-95370000D03*
%TD*%
%TO.P,REF\u002A\u002A476,*%
%TO.N,*%
X82640000Y-49650000D03*
%TD*%
%TO.P,REF\u002A\u002A139,*%
%TO.N,*%
X54700000Y-57270000D03*
%TD*%
%TO.P,REF\u002A\u002A835,*%
%TO.N,*%
X36920000Y-72510000D03*
%TD*%
%TO.P,REF\u002A\u002A783,*%
%TO.N,*%
X95340000Y-115690000D03*
%TD*%
%TO.P,REF\u002A\u002A657,*%
%TO.N,*%
X75020000Y-108070000D03*
%TD*%
%TO.P,REF\u002A\u002A317,*%
%TO.N,*%
X59780000Y-113150000D03*
%TD*%
%TO.P,REF\u002A\u002A386,*%
%TO.N,*%
X67400000Y-69970000D03*
%TD*%
%TO.P,REF\u002A\u002A762,*%
%TO.N,*%
X92800000Y-90290000D03*
%TD*%
%TO.P,REF\u002A\u002A527,*%
%TO.N,*%
X90260000Y-64890000D03*
%TD*%
%TO.P,REF\u002A\u002A204,*%
%TO.N,*%
X57240000Y-77590000D03*
%TD*%
%TO.P,REF\u002A\u002A270,*%
%TO.N,*%
X62320000Y-97910000D03*
%TD*%
%TO.P,REF\u002A\u002A144,*%
%TO.N,*%
X47080000Y-59810000D03*
%TD*%
%TO.P,REF\u002A\u002A834,*%
%TO.N,*%
X39460000Y-72510000D03*
%TD*%
%TO.P,REF\u002A\u002A98,*%
%TO.N,*%
X52160000Y-44570000D03*
%TD*%
%TO.P,REF\u002A\u002A45,*%
%TO.N,*%
X44540000Y-92830000D03*
%TD*%
%TO.P,REF\u002A\u002A688,*%
%TO.N,*%
X72480000Y-118230000D03*
%TD*%
%TO.P,REF\u002A\u002A754,*%
%TO.N,*%
X92800000Y-80130000D03*
%TD*%
%TO.P,REF\u002A\u002A733,*%
%TO.N,*%
X95340000Y-52190000D03*
%TD*%
%TO.P,REF\u002A\u002A475,*%
%TO.N,*%
X80100000Y-49650000D03*
%TD*%
%TO.P,REF\u002A\u002A278,*%
%TO.N,*%
X62320000Y-100450000D03*
%TD*%
%TO.P,REF\u002A\u002A23,*%
%TO.N,*%
X44540000Y-64890000D03*
%TD*%
%TO.P,REF\u002A\u002A645,*%
%TO.N,*%
X85180000Y-102990000D03*
%TD*%
%TO.P,REF\u002A\u002A59,*%
%TO.N,*%
X44540000Y-110610000D03*
%TD*%
%TO.P,REF\u002A\u002A401,*%
%TO.N,*%
X69940000Y-87750000D03*
%TD*%
%TO.P,REF\u002A\u002A269,*%
%TO.N,*%
X59780000Y-97910000D03*
%TD*%
%TO.P,REF\u002A\u002A321,*%
%TO.N,*%
X49620000Y-115690000D03*
%TD*%
%TO.P,REF\u002A\u002A232,*%
%TO.N,*%
X47080000Y-87750000D03*
%TD*%
%TO.P,REF\u002A\u002A332,*%
%TO.N,*%
X57240000Y-118230000D03*
%TD*%
%TO.P,REF\u002A\u002A11,*%
%TO.N,*%
X44540000Y-49650000D03*
%TD*%
%TO.P,REF\u002A\u002A562,*%
%TO.N,*%
X77560000Y-77590000D03*
%TD*%
%TO.P,REF\u002A\u002A545,*%
%TO.N,*%
X75020000Y-72510000D03*
%TD*%
%TO.P,REF\u002A\u002A728,*%
%TO.N,*%
X92800000Y-47110000D03*
%TD*%
%TO.P,REF\u002A\u002A565,*%
%TO.N,*%
X85180000Y-77590000D03*
%TD*%
%TO.P,REF\u002A\u002A478,*%
%TO.N,*%
X87720000Y-49650000D03*
%TD*%
%TO.P,REF\u002A\u002A823,*%
%TO.N,*%
X36920000Y-62350000D03*
%TD*%
%TO.P,REF\u002A\u002A496,*%
%TO.N,*%
X72480000Y-57270000D03*
%TD*%
%TO.P,REF\u002A\u002A190,*%
%TO.N,*%
X62320000Y-72510000D03*
%TD*%
%TO.P,REF\u002A\u002A690,*%
%TO.N,*%
X77560000Y-118230000D03*
%TD*%
%TO.P,REF\u002A\u002A887,*%
%TO.N,*%
X34380000Y-115690000D03*
%TD*%
%TO.P,REF\u002A\u002A859,*%
%TO.N,*%
X36920000Y-92830000D03*
%TD*%
%TO.P,REF\u002A\u002A211,*%
%TO.N,*%
X54700000Y-80130000D03*
%TD*%
%TO.P,REF\u002A\u002A68,*%
%TO.N,*%
X42000000Y-123310000D03*
%TD*%
%TO.P,REF\u002A\u002A69,*%
%TO.N,*%
X44540000Y-123310000D03*
%TD*%
%TO.P,REF\u002A\u002A122,*%
%TO.N,*%
X52160000Y-52190000D03*
%TD*%
%TO.P,REF\u002A\u002A850,*%
%TO.N,*%
X36920000Y-85210000D03*
%TD*%
%TO.P,REF\u002A\u002A737,*%
%TO.N,*%
X95340000Y-57270000D03*
%TD*%
%TO.P,REF\u002A\u002A286,*%
%TO.N,*%
X62320000Y-102990000D03*
%TD*%
%TO.P,REF\u002A\u002A643,*%
%TO.N,*%
X80100000Y-102990000D03*
%TD*%
%TO.P,REF\u002A\u002A184,*%
%TO.N,*%
X47080000Y-72510000D03*
%TD*%
%TO.P,REF\u002A\u002A149,*%
%TO.N,*%
X59780000Y-59810000D03*
%TD*%
%TO.P,REF\u002A\u002A417,*%
%TO.N,*%
X69940000Y-108070000D03*
%TD*%
%TO.P,REF\u002A\u002A25,*%
%TO.N,*%
X44540000Y-67430000D03*
%TD*%
%TO.P,REF\u002A\u002A801,*%
%TO.N,*%
X39460000Y-44570000D03*
%TD*%
%TO.P,REF\u002A\u002A18,*%
%TO.N,*%
X42000000Y-59810000D03*
%TD*%
%TO.P,REF\u002A\u002A593,*%
%TO.N,*%
X75020000Y-87750000D03*
%TD*%
%TO.P,REF\u002A\u002A520,*%
%TO.N,*%
X72480000Y-64890000D03*
%TD*%
%TO.P,REF\u002A\u002A696,*%
%TO.N,*%
X72480000Y-120770000D03*
%TD*%
%TO.P,REF\u002A\u002A503,*%
%TO.N,*%
X90260000Y-57270000D03*
%TD*%
%TO.P,REF\u002A\u002A305,*%
%TO.N,*%
X49620000Y-110610000D03*
%TD*%
%TO.P,REF\u002A\u002A177,*%
%TO.N,*%
X49620000Y-69970000D03*
%TD*%
%TO.P,REF\u002A\u002A525,*%
%TO.N,*%
X85180000Y-64890000D03*
%TD*%
%TO.P,REF\u002A\u002A178,*%
%TO.N,*%
X52160000Y-69970000D03*
%TD*%
%TO.P,REF\u002A\u002A708,*%
%TO.N,*%
X82640000Y-123310000D03*
%TD*%
%TO.P,REF\u002A\u002A866,*%
%TO.N,*%
X34380000Y-97910000D03*
%TD*%
%TO.P,REF\u002A\u002A662,*%
%TO.N,*%
X87720000Y-108070000D03*
%TD*%
%TO.P,REF\u002A\u002A213,*%
%TO.N,*%
X59780000Y-80130000D03*
%TD*%
%TO.P,REF\u002A\u002A512,*%
%TO.N,*%
X72480000Y-62350000D03*
%TD*%
%TO.P,REF\u002A\u002A842,*%
%TO.N,*%
X34380000Y-77590000D03*
%TD*%
%TO.P,REF\u002A\u002A349,*%
%TO.N,*%
X59780000Y-123310000D03*
%TD*%
%TO.P,REF\u002A\u002A406,*%
%TO.N,*%
X67400000Y-95370000D03*
%TD*%
%TO.P,REF\u002A\u002A779,*%
%TO.N,*%
X95340000Y-110610000D03*
%TD*%
%TO.P,REF\u002A\u002A663,*%
%TO.N,*%
X90260000Y-108070000D03*
%TD*%
%TO.P,REF\u002A\u002A148,*%
%TO.N,*%
X57240000Y-59810000D03*
%TD*%
%TO.P,REF\u002A\u002A215,*%
%TO.N,*%
X64860000Y-80130000D03*
%TD*%
%TO.P,REF\u002A\u002A860,*%
%TO.N,*%
X34380000Y-92830000D03*
%TD*%
%TO.P,REF\u002A\u002A199,*%
%TO.N,*%
X64860000Y-75050000D03*
%TD*%
%TO.P,REF\u002A\u002A12,*%
%TO.N,*%
X42000000Y-52190000D03*
%TD*%
%TO.P,REF\u002A\u002A15,*%
%TO.N,*%
X44540000Y-54730000D03*
%TD*%
%TO.P,REF\u002A\u002A772,*%
%TO.N,*%
X92800000Y-102990000D03*
%TD*%
%TO.P,REF\u002A\u002A798,*%
%TO.N,*%
X39460000Y-42030000D03*
%TD*%
%TO.P,REF\u002A\u002A181,*%
%TO.N,*%
X59780000Y-69970000D03*
%TD*%
%TO.P,REF\u002A\u002A448,*%
%TO.N,*%
X72480000Y-42030000D03*
%TD*%
%TO.P,REF\u002A\u002A864,*%
%TO.N,*%
X39460000Y-97910000D03*
%TD*%
%TO.P,REF\u002A\u002A133,*%
%TO.N,*%
X59780000Y-54730000D03*
%TD*%
%TO.P,REF\u002A\u002A849,*%
%TO.N,*%
X39460000Y-85210000D03*
%TD*%
%TO.P,REF\u002A\u002A455,*%
%TO.N,*%
X90260000Y-42030000D03*
%TD*%
%TO.P,REF\u002A\u002A337,*%
%TO.N,*%
X49620000Y-120770000D03*
%TD*%
%TO.P,REF\u002A\u002A641,*%
%TO.N,*%
X75020000Y-102990000D03*
%TD*%
%TO.P,REF\u002A\u002A831,*%
%TO.N,*%
X39460000Y-69970000D03*
%TD*%
%TO.P,REF\u002A\u002A839,*%
%TO.N,*%
X34380000Y-75050000D03*
%TD*%
%TO.P,REF\u002A\u002A894,*%
%TO.N,*%
X39460000Y-123310000D03*
%TD*%
%TO.P,REF\u002A\u002A647,*%
%TO.N,*%
X90260000Y-102990000D03*
%TD*%
%TO.P,REF\u002A\u002A409,*%
%TO.N,*%
X69940000Y-97910000D03*
%TD*%
%TO.P,REF\u002A\u002A542,*%
%TO.N,*%
X87720000Y-69970000D03*
%TD*%
%TO.P,REF\u002A\u002A535,*%
%TO.N,*%
X90260000Y-67430000D03*
%TD*%
%TO.P,REF\u002A\u002A471,*%
%TO.N,*%
X90260000Y-47110000D03*
%TD*%
%TO.P,REF\u002A\u002A869,*%
%TO.N,*%
X34380000Y-100450000D03*
%TD*%
%TO.P,REF\u002A\u002A526,*%
%TO.N,*%
X87720000Y-64890000D03*
%TD*%
%TO.P,REF\u002A\u002A382,*%
%TO.N,*%
X67400000Y-64890000D03*
%TD*%
%TO.P,REF\u002A\u002A480,*%
%TO.N,*%
X72480000Y-52190000D03*
%TD*%
%TO.P,REF\u002A\u002A165,*%
%TO.N,*%
X59780000Y-64890000D03*
%TD*%
%TO.P,REF\u002A\u002A743,*%
%TO.N,*%
X95340000Y-64890000D03*
%TD*%
%TO.P,REF\u002A\u002A313,*%
%TO.N,*%
X49620000Y-113150000D03*
%TD*%
%TO.P,REF\u002A\u002A803,*%
%TO.N,*%
X34380000Y-44570000D03*
%TD*%
%TO.P,REF\u002A\u002A687,*%
%TO.N,*%
X90260000Y-115690000D03*
%TD*%
%TO.P,REF\u002A\u002A201,*%
%TO.N,*%
X49620000Y-77590000D03*
%TD*%
%TO.P,REF\u002A\u002A365,*%
%TO.N,*%
X69940000Y-42030000D03*
%TD*%
%TO.P,REF\u002A\u002A397,*%
%TO.N,*%
X69940000Y-82670000D03*
%TD*%
%TO.P,REF\u002A\u002A861,*%
%TO.N,*%
X39460000Y-95370000D03*
%TD*%
%TO.P,REF\u002A\u002A855,*%
%TO.N,*%
X39460000Y-90290000D03*
%TD*%
%TO.P,REF\u002A\u002A203,*%
%TO.N,*%
X54700000Y-77590000D03*
%TD*%
%TO.P,REF\u002A\u002A52,*%
%TO.N,*%
X42000000Y-102990000D03*
%TD*%
%TO.P,REF\u002A\u002A590,*%
%TO.N,*%
X87720000Y-85210000D03*
%TD*%
%TO.P,REF\u002A\u002A481,*%
%TO.N,*%
X75020000Y-52190000D03*
%TD*%
%TO.P,REF\u002A\u002A631,*%
%TO.N,*%
X90260000Y-97910000D03*
%TD*%
%TO.P,REF\u002A\u002A649,*%
%TO.N,*%
X75020000Y-105530000D03*
%TD*%
%TO.P,REF\u002A\u002A806,*%
%TO.N,*%
X34380000Y-47110000D03*
%TD*%
%TO.P,REF\u002A\u002A373,*%
%TO.N,*%
X69940000Y-52190000D03*
%TD*%
%TO.P,REF\u002A\u002A456,*%
%TO.N,*%
X72480000Y-44570000D03*
%TD*%
%TO.P,REF\u002A\u002A541,*%
%TO.N,*%
X85180000Y-69970000D03*
%TD*%
%TO.P,REF\u002A\u002A883,*%
%TO.N,*%
X36920000Y-113150000D03*
%TD*%
%TO.P,REF\u002A\u002A706,*%
%TO.N,*%
X77560000Y-123310000D03*
%TD*%
%TO.P,REF\u002A\u002A589,*%
%TO.N,*%
X85180000Y-85210000D03*
%TD*%
%TO.P,REF\u002A\u002A516,*%
%TO.N,*%
X82640000Y-62350000D03*
%TD*%
%TO.P,REF\u002A\u002A788,*%
%TO.N,*%
X92800000Y-123310000D03*
%TD*%
%TO.P,REF\u002A\u002A308,*%
%TO.N,*%
X57240000Y-110610000D03*
%TD*%
%TO.P,REF\u002A\u002A805,*%
%TO.N,*%
X36920000Y-47110000D03*
%TD*%
%TO.P,REF\u002A\u002A616,*%
%TO.N,*%
X72480000Y-95370000D03*
%TD*%
%TO.P,REF\u002A\u002A28,*%
%TO.N,*%
X42000000Y-72510000D03*
%TD*%
%TO.P,REF\u002A\u002A24,*%
%TO.N,*%
X42000000Y-67430000D03*
%TD*%
%TO.P,REF\u002A\u002A651,*%
%TO.N,*%
X80100000Y-105530000D03*
%TD*%
%TO.P,REF\u002A\u002A753,*%
%TO.N,*%
X95340000Y-77590000D03*
%TD*%
%TO.P,REF\u002A\u002A661,*%
%TO.N,*%
X85180000Y-108070000D03*
%TD*%
%TO.P,REF\u002A\u002A101,*%
%TO.N,*%
X59780000Y-44570000D03*
%TD*%
%TO.P,REF\u002A\u002A39,*%
%TO.N,*%
X44540000Y-85210000D03*
%TD*%
%TO.P,REF\u002A\u002A130,*%
%TO.N,*%
X52160000Y-54730000D03*
%TD*%
%TO.P,REF\u002A\u002A118,*%
%TO.N,*%
X62320000Y-49650000D03*
%TD*%
%TO.P,REF\u002A\u002A700,*%
%TO.N,*%
X82640000Y-120770000D03*
%TD*%
%TO.P,REF\u002A\u002A251,*%
%TO.N,*%
X54700000Y-92830000D03*
%TD*%
%TO.P,REF\u002A\u002A345,*%
%TO.N,*%
X49620000Y-123310000D03*
%TD*%
%TO.P,REF\u002A\u002A800,*%
%TO.N,*%
X34380000Y-42030000D03*
%TD*%
%TO.P,REF\u002A\u002A878,*%
%TO.N,*%
X34380000Y-108070000D03*
%TD*%
%TO.P,REF\u002A\u002A472,*%
%TO.N,*%
X72480000Y-49650000D03*
%TD*%
%TO.P,REF\u002A\u002A789,*%
%TO.N,*%
X95340000Y-123310000D03*
%TD*%
%TO.P,REF\u002A\u002A581,*%
%TO.N,*%
X85180000Y-82670000D03*
%TD*%
%TO.P,REF\u002A\u002A621,*%
%TO.N,*%
X85180000Y-95370000D03*
%TD*%
%TO.P,REF\u002A\u002A879,*%
%TO.N,*%
X39460000Y-110610000D03*
%TD*%
%TO.P,REF\u002A\u002A402,*%
%TO.N,*%
X67400000Y-90290000D03*
%TD*%
%TO.P,REF\u002A\u002A336,*%
%TO.N,*%
X47080000Y-120770000D03*
%TD*%
%TO.P,REF\u002A\u002A329,*%
%TO.N,*%
X49620000Y-118230000D03*
%TD*%
%TO.P,REF\u002A\u002A51,*%
%TO.N,*%
X44540000Y-100450000D03*
%TD*%
%TO.P,REF\u002A\u002A533,*%
%TO.N,*%
X85180000Y-67430000D03*
%TD*%
%TO.P,REF\u002A\u002A622,*%
%TO.N,*%
X87720000Y-95370000D03*
%TD*%
%TO.P,REF\u002A\u002A748,*%
%TO.N,*%
X92800000Y-72510000D03*
%TD*%
%TO.P,REF\u002A\u002A32,*%
%TO.N,*%
X42000000Y-77590000D03*
%TD*%
%TO.P,REF\u002A\u002A636,*%
%TO.N,*%
X82640000Y-100450000D03*
%TD*%
%TO.P,REF\u002A\u002A467,*%
%TO.N,*%
X80100000Y-47110000D03*
%TD*%
%TO.P,REF\u002A\u002A511,*%
%TO.N,*%
X90260000Y-59810000D03*
%TD*%
%TO.P,REF\u002A\u002A739,*%
%TO.N,*%
X95340000Y-59810000D03*
%TD*%
%TO.P,REF\u002A\u002A596,*%
%TO.N,*%
X82640000Y-87750000D03*
%TD*%
%TO.P,REF\u002A\u002A238,*%
%TO.N,*%
X62320000Y-87750000D03*
%TD*%
%TO.P,REF\u002A\u002A579,*%
%TO.N,*%
X80100000Y-82670000D03*
%TD*%
%TO.P,REF\u002A\u002A605,*%
%TO.N,*%
X85180000Y-90290000D03*
%TD*%
%TO.P,REF\u002A\u002A614,*%
%TO.N,*%
X87720000Y-92830000D03*
%TD*%
%TO.P,REF\u002A\u002A669,*%
%TO.N,*%
X85180000Y-110610000D03*
%TD*%
%TO.P,REF\u002A\u002A493,*%
%TO.N,*%
X85180000Y-54730000D03*
%TD*%
%TO.P,REF\u002A\u002A306,*%
%TO.N,*%
X52160000Y-110610000D03*
%TD*%
%TO.P,REF\u002A\u002A62,*%
%TO.N,*%
X42000000Y-115690000D03*
%TD*%
%TO.P,REF\u002A\u002A226,*%
%TO.N,*%
X52160000Y-85210000D03*
%TD*%
%TO.P,REF\u002A\u002A689,*%
%TO.N,*%
X75020000Y-118230000D03*
%TD*%
%TO.P,REF\u002A\u002A291,*%
%TO.N,*%
X54700000Y-105530000D03*
%TD*%
%TO.P,REF\u002A\u002A513,*%
%TO.N,*%
X75020000Y-62350000D03*
%TD*%
%TO.P,REF\u002A\u002A407,*%
%TO.N,*%
X69940000Y-95370000D03*
%TD*%
%TO.P,REF\u002A\u002A66,*%
%TO.N,*%
X42000000Y-120770000D03*
%TD*%
%TO.P,REF\u002A\u002A877,*%
%TO.N,*%
X36920000Y-108070000D03*
%TD*%
%TO.P,REF\u002A\u002A665,*%
%TO.N,*%
X75020000Y-110610000D03*
%TD*%
%TO.P,REF\u002A\u002A780,*%
%TO.N,*%
X92800000Y-113150000D03*
%TD*%
%TO.P,REF\u002A\u002A275,*%
%TO.N,*%
X54700000Y-100450000D03*
%TD*%
%TO.P,REF\u002A\u002A210,*%
%TO.N,*%
X52160000Y-80130000D03*
%TD*%
%TO.P,REF\u002A\u002A683,*%
%TO.N,*%
X80100000Y-115690000D03*
%TD*%
%TO.P,REF\u002A\u002A299,*%
%TO.N,*%
X54700000Y-108070000D03*
%TD*%
%TO.P,REF\u002A\u002A90,*%
%TO.N,*%
X52160000Y-42030000D03*
%TD*%
%TO.P,REF\u002A\u002A865,*%
%TO.N,*%
X36920000Y-97910000D03*
%TD*%
%TO.P,REF\u002A\u002A646,*%
%TO.N,*%
X87720000Y-102990000D03*
%TD*%
%TO.P,REF\u002A\u002A418,*%
%TO.N,*%
X67400000Y-110610000D03*
%TD*%
%TO.P,REF\u002A\u002A171,*%
%TO.N,*%
X54700000Y-67430000D03*
%TD*%
%TO.P,REF\u002A\u002A627,*%
%TO.N,*%
X80100000Y-97910000D03*
%TD*%
%TO.P,REF\u002A\u002A620,*%
%TO.N,*%
X82640000Y-95370000D03*
%TD*%
D15*
%TO.N,*%
X93000000Y-41830000D02*
X92800000Y-42030000D01*
X47080000Y-102990000D02*
X64860000Y-102990000D01*
X47080000Y-44570000D02*
X64860000Y-44570000D01*
X47080000Y-82670000D02*
X64860000Y-82670000D01*
X47080000Y-95370000D02*
X64860000Y-95370000D01*
X44540000Y-39460000D02*
X46000000Y-38000000D01*
X90080000Y-38080000D02*
X93000000Y-41000000D01*
X72480000Y-72560000D02*
X90260000Y-72560000D01*
X72480000Y-92880000D02*
X90260000Y-92880000D01*
X47080000Y-85210000D02*
X64860000Y-85210000D01*
X72480000Y-85260000D02*
X90260000Y-85260000D01*
X72480000Y-62400000D02*
X90260000Y-62400000D01*
X45000000Y-36000000D02*
X42000000Y-39000000D01*
X72480000Y-75100000D02*
X90260000Y-75100000D01*
X72480000Y-42080000D02*
X90260000Y-42080000D01*
X42000000Y-39000000D02*
X42000000Y-42030000D01*
X72480000Y-54780000D02*
X90260000Y-54780000D01*
X47080000Y-113150000D02*
X64860000Y-113150000D01*
X90080000Y-37920000D02*
X90080000Y-38080000D01*
X46000000Y-38000000D02*
X90000000Y-38000000D01*
X47080000Y-75050000D02*
X64860000Y-75050000D01*
X95340000Y-42030000D02*
X95340000Y-123310000D01*
X85000000Y-36000000D02*
X45000000Y-36000000D01*
X72480000Y-67480000D02*
X90260000Y-67480000D01*
X47080000Y-120770000D02*
X64860000Y-120770000D01*
X92620000Y-33460000D02*
X92620000Y-36000000D01*
X92620000Y-36000000D02*
X87540000Y-36000000D01*
X90080000Y-36000000D02*
X90080000Y-33460000D01*
X47080000Y-80130000D02*
X64860000Y-80130000D01*
X47080000Y-90290000D02*
X64860000Y-90290000D01*
X47080000Y-42030000D02*
X64860000Y-42030000D01*
X72480000Y-108120000D02*
X90260000Y-108120000D01*
X72480000Y-52240000D02*
X90260000Y-52240000D01*
X93000000Y-41000000D02*
X93000000Y-41830000D01*
X47080000Y-108070000D02*
X64860000Y-108070000D01*
X72480000Y-57320000D02*
X90260000Y-57320000D01*
X90000000Y-38000000D02*
X90080000Y-37920000D01*
X87540000Y-33460000D02*
X87540000Y-36000000D01*
X85000000Y-33460000D02*
X85000000Y-36000000D01*
X72480000Y-97960000D02*
X90260000Y-97960000D01*
X72480000Y-113200000D02*
X90260000Y-113200000D01*
X67400000Y-123310000D02*
X67400000Y-42030000D01*
X72480000Y-110660000D02*
X90260000Y-110660000D01*
X47080000Y-67430000D02*
X64860000Y-67430000D01*
X72480000Y-59860000D02*
X90260000Y-59860000D01*
X47080000Y-47110000D02*
X64860000Y-47110000D01*
X47080000Y-87750000D02*
X64860000Y-87750000D01*
X47080000Y-57270000D02*
X64860000Y-57270000D01*
X42000000Y-42030000D02*
X42000000Y-123310000D01*
X47080000Y-49650000D02*
X64860000Y-49650000D01*
X72480000Y-82720000D02*
X90260000Y-82720000D01*
X44540000Y-42030000D02*
X44540000Y-123310000D01*
X95160000Y-36000000D02*
X95160000Y-41850000D01*
X72480000Y-90340000D02*
X90260000Y-90340000D01*
X47080000Y-72510000D02*
X64860000Y-72510000D01*
X72480000Y-95420000D02*
X90260000Y-95420000D01*
X72480000Y-100500000D02*
X90260000Y-100500000D01*
X95160000Y-41850000D02*
X95340000Y-42030000D01*
X47080000Y-105530000D02*
X64860000Y-105530000D01*
X47080000Y-92830000D02*
X64860000Y-92830000D01*
X72480000Y-103040000D02*
X90260000Y-103040000D01*
X72480000Y-49700000D02*
X90260000Y-49700000D01*
X47080000Y-64890000D02*
X64860000Y-64890000D01*
X72480000Y-105580000D02*
X90260000Y-105580000D01*
X87540000Y-33460000D02*
X92620000Y-33460000D01*
X47080000Y-77590000D02*
X64860000Y-77590000D01*
X47080000Y-69970000D02*
X64860000Y-69970000D01*
X72480000Y-123360000D02*
X90260000Y-123360000D01*
X47080000Y-118230000D02*
X64860000Y-118230000D01*
X47080000Y-100450000D02*
X64860000Y-100450000D01*
X72480000Y-70020000D02*
X90260000Y-70020000D01*
X72480000Y-44620000D02*
X90260000Y-44620000D01*
X95160000Y-33460000D02*
X95160000Y-36000000D01*
X72480000Y-80180000D02*
X90260000Y-80180000D01*
X69940000Y-42030000D02*
X69940000Y-123310000D01*
X72480000Y-47160000D02*
X90260000Y-47160000D01*
X47080000Y-123310000D02*
X64860000Y-123310000D01*
X72480000Y-120820000D02*
X90260000Y-120820000D01*
X90080000Y-37920000D02*
X90080000Y-36000000D01*
X72480000Y-115740000D02*
X90260000Y-115740000D01*
X47080000Y-97910000D02*
X64860000Y-97910000D01*
X72480000Y-87800000D02*
X90260000Y-87800000D01*
X47080000Y-52190000D02*
X64860000Y-52190000D01*
X47080000Y-110610000D02*
X64860000Y-110610000D01*
X47080000Y-115690000D02*
X64860000Y-115690000D01*
X47080000Y-59810000D02*
X64860000Y-59810000D01*
X47080000Y-54730000D02*
X64860000Y-54730000D01*
X72480000Y-118280000D02*
X90260000Y-118280000D01*
X47080000Y-62350000D02*
X64860000Y-62350000D01*
X72480000Y-77640000D02*
X90260000Y-77640000D01*
X92800000Y-42030000D02*
X92800000Y-123310000D01*
X72480000Y-64940000D02*
X90260000Y-64940000D01*
X44540000Y-42030000D02*
X44540000Y-39460000D01*
%TD*%
M02*
