%TF.GenerationSoftware,KiCad,Pcbnew,(6.0.8-1)-1*%
%TF.CreationDate,2023-02-02T10:16:17-05:00*%
%TF.ProjectId,protopcb,70726f74-6f70-4636-922e-6b696361645f,rev?*%
%TF.SameCoordinates,Original*%
%TF.FileFunction,Legend,Top*%
%TF.FilePolarity,Positive*%
%FSLAX46Y46*%
G04 Gerber Fmt 4.6, Leading zero omitted, Abs format (unit mm)*
G04 Created by KiCad (PCBNEW (6.0.8-1)-1) date 2023-02-02 10:16:17*
%MOMM*%
%LPD*%
G01*
G04 APERTURE LIST*
%ADD10C,0.150000*%
%ADD11C,0.120000*%
G04 APERTURE END LIST*
D10*
X94000000Y-32250000D02*
X96250000Y-32250000D01*
X96250000Y-32250000D02*
X96250000Y-37250000D01*
X96250000Y-37250000D02*
X94000000Y-37250000D01*
X94000000Y-37250000D02*
X94000000Y-32250000D01*
X44540000Y-121790000D02*
X44540000Y-122290000D01*
X42000000Y-121790000D02*
X42000000Y-122290000D01*
X44540000Y-119250000D02*
X44540000Y-119750000D01*
X42000000Y-119250000D02*
X42000000Y-119750000D01*
X44540000Y-116710000D02*
X44540000Y-117210000D01*
X42000000Y-116710000D02*
X42000000Y-117210000D01*
X44540000Y-114170000D02*
X44540000Y-114670000D01*
X42000000Y-114170000D02*
X42000000Y-114670000D01*
X44540000Y-111630000D02*
X44540000Y-112130000D01*
X42000000Y-111630000D02*
X42000000Y-112130000D01*
X44540000Y-109090000D02*
X44540000Y-109590000D01*
X42000000Y-109090000D02*
X42000000Y-109590000D01*
X44540000Y-106550000D02*
X44540000Y-107050000D01*
X42000000Y-106550000D02*
X42000000Y-107050000D01*
X44540000Y-104010000D02*
X44540000Y-104510000D01*
X42000000Y-104010000D02*
X42000000Y-104510000D01*
X44540000Y-101470000D02*
X44540000Y-101970000D01*
X42000000Y-101470000D02*
X42000000Y-101970000D01*
X44540000Y-98930000D02*
X44540000Y-99430000D01*
X42000000Y-98930000D02*
X42000000Y-99430000D01*
X44540000Y-96390000D02*
X44540000Y-96890000D01*
X42000000Y-96390000D02*
X42000000Y-96890000D01*
X44540000Y-93850000D02*
X44540000Y-94350000D01*
X42000000Y-93850000D02*
X42000000Y-94350000D01*
X44540000Y-91310000D02*
X44540000Y-91810000D01*
X42000000Y-91310000D02*
X42000000Y-91810000D01*
X44540000Y-88770000D02*
X44540000Y-89270000D01*
X42000000Y-88770000D02*
X42000000Y-89270000D01*
X44540000Y-86230000D02*
X44540000Y-86730000D01*
X42000000Y-86230000D02*
X42000000Y-86730000D01*
X44540000Y-83690000D02*
X44540000Y-84190000D01*
X42000000Y-83690000D02*
X42000000Y-84190000D01*
X44540000Y-81150000D02*
X44540000Y-81650000D01*
X42000000Y-81150000D02*
X42000000Y-81650000D01*
X44540000Y-78610000D02*
X44540000Y-79110000D01*
X42000000Y-78610000D02*
X42000000Y-79110000D01*
X44540000Y-76070000D02*
X44540000Y-76570000D01*
X42000000Y-76070000D02*
X42000000Y-76570000D01*
X44540000Y-73530000D02*
X44540000Y-74030000D01*
X42000000Y-73530000D02*
X42000000Y-74030000D01*
X44540000Y-70990000D02*
X44540000Y-71490000D01*
X42000000Y-70990000D02*
X42000000Y-71490000D01*
X44540000Y-68450000D02*
X44540000Y-68950000D01*
X42000000Y-68450000D02*
X42000000Y-68950000D01*
X44540000Y-65910000D02*
X44540000Y-66410000D01*
X42000000Y-65910000D02*
X42000000Y-66410000D01*
X44540000Y-63370000D02*
X44540000Y-63870000D01*
X42000000Y-63370000D02*
X42000000Y-63870000D01*
X44540000Y-60830000D02*
X44540000Y-61330000D01*
X42000000Y-60830000D02*
X42000000Y-61330000D01*
X44540000Y-58290000D02*
X44540000Y-58790000D01*
X42000000Y-58290000D02*
X42000000Y-58790000D01*
X44540000Y-55750000D02*
X44540000Y-56250000D01*
X42000000Y-55750000D02*
X42000000Y-56250000D01*
X44540000Y-53210000D02*
X44540000Y-53710000D01*
X42000000Y-53210000D02*
X42000000Y-53710000D01*
X44540000Y-50670000D02*
X44540000Y-51170000D01*
X42000000Y-50670000D02*
X42000000Y-51170000D01*
X44540000Y-48130000D02*
X44540000Y-48630000D01*
X42000000Y-48130000D02*
X42000000Y-48630000D01*
X44540000Y-45590000D02*
X44540000Y-46090000D01*
X42000000Y-45590000D02*
X42000000Y-46090000D01*
X44540000Y-43050000D02*
X44540000Y-43550000D01*
X42000000Y-43050000D02*
X42000000Y-43550000D01*
X95290000Y-121790000D02*
X95290000Y-122290000D01*
X92750000Y-121790000D02*
X92750000Y-122290000D01*
X95290000Y-119250000D02*
X95290000Y-119750000D01*
X92750000Y-119250000D02*
X92750000Y-119750000D01*
X95290000Y-116710000D02*
X95290000Y-117210000D01*
X92750000Y-116710000D02*
X92750000Y-117210000D01*
X95290000Y-114170000D02*
X95290000Y-114670000D01*
X92750000Y-114170000D02*
X92750000Y-114670000D01*
X95290000Y-111630000D02*
X95290000Y-112130000D01*
X92750000Y-111630000D02*
X92750000Y-112130000D01*
X95290000Y-109090000D02*
X95290000Y-109590000D01*
X92750000Y-109090000D02*
X92750000Y-109590000D01*
X95290000Y-106550000D02*
X95290000Y-107050000D01*
X92750000Y-106550000D02*
X92750000Y-107050000D01*
X95290000Y-104010000D02*
X95290000Y-104510000D01*
X92750000Y-104010000D02*
X92750000Y-104510000D01*
X95290000Y-101470000D02*
X95290000Y-101970000D01*
X92750000Y-101470000D02*
X92750000Y-101970000D01*
X95290000Y-98930000D02*
X95290000Y-99430000D01*
X92750000Y-98930000D02*
X92750000Y-99430000D01*
X95290000Y-96390000D02*
X95290000Y-96890000D01*
X92750000Y-96390000D02*
X92750000Y-96890000D01*
X95290000Y-93850000D02*
X95290000Y-94350000D01*
X92750000Y-93850000D02*
X92750000Y-94350000D01*
X95290000Y-91310000D02*
X95290000Y-91810000D01*
X92750000Y-91310000D02*
X92750000Y-91810000D01*
X95290000Y-88770000D02*
X95290000Y-89270000D01*
X92750000Y-88770000D02*
X92750000Y-89270000D01*
X95290000Y-86230000D02*
X95290000Y-86730000D01*
X92750000Y-86230000D02*
X92750000Y-86730000D01*
X95290000Y-83690000D02*
X95290000Y-84190000D01*
X92750000Y-83690000D02*
X92750000Y-84190000D01*
X95290000Y-81150000D02*
X95290000Y-81650000D01*
X92750000Y-81150000D02*
X92750000Y-81650000D01*
X95290000Y-78610000D02*
X95290000Y-79110000D01*
X92750000Y-78610000D02*
X92750000Y-79110000D01*
X95290000Y-76070000D02*
X95290000Y-76570000D01*
X92750000Y-76070000D02*
X92750000Y-76570000D01*
X95290000Y-73530000D02*
X95290000Y-74030000D01*
X92750000Y-73530000D02*
X92750000Y-74030000D01*
X95290000Y-70990000D02*
X95290000Y-71490000D01*
X92750000Y-70990000D02*
X92750000Y-71490000D01*
X95290000Y-68450000D02*
X95290000Y-68950000D01*
X92750000Y-68450000D02*
X92750000Y-68950000D01*
X95290000Y-65910000D02*
X95290000Y-66410000D01*
X92750000Y-65910000D02*
X92750000Y-66410000D01*
X95290000Y-63370000D02*
X95290000Y-63870000D01*
X92750000Y-63370000D02*
X92750000Y-63870000D01*
X95290000Y-60830000D02*
X95290000Y-61330000D01*
X92750000Y-60830000D02*
X92750000Y-61330000D01*
X95290000Y-58290000D02*
X95290000Y-58790000D01*
X92750000Y-58290000D02*
X92750000Y-58790000D01*
X95290000Y-55750000D02*
X95290000Y-56250000D01*
X92750000Y-55750000D02*
X92750000Y-56250000D01*
X95290000Y-53210000D02*
X95290000Y-53710000D01*
X92750000Y-53210000D02*
X92750000Y-53710000D01*
X95290000Y-50670000D02*
X95290000Y-51170000D01*
X92750000Y-50670000D02*
X92750000Y-51170000D01*
X95290000Y-48130000D02*
X95290000Y-48630000D01*
X92750000Y-48130000D02*
X92750000Y-48630000D01*
X95290000Y-45590000D02*
X95290000Y-46090000D01*
X92750000Y-45590000D02*
X92750000Y-46090000D01*
X95290000Y-43050000D02*
X95290000Y-43550000D01*
X92750000Y-43050000D02*
X92750000Y-43550000D01*
X69940000Y-121790000D02*
X69940000Y-122290000D01*
X67400000Y-121790000D02*
X67400000Y-122290000D01*
X69940000Y-119250000D02*
X69940000Y-119750000D01*
X67400000Y-119250000D02*
X67400000Y-119750000D01*
X69940000Y-116710000D02*
X69940000Y-117210000D01*
X67400000Y-116710000D02*
X67400000Y-117210000D01*
X69940000Y-114170000D02*
X69940000Y-114670000D01*
X67400000Y-114170000D02*
X67400000Y-114670000D01*
X69940000Y-111630000D02*
X69940000Y-112130000D01*
X67400000Y-111630000D02*
X67400000Y-112130000D01*
X69940000Y-109090000D02*
X69940000Y-109590000D01*
X67400000Y-109090000D02*
X67400000Y-109590000D01*
X69940000Y-106550000D02*
X69940000Y-107050000D01*
X67400000Y-106550000D02*
X67400000Y-107050000D01*
X69940000Y-104010000D02*
X69940000Y-104510000D01*
X67400000Y-104010000D02*
X67400000Y-104510000D01*
X69940000Y-101470000D02*
X69940000Y-101970000D01*
X67400000Y-101470000D02*
X67400000Y-101970000D01*
X69940000Y-98930000D02*
X69940000Y-99430000D01*
X67400000Y-98930000D02*
X67400000Y-99430000D01*
X69940000Y-96390000D02*
X69940000Y-96890000D01*
X67400000Y-96390000D02*
X67400000Y-96890000D01*
X69940000Y-93850000D02*
X69940000Y-94350000D01*
X67400000Y-93850000D02*
X67400000Y-94350000D01*
X69940000Y-91310000D02*
X69940000Y-91810000D01*
X67400000Y-91310000D02*
X67400000Y-91810000D01*
X69940000Y-88770000D02*
X69940000Y-89270000D01*
X67400000Y-88770000D02*
X67400000Y-89270000D01*
X69940000Y-86230000D02*
X69940000Y-86730000D01*
X67400000Y-86230000D02*
X67400000Y-86730000D01*
X69940000Y-83690000D02*
X69940000Y-84190000D01*
X67400000Y-83690000D02*
X67400000Y-84190000D01*
X69940000Y-81150000D02*
X69940000Y-81650000D01*
X67400000Y-81150000D02*
X67400000Y-81650000D01*
X69940000Y-78610000D02*
X69940000Y-79110000D01*
X67400000Y-78610000D02*
X67400000Y-79110000D01*
X69940000Y-76070000D02*
X69940000Y-76570000D01*
X67400000Y-76070000D02*
X67400000Y-76570000D01*
X69940000Y-73530000D02*
X69940000Y-74030000D01*
X67400000Y-73530000D02*
X67400000Y-74030000D01*
X69940000Y-70990000D02*
X69940000Y-71490000D01*
X67400000Y-70990000D02*
X67400000Y-71490000D01*
X69940000Y-68450000D02*
X69940000Y-68950000D01*
X67400000Y-68450000D02*
X67400000Y-68950000D01*
X69940000Y-65910000D02*
X69940000Y-66410000D01*
X67400000Y-65910000D02*
X67400000Y-66410000D01*
X69940000Y-63370000D02*
X69940000Y-63870000D01*
X67400000Y-63370000D02*
X67400000Y-63870000D01*
X69940000Y-60830000D02*
X69940000Y-61330000D01*
X67400000Y-60830000D02*
X67400000Y-61330000D01*
X69940000Y-58290000D02*
X69940000Y-58790000D01*
X67400000Y-58290000D02*
X67400000Y-58790000D01*
X69940000Y-55750000D02*
X69940000Y-56250000D01*
X67400000Y-55750000D02*
X67400000Y-56250000D01*
X69940000Y-53210000D02*
X69940000Y-53710000D01*
X67400000Y-53210000D02*
X67400000Y-53710000D01*
X69940000Y-50670000D02*
X69940000Y-51170000D01*
X67400000Y-50670000D02*
X67400000Y-51170000D01*
X69940000Y-48130000D02*
X69940000Y-48630000D01*
X67400000Y-48130000D02*
X67400000Y-48630000D01*
X69940000Y-45590000D02*
X69940000Y-46090000D01*
X67400000Y-45590000D02*
X67400000Y-46090000D01*
X69940000Y-43050000D02*
X69940000Y-43550000D01*
X67400000Y-43050000D02*
X67400000Y-43550000D01*
X88740000Y-123280000D02*
X89240000Y-123280000D01*
X86200000Y-123280000D02*
X86700000Y-123280000D01*
X83660000Y-123280000D02*
X84160000Y-123280000D01*
X81120000Y-123280000D02*
X81620000Y-123280000D01*
X78580000Y-123280000D02*
X79080000Y-123280000D01*
X76040000Y-123280000D02*
X76540000Y-123280000D01*
X73500000Y-123280000D02*
X74000000Y-123280000D01*
X88740000Y-120740000D02*
X89240000Y-120740000D01*
X86200000Y-120740000D02*
X86700000Y-120740000D01*
X83660000Y-120740000D02*
X84160000Y-120740000D01*
X81120000Y-120740000D02*
X81620000Y-120740000D01*
X78580000Y-120740000D02*
X79080000Y-120740000D01*
X76040000Y-120740000D02*
X76540000Y-120740000D01*
X73500000Y-120740000D02*
X74000000Y-120740000D01*
X88740000Y-118200000D02*
X89240000Y-118200000D01*
X86200000Y-118200000D02*
X86700000Y-118200000D01*
X83660000Y-118200000D02*
X84160000Y-118200000D01*
X81120000Y-118200000D02*
X81620000Y-118200000D01*
X78580000Y-118200000D02*
X79080000Y-118200000D01*
X76040000Y-118200000D02*
X76540000Y-118200000D01*
X73500000Y-118200000D02*
X74000000Y-118200000D01*
X88740000Y-115660000D02*
X89240000Y-115660000D01*
X86200000Y-115660000D02*
X86700000Y-115660000D01*
X83660000Y-115660000D02*
X84160000Y-115660000D01*
X81120000Y-115660000D02*
X81620000Y-115660000D01*
X78580000Y-115660000D02*
X79080000Y-115660000D01*
X76040000Y-115660000D02*
X76540000Y-115660000D01*
X73500000Y-115660000D02*
X74000000Y-115660000D01*
X88740000Y-113120000D02*
X89240000Y-113120000D01*
X86200000Y-113120000D02*
X86700000Y-113120000D01*
X83660000Y-113120000D02*
X84160000Y-113120000D01*
X81120000Y-113120000D02*
X81620000Y-113120000D01*
X78580000Y-113120000D02*
X79080000Y-113120000D01*
X76040000Y-113120000D02*
X76540000Y-113120000D01*
X73500000Y-113120000D02*
X74000000Y-113120000D01*
X88740000Y-110580000D02*
X89240000Y-110580000D01*
X86200000Y-110580000D02*
X86700000Y-110580000D01*
X83660000Y-110580000D02*
X84160000Y-110580000D01*
X81120000Y-110580000D02*
X81620000Y-110580000D01*
X78580000Y-110580000D02*
X79080000Y-110580000D01*
X76040000Y-110580000D02*
X76540000Y-110580000D01*
X73500000Y-110580000D02*
X74000000Y-110580000D01*
X88740000Y-108040000D02*
X89240000Y-108040000D01*
X86200000Y-108040000D02*
X86700000Y-108040000D01*
X83660000Y-108040000D02*
X84160000Y-108040000D01*
X81120000Y-108040000D02*
X81620000Y-108040000D01*
X78580000Y-108040000D02*
X79080000Y-108040000D01*
X76040000Y-108040000D02*
X76540000Y-108040000D01*
X73500000Y-108040000D02*
X74000000Y-108040000D01*
X88740000Y-105500000D02*
X89240000Y-105500000D01*
X86200000Y-105500000D02*
X86700000Y-105500000D01*
X83660000Y-105500000D02*
X84160000Y-105500000D01*
X81120000Y-105500000D02*
X81620000Y-105500000D01*
X78580000Y-105500000D02*
X79080000Y-105500000D01*
X76040000Y-105500000D02*
X76540000Y-105500000D01*
X73500000Y-105500000D02*
X74000000Y-105500000D01*
X88740000Y-102960000D02*
X89240000Y-102960000D01*
X86200000Y-102960000D02*
X86700000Y-102960000D01*
X83660000Y-102960000D02*
X84160000Y-102960000D01*
X81120000Y-102960000D02*
X81620000Y-102960000D01*
X78580000Y-102960000D02*
X79080000Y-102960000D01*
X76040000Y-102960000D02*
X76540000Y-102960000D01*
X73500000Y-102960000D02*
X74000000Y-102960000D01*
X88740000Y-100420000D02*
X89240000Y-100420000D01*
X86200000Y-100420000D02*
X86700000Y-100420000D01*
X83660000Y-100420000D02*
X84160000Y-100420000D01*
X81120000Y-100420000D02*
X81620000Y-100420000D01*
X78580000Y-100420000D02*
X79080000Y-100420000D01*
X76040000Y-100420000D02*
X76540000Y-100420000D01*
X73500000Y-100420000D02*
X74000000Y-100420000D01*
X88740000Y-97880000D02*
X89240000Y-97880000D01*
X86200000Y-97880000D02*
X86700000Y-97880000D01*
X83660000Y-97880000D02*
X84160000Y-97880000D01*
X81120000Y-97880000D02*
X81620000Y-97880000D01*
X78580000Y-97880000D02*
X79080000Y-97880000D01*
X76040000Y-97880000D02*
X76540000Y-97880000D01*
X73500000Y-97880000D02*
X74000000Y-97880000D01*
X88740000Y-95340000D02*
X89240000Y-95340000D01*
X86200000Y-95340000D02*
X86700000Y-95340000D01*
X83660000Y-95340000D02*
X84160000Y-95340000D01*
X81120000Y-95340000D02*
X81620000Y-95340000D01*
X78580000Y-95340000D02*
X79080000Y-95340000D01*
X76040000Y-95340000D02*
X76540000Y-95340000D01*
X73500000Y-95340000D02*
X74000000Y-95340000D01*
X88740000Y-92800000D02*
X89240000Y-92800000D01*
X86200000Y-92800000D02*
X86700000Y-92800000D01*
X83660000Y-92800000D02*
X84160000Y-92800000D01*
X81120000Y-92800000D02*
X81620000Y-92800000D01*
X78580000Y-92800000D02*
X79080000Y-92800000D01*
X76040000Y-92800000D02*
X76540000Y-92800000D01*
X73500000Y-92800000D02*
X74000000Y-92800000D01*
X88740000Y-90260000D02*
X89240000Y-90260000D01*
X86200000Y-90260000D02*
X86700000Y-90260000D01*
X83660000Y-90260000D02*
X84160000Y-90260000D01*
X81120000Y-90260000D02*
X81620000Y-90260000D01*
X78580000Y-90260000D02*
X79080000Y-90260000D01*
X76040000Y-90260000D02*
X76540000Y-90260000D01*
X73500000Y-90260000D02*
X74000000Y-90260000D01*
X88740000Y-87720000D02*
X89240000Y-87720000D01*
X86200000Y-87720000D02*
X86700000Y-87720000D01*
X83660000Y-87720000D02*
X84160000Y-87720000D01*
X81120000Y-87720000D02*
X81620000Y-87720000D01*
X78580000Y-87720000D02*
X79080000Y-87720000D01*
X76040000Y-87720000D02*
X76540000Y-87720000D01*
X73500000Y-87720000D02*
X74000000Y-87720000D01*
X88740000Y-85180000D02*
X89240000Y-85180000D01*
X86200000Y-85180000D02*
X86700000Y-85180000D01*
X83660000Y-85180000D02*
X84160000Y-85180000D01*
X81120000Y-85180000D02*
X81620000Y-85180000D01*
X78580000Y-85180000D02*
X79080000Y-85180000D01*
X76040000Y-85180000D02*
X76540000Y-85180000D01*
X73500000Y-85180000D02*
X74000000Y-85180000D01*
X88740000Y-82640000D02*
X89240000Y-82640000D01*
X86200000Y-82640000D02*
X86700000Y-82640000D01*
X83660000Y-82640000D02*
X84160000Y-82640000D01*
X81120000Y-82640000D02*
X81620000Y-82640000D01*
X78580000Y-82640000D02*
X79080000Y-82640000D01*
X76040000Y-82640000D02*
X76540000Y-82640000D01*
X73500000Y-82640000D02*
X74000000Y-82640000D01*
X88740000Y-80100000D02*
X89240000Y-80100000D01*
X86200000Y-80100000D02*
X86700000Y-80100000D01*
X83660000Y-80100000D02*
X84160000Y-80100000D01*
X81120000Y-80100000D02*
X81620000Y-80100000D01*
X78580000Y-80100000D02*
X79080000Y-80100000D01*
X76040000Y-80100000D02*
X76540000Y-80100000D01*
X73500000Y-80100000D02*
X74000000Y-80100000D01*
X88740000Y-77560000D02*
X89240000Y-77560000D01*
X86200000Y-77560000D02*
X86700000Y-77560000D01*
X83660000Y-77560000D02*
X84160000Y-77560000D01*
X81120000Y-77560000D02*
X81620000Y-77560000D01*
X78580000Y-77560000D02*
X79080000Y-77560000D01*
X76040000Y-77560000D02*
X76540000Y-77560000D01*
X73500000Y-77560000D02*
X74000000Y-77560000D01*
X88740000Y-75020000D02*
X89240000Y-75020000D01*
X86200000Y-75020000D02*
X86700000Y-75020000D01*
X83660000Y-75020000D02*
X84160000Y-75020000D01*
X81120000Y-75020000D02*
X81620000Y-75020000D01*
X78580000Y-75020000D02*
X79080000Y-75020000D01*
X76040000Y-75020000D02*
X76540000Y-75020000D01*
X73500000Y-75020000D02*
X74000000Y-75020000D01*
X88740000Y-72480000D02*
X89240000Y-72480000D01*
X86200000Y-72480000D02*
X86700000Y-72480000D01*
X83660000Y-72480000D02*
X84160000Y-72480000D01*
X81120000Y-72480000D02*
X81620000Y-72480000D01*
X78580000Y-72480000D02*
X79080000Y-72480000D01*
X76040000Y-72480000D02*
X76540000Y-72480000D01*
X73500000Y-72480000D02*
X74000000Y-72480000D01*
X88740000Y-69940000D02*
X89240000Y-69940000D01*
X86200000Y-69940000D02*
X86700000Y-69940000D01*
X83660000Y-69940000D02*
X84160000Y-69940000D01*
X81120000Y-69940000D02*
X81620000Y-69940000D01*
X78580000Y-69940000D02*
X79080000Y-69940000D01*
X76040000Y-69940000D02*
X76540000Y-69940000D01*
X73500000Y-69940000D02*
X74000000Y-69940000D01*
X88740000Y-67400000D02*
X89240000Y-67400000D01*
X86200000Y-67400000D02*
X86700000Y-67400000D01*
X83660000Y-67400000D02*
X84160000Y-67400000D01*
X81120000Y-67400000D02*
X81620000Y-67400000D01*
X78580000Y-67400000D02*
X79080000Y-67400000D01*
X76040000Y-67400000D02*
X76540000Y-67400000D01*
X73500000Y-67400000D02*
X74000000Y-67400000D01*
X88740000Y-64860000D02*
X89240000Y-64860000D01*
X86200000Y-64860000D02*
X86700000Y-64860000D01*
X83660000Y-64860000D02*
X84160000Y-64860000D01*
X81120000Y-64860000D02*
X81620000Y-64860000D01*
X78580000Y-64860000D02*
X79080000Y-64860000D01*
X76040000Y-64860000D02*
X76540000Y-64860000D01*
X73500000Y-64860000D02*
X74000000Y-64860000D01*
X88740000Y-62320000D02*
X89240000Y-62320000D01*
X86200000Y-62320000D02*
X86700000Y-62320000D01*
X83660000Y-62320000D02*
X84160000Y-62320000D01*
X81120000Y-62320000D02*
X81620000Y-62320000D01*
X78580000Y-62320000D02*
X79080000Y-62320000D01*
X76040000Y-62320000D02*
X76540000Y-62320000D01*
X73500000Y-62320000D02*
X74000000Y-62320000D01*
X88740000Y-59780000D02*
X89240000Y-59780000D01*
X86200000Y-59780000D02*
X86700000Y-59780000D01*
X83660000Y-59780000D02*
X84160000Y-59780000D01*
X81120000Y-59780000D02*
X81620000Y-59780000D01*
X78580000Y-59780000D02*
X79080000Y-59780000D01*
X76040000Y-59780000D02*
X76540000Y-59780000D01*
X73500000Y-59780000D02*
X74000000Y-59780000D01*
X88740000Y-57240000D02*
X89240000Y-57240000D01*
X86200000Y-57240000D02*
X86700000Y-57240000D01*
X83660000Y-57240000D02*
X84160000Y-57240000D01*
X81120000Y-57240000D02*
X81620000Y-57240000D01*
X78580000Y-57240000D02*
X79080000Y-57240000D01*
X76040000Y-57240000D02*
X76540000Y-57240000D01*
X73500000Y-57240000D02*
X74000000Y-57240000D01*
X88740000Y-54700000D02*
X89240000Y-54700000D01*
X86200000Y-54700000D02*
X86700000Y-54700000D01*
X83660000Y-54700000D02*
X84160000Y-54700000D01*
X81120000Y-54700000D02*
X81620000Y-54700000D01*
X78580000Y-54700000D02*
X79080000Y-54700000D01*
X76040000Y-54700000D02*
X76540000Y-54700000D01*
X73500000Y-54700000D02*
X74000000Y-54700000D01*
X88740000Y-52160000D02*
X89240000Y-52160000D01*
X86200000Y-52160000D02*
X86700000Y-52160000D01*
X83660000Y-52160000D02*
X84160000Y-52160000D01*
X81120000Y-52160000D02*
X81620000Y-52160000D01*
X78580000Y-52160000D02*
X79080000Y-52160000D01*
X76040000Y-52160000D02*
X76540000Y-52160000D01*
X73500000Y-52160000D02*
X74000000Y-52160000D01*
X88740000Y-49620000D02*
X89240000Y-49620000D01*
X86200000Y-49620000D02*
X86700000Y-49620000D01*
X83660000Y-49620000D02*
X84160000Y-49620000D01*
X81120000Y-49620000D02*
X81620000Y-49620000D01*
X78580000Y-49620000D02*
X79080000Y-49620000D01*
X76040000Y-49620000D02*
X76540000Y-49620000D01*
X73500000Y-49620000D02*
X74000000Y-49620000D01*
X88740000Y-47080000D02*
X89240000Y-47080000D01*
X86200000Y-47080000D02*
X86700000Y-47080000D01*
X83660000Y-47080000D02*
X84160000Y-47080000D01*
X81120000Y-47080000D02*
X81620000Y-47080000D01*
X78580000Y-47080000D02*
X79080000Y-47080000D01*
X76040000Y-47080000D02*
X76540000Y-47080000D01*
X73500000Y-47080000D02*
X74000000Y-47080000D01*
X88740000Y-44540000D02*
X89240000Y-44540000D01*
X86200000Y-44540000D02*
X86700000Y-44540000D01*
X83660000Y-44540000D02*
X84160000Y-44540000D01*
X81120000Y-44540000D02*
X81620000Y-44540000D01*
X78580000Y-44540000D02*
X79080000Y-44540000D01*
X76040000Y-44540000D02*
X76540000Y-44540000D01*
X73500000Y-44540000D02*
X74000000Y-44540000D01*
X88740000Y-42000000D02*
X89240000Y-42000000D01*
X86200000Y-42000000D02*
X86700000Y-42000000D01*
X83660000Y-42000000D02*
X84160000Y-42000000D01*
X81120000Y-42000000D02*
X81620000Y-42000000D01*
X78580000Y-42000000D02*
X79080000Y-42000000D01*
X76040000Y-42000000D02*
X76540000Y-42000000D01*
X73500000Y-42000000D02*
X74000000Y-42000000D01*
X63340000Y-123280000D02*
X63840000Y-123280000D01*
X60800000Y-123280000D02*
X61300000Y-123280000D01*
X58260000Y-123280000D02*
X58760000Y-123280000D01*
X55720000Y-123280000D02*
X56220000Y-123280000D01*
X53180000Y-123280000D02*
X53680000Y-123280000D01*
X50640000Y-123280000D02*
X51140000Y-123280000D01*
X48100000Y-123280000D02*
X48600000Y-123280000D01*
X63340000Y-120740000D02*
X63840000Y-120740000D01*
X60800000Y-120740000D02*
X61300000Y-120740000D01*
X58260000Y-120740000D02*
X58760000Y-120740000D01*
X55720000Y-120740000D02*
X56220000Y-120740000D01*
X53180000Y-120740000D02*
X53680000Y-120740000D01*
X50640000Y-120740000D02*
X51140000Y-120740000D01*
X48100000Y-120740000D02*
X48600000Y-120740000D01*
X63340000Y-118200000D02*
X63840000Y-118200000D01*
X60800000Y-118200000D02*
X61300000Y-118200000D01*
X58260000Y-118200000D02*
X58760000Y-118200000D01*
X55720000Y-118200000D02*
X56220000Y-118200000D01*
X53180000Y-118200000D02*
X53680000Y-118200000D01*
X50640000Y-118200000D02*
X51140000Y-118200000D01*
X48100000Y-118200000D02*
X48600000Y-118200000D01*
X63340000Y-115660000D02*
X63840000Y-115660000D01*
X60800000Y-115660000D02*
X61300000Y-115660000D01*
X58260000Y-115660000D02*
X58760000Y-115660000D01*
X55720000Y-115660000D02*
X56220000Y-115660000D01*
X53180000Y-115660000D02*
X53680000Y-115660000D01*
X50640000Y-115660000D02*
X51140000Y-115660000D01*
X48100000Y-115660000D02*
X48600000Y-115660000D01*
X63340000Y-113120000D02*
X63840000Y-113120000D01*
X60800000Y-113120000D02*
X61300000Y-113120000D01*
X58260000Y-113120000D02*
X58760000Y-113120000D01*
X55720000Y-113120000D02*
X56220000Y-113120000D01*
X53180000Y-113120000D02*
X53680000Y-113120000D01*
X50640000Y-113120000D02*
X51140000Y-113120000D01*
X48100000Y-113120000D02*
X48600000Y-113120000D01*
X63340000Y-110580000D02*
X63840000Y-110580000D01*
X60800000Y-110580000D02*
X61300000Y-110580000D01*
X58260000Y-110580000D02*
X58760000Y-110580000D01*
X55720000Y-110580000D02*
X56220000Y-110580000D01*
X53180000Y-110580000D02*
X53680000Y-110580000D01*
X50640000Y-110580000D02*
X51140000Y-110580000D01*
X48100000Y-110580000D02*
X48600000Y-110580000D01*
X63340000Y-108040000D02*
X63840000Y-108040000D01*
X60800000Y-108040000D02*
X61300000Y-108040000D01*
X58260000Y-108040000D02*
X58760000Y-108040000D01*
X55720000Y-108040000D02*
X56220000Y-108040000D01*
X53180000Y-108040000D02*
X53680000Y-108040000D01*
X50640000Y-108040000D02*
X51140000Y-108040000D01*
X48100000Y-108040000D02*
X48600000Y-108040000D01*
X63340000Y-105500000D02*
X63840000Y-105500000D01*
X60800000Y-105500000D02*
X61300000Y-105500000D01*
X58260000Y-105500000D02*
X58760000Y-105500000D01*
X55720000Y-105500000D02*
X56220000Y-105500000D01*
X53180000Y-105500000D02*
X53680000Y-105500000D01*
X50640000Y-105500000D02*
X51140000Y-105500000D01*
X48100000Y-105500000D02*
X48600000Y-105500000D01*
X63340000Y-102960000D02*
X63840000Y-102960000D01*
X60800000Y-102960000D02*
X61300000Y-102960000D01*
X58260000Y-102960000D02*
X58760000Y-102960000D01*
X55720000Y-102960000D02*
X56220000Y-102960000D01*
X53180000Y-102960000D02*
X53680000Y-102960000D01*
X50640000Y-102960000D02*
X51140000Y-102960000D01*
X48100000Y-102960000D02*
X48600000Y-102960000D01*
X63340000Y-100420000D02*
X63840000Y-100420000D01*
X60800000Y-100420000D02*
X61300000Y-100420000D01*
X58260000Y-100420000D02*
X58760000Y-100420000D01*
X55720000Y-100420000D02*
X56220000Y-100420000D01*
X53180000Y-100420000D02*
X53680000Y-100420000D01*
X50640000Y-100420000D02*
X51140000Y-100420000D01*
X48100000Y-100420000D02*
X48600000Y-100420000D01*
X63340000Y-97880000D02*
X63840000Y-97880000D01*
X60800000Y-97880000D02*
X61300000Y-97880000D01*
X58260000Y-97880000D02*
X58760000Y-97880000D01*
X55720000Y-97880000D02*
X56220000Y-97880000D01*
X53180000Y-97880000D02*
X53680000Y-97880000D01*
X50640000Y-97880000D02*
X51140000Y-97880000D01*
X48100000Y-97880000D02*
X48600000Y-97880000D01*
X63340000Y-95340000D02*
X63840000Y-95340000D01*
X60800000Y-95340000D02*
X61300000Y-95340000D01*
X58260000Y-95340000D02*
X58760000Y-95340000D01*
X55720000Y-95340000D02*
X56220000Y-95340000D01*
X53180000Y-95340000D02*
X53680000Y-95340000D01*
X50640000Y-95340000D02*
X51140000Y-95340000D01*
X48100000Y-95340000D02*
X48600000Y-95340000D01*
X63340000Y-92800000D02*
X63840000Y-92800000D01*
X60800000Y-92800000D02*
X61300000Y-92800000D01*
X58260000Y-92800000D02*
X58760000Y-92800000D01*
X55720000Y-92800000D02*
X56220000Y-92800000D01*
X53180000Y-92800000D02*
X53680000Y-92800000D01*
X50640000Y-92800000D02*
X51140000Y-92800000D01*
X48100000Y-92800000D02*
X48600000Y-92800000D01*
X63340000Y-90260000D02*
X63840000Y-90260000D01*
X60800000Y-90260000D02*
X61300000Y-90260000D01*
X58260000Y-90260000D02*
X58760000Y-90260000D01*
X55720000Y-90260000D02*
X56220000Y-90260000D01*
X53180000Y-90260000D02*
X53680000Y-90260000D01*
X50640000Y-90260000D02*
X51140000Y-90260000D01*
X48100000Y-90260000D02*
X48600000Y-90260000D01*
X63340000Y-87720000D02*
X63840000Y-87720000D01*
X60800000Y-87720000D02*
X61300000Y-87720000D01*
X58260000Y-87720000D02*
X58760000Y-87720000D01*
X55720000Y-87720000D02*
X56220000Y-87720000D01*
X53180000Y-87720000D02*
X53680000Y-87720000D01*
X50640000Y-87720000D02*
X51140000Y-87720000D01*
X48100000Y-87720000D02*
X48600000Y-87720000D01*
X63340000Y-85180000D02*
X63840000Y-85180000D01*
X60800000Y-85180000D02*
X61300000Y-85180000D01*
X58260000Y-85180000D02*
X58760000Y-85180000D01*
X55720000Y-85180000D02*
X56220000Y-85180000D01*
X53180000Y-85180000D02*
X53680000Y-85180000D01*
X50640000Y-85180000D02*
X51140000Y-85180000D01*
X48100000Y-85180000D02*
X48600000Y-85180000D01*
X63340000Y-82640000D02*
X63840000Y-82640000D01*
X60800000Y-82640000D02*
X61300000Y-82640000D01*
X58260000Y-82640000D02*
X58760000Y-82640000D01*
X55720000Y-82640000D02*
X56220000Y-82640000D01*
X53180000Y-82640000D02*
X53680000Y-82640000D01*
X50640000Y-82640000D02*
X51140000Y-82640000D01*
X48100000Y-82640000D02*
X48600000Y-82640000D01*
X63340000Y-80100000D02*
X63840000Y-80100000D01*
X60800000Y-80100000D02*
X61300000Y-80100000D01*
X58260000Y-80100000D02*
X58760000Y-80100000D01*
X55720000Y-80100000D02*
X56220000Y-80100000D01*
X53180000Y-80100000D02*
X53680000Y-80100000D01*
X50640000Y-80100000D02*
X51140000Y-80100000D01*
X48100000Y-80100000D02*
X48600000Y-80100000D01*
X63340000Y-77560000D02*
X63840000Y-77560000D01*
X60800000Y-77560000D02*
X61300000Y-77560000D01*
X58260000Y-77560000D02*
X58760000Y-77560000D01*
X55720000Y-77560000D02*
X56220000Y-77560000D01*
X53180000Y-77560000D02*
X53680000Y-77560000D01*
X50640000Y-77560000D02*
X51140000Y-77560000D01*
X48100000Y-77560000D02*
X48600000Y-77560000D01*
X63340000Y-75020000D02*
X63840000Y-75020000D01*
X60800000Y-75020000D02*
X61300000Y-75020000D01*
X58260000Y-75020000D02*
X58760000Y-75020000D01*
X55720000Y-75020000D02*
X56220000Y-75020000D01*
X53180000Y-75020000D02*
X53680000Y-75020000D01*
X50640000Y-75020000D02*
X51140000Y-75020000D01*
X48100000Y-75020000D02*
X48600000Y-75020000D01*
X63340000Y-72480000D02*
X63840000Y-72480000D01*
X60800000Y-72480000D02*
X61300000Y-72480000D01*
X58260000Y-72480000D02*
X58760000Y-72480000D01*
X55720000Y-72480000D02*
X56220000Y-72480000D01*
X53180000Y-72480000D02*
X53680000Y-72480000D01*
X50640000Y-72480000D02*
X51140000Y-72480000D01*
X48100000Y-72480000D02*
X48600000Y-72480000D01*
X63340000Y-69940000D02*
X63840000Y-69940000D01*
X60800000Y-69940000D02*
X61300000Y-69940000D01*
X58260000Y-69940000D02*
X58760000Y-69940000D01*
X55720000Y-69940000D02*
X56220000Y-69940000D01*
X53180000Y-69940000D02*
X53680000Y-69940000D01*
X50640000Y-69940000D02*
X51140000Y-69940000D01*
X48100000Y-69940000D02*
X48600000Y-69940000D01*
X63340000Y-67400000D02*
X63840000Y-67400000D01*
X60800000Y-67400000D02*
X61300000Y-67400000D01*
X58260000Y-67400000D02*
X58760000Y-67400000D01*
X55720000Y-67400000D02*
X56220000Y-67400000D01*
X53180000Y-67400000D02*
X53680000Y-67400000D01*
X50640000Y-67400000D02*
X51140000Y-67400000D01*
X48100000Y-67400000D02*
X48600000Y-67400000D01*
X63340000Y-64860000D02*
X63840000Y-64860000D01*
X60800000Y-64860000D02*
X61300000Y-64860000D01*
X58260000Y-64860000D02*
X58760000Y-64860000D01*
X55720000Y-64860000D02*
X56220000Y-64860000D01*
X53180000Y-64860000D02*
X53680000Y-64860000D01*
X50640000Y-64860000D02*
X51140000Y-64860000D01*
X48100000Y-64860000D02*
X48600000Y-64860000D01*
X63340000Y-62320000D02*
X63840000Y-62320000D01*
X60800000Y-62320000D02*
X61300000Y-62320000D01*
X58260000Y-62320000D02*
X58760000Y-62320000D01*
X55720000Y-62320000D02*
X56220000Y-62320000D01*
X53180000Y-62320000D02*
X53680000Y-62320000D01*
X50640000Y-62320000D02*
X51140000Y-62320000D01*
X48100000Y-62320000D02*
X48600000Y-62320000D01*
X63340000Y-59780000D02*
X63840000Y-59780000D01*
X60800000Y-59780000D02*
X61300000Y-59780000D01*
X58260000Y-59780000D02*
X58760000Y-59780000D01*
X55720000Y-59780000D02*
X56220000Y-59780000D01*
X53180000Y-59780000D02*
X53680000Y-59780000D01*
X50640000Y-59780000D02*
X51140000Y-59780000D01*
X48100000Y-59780000D02*
X48600000Y-59780000D01*
X63340000Y-57240000D02*
X63840000Y-57240000D01*
X60800000Y-57240000D02*
X61300000Y-57240000D01*
X58260000Y-57240000D02*
X58760000Y-57240000D01*
X55720000Y-57240000D02*
X56220000Y-57240000D01*
X53180000Y-57240000D02*
X53680000Y-57240000D01*
X50640000Y-57240000D02*
X51140000Y-57240000D01*
X48100000Y-57240000D02*
X48600000Y-57240000D01*
X63340000Y-54700000D02*
X63840000Y-54700000D01*
X60800000Y-54700000D02*
X61300000Y-54700000D01*
X58260000Y-54700000D02*
X58760000Y-54700000D01*
X55720000Y-54700000D02*
X56220000Y-54700000D01*
X53180000Y-54700000D02*
X53680000Y-54700000D01*
X50640000Y-54700000D02*
X51140000Y-54700000D01*
X48100000Y-54700000D02*
X48600000Y-54700000D01*
X63340000Y-52160000D02*
X63840000Y-52160000D01*
X60800000Y-52160000D02*
X61300000Y-52160000D01*
X58260000Y-52160000D02*
X58760000Y-52160000D01*
X55720000Y-52160000D02*
X56220000Y-52160000D01*
X53180000Y-52160000D02*
X53680000Y-52160000D01*
X50640000Y-52160000D02*
X51140000Y-52160000D01*
X48100000Y-52160000D02*
X48600000Y-52160000D01*
X63340000Y-49620000D02*
X63840000Y-49620000D01*
X60800000Y-49620000D02*
X61300000Y-49620000D01*
X58260000Y-49620000D02*
X58760000Y-49620000D01*
X55720000Y-49620000D02*
X56220000Y-49620000D01*
X53180000Y-49620000D02*
X53680000Y-49620000D01*
X50640000Y-49620000D02*
X51140000Y-49620000D01*
X48100000Y-49620000D02*
X48600000Y-49620000D01*
X63340000Y-47080000D02*
X63840000Y-47080000D01*
X60800000Y-47080000D02*
X61300000Y-47080000D01*
X58260000Y-47080000D02*
X58760000Y-47080000D01*
X55720000Y-47080000D02*
X56220000Y-47080000D01*
X53180000Y-47080000D02*
X53680000Y-47080000D01*
X50640000Y-47080000D02*
X51140000Y-47080000D01*
X48100000Y-47080000D02*
X48600000Y-47080000D01*
X63340000Y-44540000D02*
X63840000Y-44540000D01*
X60800000Y-44540000D02*
X61300000Y-44540000D01*
X58260000Y-44540000D02*
X58760000Y-44540000D01*
X55720000Y-44540000D02*
X56220000Y-44540000D01*
X53180000Y-44540000D02*
X53680000Y-44540000D01*
X50640000Y-44540000D02*
X51140000Y-44540000D01*
X48100000Y-44540000D02*
X48600000Y-44540000D01*
X63340000Y-42000000D02*
X63840000Y-42000000D01*
X60800000Y-42000000D02*
X61300000Y-42000000D01*
X58260000Y-42000000D02*
X58760000Y-42000000D01*
X55720000Y-42000000D02*
X56220000Y-42000000D01*
X53180000Y-42000000D02*
X53680000Y-42000000D01*
X50640000Y-42000000D02*
X51140000Y-42000000D01*
X48100000Y-42000000D02*
X48600000Y-42000000D01*
X91500000Y-40750000D02*
X96500000Y-40750000D01*
X96500000Y-40750000D02*
X96500000Y-124500000D01*
X96500000Y-124500000D02*
X91500000Y-124500000D01*
X91500000Y-124500000D02*
X91500000Y-40750000D01*
X40750000Y-40750000D02*
X45750000Y-40750000D01*
X45750000Y-40750000D02*
X45750000Y-124500000D01*
X45750000Y-124500000D02*
X40750000Y-124500000D01*
X40750000Y-124500000D02*
X40750000Y-40750000D01*
X41619047Y-40071428D02*
X42380952Y-40071428D01*
X42000000Y-40452380D02*
X42000000Y-39690476D01*
X93061904Y-39500000D02*
X92966666Y-39452380D01*
X92823809Y-39452380D01*
X92680952Y-39500000D01*
X92585714Y-39595238D01*
X92538095Y-39690476D01*
X92490476Y-39880952D01*
X92490476Y-40023809D01*
X92538095Y-40214285D01*
X92585714Y-40309523D01*
X92680952Y-40404761D01*
X92823809Y-40452380D01*
X92919047Y-40452380D01*
X93061904Y-40404761D01*
X93109523Y-40357142D01*
X93109523Y-40023809D01*
X92919047Y-40023809D01*
X94959047Y-40071428D02*
X95720952Y-40071428D01*
X44801904Y-39500000D02*
X44706666Y-39452380D01*
X44563809Y-39452380D01*
X44420952Y-39500000D01*
X44325714Y-39595238D01*
X44278095Y-39690476D01*
X44230476Y-39880952D01*
X44230476Y-40023809D01*
X44278095Y-40214285D01*
X44325714Y-40309523D01*
X44420952Y-40404761D01*
X44563809Y-40452380D01*
X44659047Y-40452380D01*
X44801904Y-40404761D01*
X44849523Y-40357142D01*
X44849523Y-40023809D01*
X44659047Y-40023809D01*
D11*
%TO.C,REF\u002A\u002A*%
X47170000Y-128975000D02*
X47170000Y-127645000D01*
X82850000Y-130305000D02*
X82850000Y-127645000D01*
X49770000Y-130305000D02*
X82850000Y-130305000D01*
X47170000Y-127645000D02*
X48500000Y-127645000D01*
X49770000Y-127645000D02*
X82850000Y-127645000D01*
X49770000Y-130305000D02*
X49770000Y-127645000D01*
X48270000Y-34330000D02*
X81350000Y-34330000D01*
X45670000Y-31670000D02*
X47000000Y-31670000D01*
X48270000Y-31670000D02*
X81350000Y-31670000D01*
X81350000Y-34330000D02*
X81350000Y-31670000D01*
X45670000Y-33000000D02*
X45670000Y-31670000D01*
X48270000Y-34330000D02*
X48270000Y-31670000D01*
%TD*%
M02*
