%TF.GenerationSoftware,KiCad,Pcbnew,(6.0.8-1)-1*%
%TF.CreationDate,2023-02-02T10:16:15-05:00*%
%TF.ProjectId,protopcb,70726f74-6f70-4636-922e-6b696361645f,rev?*%
%TF.SameCoordinates,Original*%
%TF.FileFunction,Drillmap*%
%TF.FilePolarity,Positive*%
%FSLAX45Y45*%
G04 Gerber Fmt 4.5, Leading zero omitted, Abs format (unit mm)*
G04 Created by KiCad (PCBNEW (6.0.8-1)-1) date 2023-02-02 10:16:15*
%MOMM*%
%LPD*%
G01*
G04 APERTURE LIST*
%ADD10C,0.100000*%
%ADD11C,0.200000*%
%ADD12C,0.270000*%
G04 APERTURE END LIST*
D10*
X3200000Y-3100000D02*
X9800000Y-3100000D01*
X9800000Y-3100000D02*
X9800000Y-13100000D01*
X9800000Y-13100000D02*
X3200000Y-13100000D01*
X3200000Y-13100000D02*
X3200000Y-3100000D01*
D11*
D12*
X3365000Y-3265000D02*
X3635000Y-3535000D01*
X3635000Y-3265000D02*
X3365000Y-3535000D01*
X9365000Y-12665000D02*
X9635000Y-12935000D01*
X9635000Y-12665000D02*
X9365000Y-12935000D01*
D11*
X3452619Y-13415476D02*
X3452619Y-13215476D01*
X3500238Y-13215476D01*
X3528809Y-13225000D01*
X3547857Y-13244048D01*
X3557381Y-13263095D01*
X3566905Y-13301190D01*
X3566905Y-13329762D01*
X3557381Y-13367857D01*
X3547857Y-13386905D01*
X3528809Y-13405952D01*
X3500238Y-13415476D01*
X3452619Y-13415476D01*
X3652619Y-13415476D02*
X3652619Y-13282143D01*
X3652619Y-13320238D02*
X3662143Y-13301190D01*
X3671667Y-13291667D01*
X3690714Y-13282143D01*
X3709762Y-13282143D01*
X3776428Y-13415476D02*
X3776428Y-13282143D01*
X3776428Y-13215476D02*
X3766905Y-13225000D01*
X3776428Y-13234524D01*
X3785952Y-13225000D01*
X3776428Y-13215476D01*
X3776428Y-13234524D01*
X3900238Y-13415476D02*
X3881190Y-13405952D01*
X3871667Y-13386905D01*
X3871667Y-13215476D01*
X4005000Y-13415476D02*
X3985952Y-13405952D01*
X3976428Y-13386905D01*
X3976428Y-13215476D01*
X4233571Y-13415476D02*
X4233571Y-13215476D01*
X4300238Y-13358333D01*
X4366905Y-13215476D01*
X4366905Y-13415476D01*
X4547857Y-13415476D02*
X4547857Y-13310714D01*
X4538333Y-13291667D01*
X4519286Y-13282143D01*
X4481190Y-13282143D01*
X4462143Y-13291667D01*
X4547857Y-13405952D02*
X4528810Y-13415476D01*
X4481190Y-13415476D01*
X4462143Y-13405952D01*
X4452619Y-13386905D01*
X4452619Y-13367857D01*
X4462143Y-13348809D01*
X4481190Y-13339286D01*
X4528810Y-13339286D01*
X4547857Y-13329762D01*
X4643095Y-13282143D02*
X4643095Y-13482143D01*
X4643095Y-13291667D02*
X4662143Y-13282143D01*
X4700238Y-13282143D01*
X4719286Y-13291667D01*
X4728810Y-13301190D01*
X4738333Y-13320238D01*
X4738333Y-13377381D01*
X4728810Y-13396428D01*
X4719286Y-13405952D01*
X4700238Y-13415476D01*
X4662143Y-13415476D01*
X4643095Y-13405952D01*
X4824048Y-13396428D02*
X4833571Y-13405952D01*
X4824048Y-13415476D01*
X4814524Y-13405952D01*
X4824048Y-13396428D01*
X4824048Y-13415476D01*
X4824048Y-13291667D02*
X4833571Y-13301190D01*
X4824048Y-13310714D01*
X4814524Y-13301190D01*
X4824048Y-13291667D01*
X4824048Y-13310714D01*
X2995000Y-13645000D02*
X3195000Y-13845000D01*
X3195000Y-13645000D02*
X2995000Y-13845000D01*
X3443095Y-13654524D02*
X3452619Y-13645000D01*
X3471667Y-13635476D01*
X3519286Y-13635476D01*
X3538333Y-13645000D01*
X3547857Y-13654524D01*
X3557381Y-13673571D01*
X3557381Y-13692619D01*
X3547857Y-13721190D01*
X3433571Y-13835476D01*
X3557381Y-13835476D01*
X3643095Y-13816428D02*
X3652619Y-13825952D01*
X3643095Y-13835476D01*
X3633571Y-13825952D01*
X3643095Y-13816428D01*
X3643095Y-13835476D01*
X3719286Y-13635476D02*
X3852619Y-13635476D01*
X3766905Y-13835476D01*
X3966905Y-13635476D02*
X3985952Y-13635476D01*
X4005000Y-13645000D01*
X4014524Y-13654524D01*
X4024048Y-13673571D01*
X4033571Y-13711667D01*
X4033571Y-13759286D01*
X4024048Y-13797381D01*
X4014524Y-13816428D01*
X4005000Y-13825952D01*
X3985952Y-13835476D01*
X3966905Y-13835476D01*
X3947857Y-13825952D01*
X3938333Y-13816428D01*
X3928809Y-13797381D01*
X3919286Y-13759286D01*
X3919286Y-13711667D01*
X3928809Y-13673571D01*
X3938333Y-13654524D01*
X3947857Y-13645000D01*
X3966905Y-13635476D01*
X4157381Y-13635476D02*
X4176428Y-13635476D01*
X4195476Y-13645000D01*
X4205000Y-13654524D01*
X4214524Y-13673571D01*
X4224048Y-13711667D01*
X4224048Y-13759286D01*
X4214524Y-13797381D01*
X4205000Y-13816428D01*
X4195476Y-13825952D01*
X4176428Y-13835476D01*
X4157381Y-13835476D01*
X4138333Y-13825952D01*
X4128809Y-13816428D01*
X4119286Y-13797381D01*
X4109762Y-13759286D01*
X4109762Y-13711667D01*
X4119286Y-13673571D01*
X4128809Y-13654524D01*
X4138333Y-13645000D01*
X4157381Y-13635476D01*
X4309762Y-13835476D02*
X4309762Y-13702143D01*
X4309762Y-13721190D02*
X4319286Y-13711667D01*
X4338333Y-13702143D01*
X4366905Y-13702143D01*
X4385952Y-13711667D01*
X4395476Y-13730714D01*
X4395476Y-13835476D01*
X4395476Y-13730714D02*
X4405000Y-13711667D01*
X4424048Y-13702143D01*
X4452619Y-13702143D01*
X4471667Y-13711667D01*
X4481190Y-13730714D01*
X4481190Y-13835476D01*
X4576429Y-13835476D02*
X4576429Y-13702143D01*
X4576429Y-13721190D02*
X4585952Y-13711667D01*
X4605000Y-13702143D01*
X4633571Y-13702143D01*
X4652619Y-13711667D01*
X4662143Y-13730714D01*
X4662143Y-13835476D01*
X4662143Y-13730714D02*
X4671667Y-13711667D01*
X4690714Y-13702143D01*
X4719286Y-13702143D01*
X4738333Y-13711667D01*
X4747857Y-13730714D01*
X4747857Y-13835476D01*
X5138333Y-13625952D02*
X4966905Y-13883095D01*
X5395476Y-13635476D02*
X5414524Y-13635476D01*
X5433571Y-13645000D01*
X5443095Y-13654524D01*
X5452619Y-13673571D01*
X5462143Y-13711667D01*
X5462143Y-13759286D01*
X5452619Y-13797381D01*
X5443095Y-13816428D01*
X5433571Y-13825952D01*
X5414524Y-13835476D01*
X5395476Y-13835476D01*
X5376429Y-13825952D01*
X5366905Y-13816428D01*
X5357381Y-13797381D01*
X5347857Y-13759286D01*
X5347857Y-13711667D01*
X5357381Y-13673571D01*
X5366905Y-13654524D01*
X5376429Y-13645000D01*
X5395476Y-13635476D01*
X5547857Y-13816428D02*
X5557381Y-13825952D01*
X5547857Y-13835476D01*
X5538333Y-13825952D01*
X5547857Y-13816428D01*
X5547857Y-13835476D01*
X5747857Y-13835476D02*
X5633571Y-13835476D01*
X5690714Y-13835476D02*
X5690714Y-13635476D01*
X5671667Y-13664048D01*
X5652619Y-13683095D01*
X5633571Y-13692619D01*
X5871667Y-13635476D02*
X5890714Y-13635476D01*
X5909762Y-13645000D01*
X5919286Y-13654524D01*
X5928809Y-13673571D01*
X5938333Y-13711667D01*
X5938333Y-13759286D01*
X5928809Y-13797381D01*
X5919286Y-13816428D01*
X5909762Y-13825952D01*
X5890714Y-13835476D01*
X5871667Y-13835476D01*
X5852619Y-13825952D01*
X5843095Y-13816428D01*
X5833571Y-13797381D01*
X5824048Y-13759286D01*
X5824048Y-13711667D01*
X5833571Y-13673571D01*
X5843095Y-13654524D01*
X5852619Y-13645000D01*
X5871667Y-13635476D01*
X6109762Y-13635476D02*
X6071667Y-13635476D01*
X6052619Y-13645000D01*
X6043095Y-13654524D01*
X6024048Y-13683095D01*
X6014524Y-13721190D01*
X6014524Y-13797381D01*
X6024048Y-13816428D01*
X6033571Y-13825952D01*
X6052619Y-13835476D01*
X6090714Y-13835476D01*
X6109762Y-13825952D01*
X6119286Y-13816428D01*
X6128809Y-13797381D01*
X6128809Y-13749762D01*
X6119286Y-13730714D01*
X6109762Y-13721190D01*
X6090714Y-13711667D01*
X6052619Y-13711667D01*
X6033571Y-13721190D01*
X6024048Y-13730714D01*
X6014524Y-13749762D01*
X6195476Y-13635476D02*
X6319286Y-13635476D01*
X6252619Y-13711667D01*
X6281190Y-13711667D01*
X6300238Y-13721190D01*
X6309762Y-13730714D01*
X6319286Y-13749762D01*
X6319286Y-13797381D01*
X6309762Y-13816428D01*
X6300238Y-13825952D01*
X6281190Y-13835476D01*
X6224048Y-13835476D01*
X6205000Y-13825952D01*
X6195476Y-13816428D01*
X6395476Y-13635476D02*
X6395476Y-13673571D01*
X6471667Y-13635476D02*
X6471667Y-13673571D01*
X6766905Y-13911667D02*
X6757381Y-13902143D01*
X6738333Y-13873571D01*
X6728809Y-13854524D01*
X6719286Y-13825952D01*
X6709762Y-13778333D01*
X6709762Y-13740238D01*
X6719286Y-13692619D01*
X6728809Y-13664048D01*
X6738333Y-13645000D01*
X6757381Y-13616428D01*
X6766905Y-13606905D01*
X6833571Y-13654524D02*
X6843095Y-13645000D01*
X6862143Y-13635476D01*
X6909762Y-13635476D01*
X6928809Y-13645000D01*
X6938333Y-13654524D01*
X6947857Y-13673571D01*
X6947857Y-13692619D01*
X6938333Y-13721190D01*
X6824048Y-13835476D01*
X6947857Y-13835476D01*
X7185952Y-13835476D02*
X7185952Y-13635476D01*
X7271667Y-13835476D02*
X7271667Y-13730714D01*
X7262143Y-13711667D01*
X7243095Y-13702143D01*
X7214524Y-13702143D01*
X7195476Y-13711667D01*
X7185952Y-13721190D01*
X7395476Y-13835476D02*
X7376428Y-13825952D01*
X7366905Y-13816428D01*
X7357381Y-13797381D01*
X7357381Y-13740238D01*
X7366905Y-13721190D01*
X7376428Y-13711667D01*
X7395476Y-13702143D01*
X7424048Y-13702143D01*
X7443095Y-13711667D01*
X7452619Y-13721190D01*
X7462143Y-13740238D01*
X7462143Y-13797381D01*
X7452619Y-13816428D01*
X7443095Y-13825952D01*
X7424048Y-13835476D01*
X7395476Y-13835476D01*
X7576428Y-13835476D02*
X7557381Y-13825952D01*
X7547857Y-13806905D01*
X7547857Y-13635476D01*
X7728809Y-13825952D02*
X7709762Y-13835476D01*
X7671667Y-13835476D01*
X7652619Y-13825952D01*
X7643095Y-13806905D01*
X7643095Y-13730714D01*
X7652619Y-13711667D01*
X7671667Y-13702143D01*
X7709762Y-13702143D01*
X7728809Y-13711667D01*
X7738333Y-13730714D01*
X7738333Y-13749762D01*
X7643095Y-13768809D01*
X7814524Y-13825952D02*
X7833571Y-13835476D01*
X7871667Y-13835476D01*
X7890714Y-13825952D01*
X7900238Y-13806905D01*
X7900238Y-13797381D01*
X7890714Y-13778333D01*
X7871667Y-13768809D01*
X7843095Y-13768809D01*
X7824048Y-13759286D01*
X7814524Y-13740238D01*
X7814524Y-13730714D01*
X7824048Y-13711667D01*
X7843095Y-13702143D01*
X7871667Y-13702143D01*
X7890714Y-13711667D01*
X7966905Y-13911667D02*
X7976428Y-13902143D01*
X7995476Y-13873571D01*
X8005000Y-13854524D01*
X8014524Y-13825952D01*
X8024048Y-13778333D01*
X8024048Y-13740238D01*
X8014524Y-13692619D01*
X8005000Y-13664048D01*
X7995476Y-13645000D01*
X7976428Y-13616428D01*
X7966905Y-13606905D01*
X8328809Y-13911667D02*
X8319286Y-13902143D01*
X8300238Y-13873571D01*
X8290714Y-13854524D01*
X8281190Y-13825952D01*
X8271667Y-13778333D01*
X8271667Y-13740238D01*
X8281190Y-13692619D01*
X8290714Y-13664048D01*
X8300238Y-13645000D01*
X8319286Y-13616428D01*
X8328809Y-13606905D01*
X8405000Y-13702143D02*
X8405000Y-13835476D01*
X8405000Y-13721190D02*
X8414524Y-13711667D01*
X8433571Y-13702143D01*
X8462143Y-13702143D01*
X8481190Y-13711667D01*
X8490714Y-13730714D01*
X8490714Y-13835476D01*
X8614524Y-13835476D02*
X8595476Y-13825952D01*
X8585952Y-13816428D01*
X8576429Y-13797381D01*
X8576429Y-13740238D01*
X8585952Y-13721190D01*
X8595476Y-13711667D01*
X8614524Y-13702143D01*
X8643095Y-13702143D01*
X8662143Y-13711667D01*
X8671667Y-13721190D01*
X8681190Y-13740238D01*
X8681190Y-13797381D01*
X8671667Y-13816428D01*
X8662143Y-13825952D01*
X8643095Y-13835476D01*
X8614524Y-13835476D01*
X8738333Y-13702143D02*
X8814524Y-13702143D01*
X8766905Y-13635476D02*
X8766905Y-13806905D01*
X8776429Y-13825952D01*
X8795476Y-13835476D01*
X8814524Y-13835476D01*
X9033571Y-13702143D02*
X9033571Y-13902143D01*
X9033571Y-13711667D02*
X9052619Y-13702143D01*
X9090714Y-13702143D01*
X9109762Y-13711667D01*
X9119286Y-13721190D01*
X9128810Y-13740238D01*
X9128810Y-13797381D01*
X9119286Y-13816428D01*
X9109762Y-13825952D01*
X9090714Y-13835476D01*
X9052619Y-13835476D01*
X9033571Y-13825952D01*
X9243095Y-13835476D02*
X9224048Y-13825952D01*
X9214524Y-13806905D01*
X9214524Y-13635476D01*
X9405000Y-13835476D02*
X9405000Y-13730714D01*
X9395476Y-13711667D01*
X9376429Y-13702143D01*
X9338333Y-13702143D01*
X9319286Y-13711667D01*
X9405000Y-13825952D02*
X9385952Y-13835476D01*
X9338333Y-13835476D01*
X9319286Y-13825952D01*
X9309762Y-13806905D01*
X9309762Y-13787857D01*
X9319286Y-13768809D01*
X9338333Y-13759286D01*
X9385952Y-13759286D01*
X9405000Y-13749762D01*
X9471667Y-13702143D02*
X9547857Y-13702143D01*
X9500238Y-13635476D02*
X9500238Y-13806905D01*
X9509762Y-13825952D01*
X9528810Y-13835476D01*
X9547857Y-13835476D01*
X9690714Y-13825952D02*
X9671667Y-13835476D01*
X9633571Y-13835476D01*
X9614524Y-13825952D01*
X9605000Y-13806905D01*
X9605000Y-13730714D01*
X9614524Y-13711667D01*
X9633571Y-13702143D01*
X9671667Y-13702143D01*
X9690714Y-13711667D01*
X9700238Y-13730714D01*
X9700238Y-13749762D01*
X9605000Y-13768809D01*
X9871667Y-13835476D02*
X9871667Y-13635476D01*
X9871667Y-13825952D02*
X9852619Y-13835476D01*
X9814524Y-13835476D01*
X9795476Y-13825952D01*
X9785952Y-13816428D01*
X9776429Y-13797381D01*
X9776429Y-13740238D01*
X9785952Y-13721190D01*
X9795476Y-13711667D01*
X9814524Y-13702143D01*
X9852619Y-13702143D01*
X9871667Y-13711667D01*
X9947857Y-13911667D02*
X9957381Y-13902143D01*
X9976429Y-13873571D01*
X9985952Y-13854524D01*
X9995476Y-13825952D01*
X10005000Y-13778333D01*
X10005000Y-13740238D01*
X9995476Y-13692619D01*
X9985952Y-13664048D01*
X9976429Y-13645000D01*
X9957381Y-13616428D01*
X9947857Y-13606905D01*
M02*
